<svg xmlns="http://www.w3.org/2000/svg"><defs><font id="IBMPlexMono" horiz-adv-x="600"><font-face font-family="IBM Plex Mono" panose-1="2 11 5 9 5 2 3 0 2 3" ascent="1025" descent="-275" alphabetic="0"/><glyph glyph-name="space"/><glyph unicode="!" glyph-name="exclam" d="M284 233l-28 262v203h88V495l-28-262h-32zM300-9q-41 0-57 17t-17 43v18q0 26 16 43t58 17q41 0 57-17t17-43V51q0-26-16-43T300-9z"/><glyph unicode="&quot;" glyph-name="quotedbl" d="M430 463v277h76V463h-76zm-79 0v277h76V463h-76z"/><glyph unicode="#" glyph-name="numbersign" d="M148 216H16v66h144l23 134H52v66h143l38 216h73L183 0h-73l38 216zm269 482h73l-38-216h132v-66H440l-23-134h131v-66H405L367 0h-73l123 698z"/><glyph unicode="$" glyph-name="dollar" d="M279-11q-83 5-138 38t-91 84l61 50q36-45 76-70t93-30v261l-23 4q-52 9-87 27t-56 44-30 57-9 66q0 85 54 133t150 56v102h62V709q69-5 119-33t89-80l-63-45q-27 36-61 58t-85 27V391l30-5q51-9 86-27t56-43 31-58 9-67q0-88-54-141T341-11v-102h-62v102zM156 520q0-49 28-77t96-42v236q-60-6-92-35t-32-82zm315-330q0 54-30 82t-101 40V62q63 7 97 40t34 88z"/><glyph unicode="%" glyph-name="percent" d="M169 356q-66 0-107 44T20 533q0 88 41 132t108 45q66 0 107-44t42-133q0-88-41-132t-108-45zm0 54q36 0 58 25t23 73v50q0 48-22 73t-59 25q-36 0-58-25t-23-73v-50q0-48 22-73t59-25zm341 288h72L422 398h-72l160 300zM178 300h72L90 0H18l160 300zM431-12q-66 0-107 44t-42 133q0 88 41 132t108 45q66 0 107-44t42-133q0-88-41-132T431-12zm0 54q36 0 58 25t23 73v50q0 48-22 73t-59 25q-36 0-58-25t-23-73v-50q0-48 22-73t59-25z"/><glyph unicode="&amp;" glyph-name="ampersand" d="M217-12q-46 0-81 15T76 44t-38 62-13 75q0 26 6 54t21 54 39 51 63 44q-28 36-46 74t-19 83q0 38 14 69t39 53 58 35 70 12q33 0 60-9t49-25 35-34 22-38l-66-34q-13 31-39 51t-65 21q-45 0-71-27t-27-71v-8q0-16 4-31t12-31 22-36 33-43l90-111 73-90h5q7 39 9 89t4 98h141v-67h-75q-3-24-6-45t-7-41-9-40-14-44L572 0h-95l-87 103h-5q-14-52-57-83T217-12zm21 71q43 0 76 18t52 50L192 337q-46-29-65-65t-19-80v-15q0-54 36-86t94-32z"/><glyph unicode="'" glyph-name="quotesingle" d="M262 463v277h76V463h-76z"/><glyph unicode="(" glyph-name="parenleft" d="M205 311q0 73 16 140t45 126 67 104 80 79h81q-44-33-82-76t-68-95-47-111-17-124v-86q0-64 17-123t46-111 68-95 83-77h-81q-42 31-80 78T267 45t-45 125-17 141z"/><glyph unicode=")" glyph-name="parenright" d="M395 311q0-73-16-140T334 45 267-60t-80-78h-81q43 33 82 76t68 95 47 111 17 124v86q0 64-17 123t-46 111-69 95-82 77h81q42-32 80-78t66-105 45-125 17-141z"/><glyph unicode="*" glyph-name="asterisk" d="M175 72l-57 42 124 170-199 66 21 66 199-64v216h74V352l199 64 21-66-199-66 124-170-57-42-125 172L175 72z"/><glyph unicode="+" glyph-name="plus" d="M262 62v209H62v68h200v209h76V339h200v-68H338V62h-76z"/><glyph unicode="," glyph-name="comma" d="M257 136h129L271-141h-67l53 277z"/><glyph unicode="-" glyph-name="hyphen" d="M155 262v84h290v-84H155z"/><glyph unicode="." glyph-name="period" d="M300-9q-41 0-57 17t-17 43v18q0 26 16 43t58 17q41 0 57-17t17-43V51q0-26-16-43T300-9z"/><glyph unicode="/" glyph-name="slash" d="M90-138l348 898h72L162-138H90z"/><glyph unicode="0" glyph-name="zero" d="M300-12q-64 0-110 24t-76 71-44 113-14 153q0 85 14 152t44 114 76 70 110 25q64 0 110-24t76-71 44-113 14-153q0-86-14-153T486 83t-76-70-110-25zm0 73q42 0 72 16t48 47 28 72 9 96v114q0 52-9 95t-27 73-49 46-72 17q-42 0-72-16t-48-47-28-73-9-95V292q0-53 9-95t27-73 49-46 72-17zm0 229q-35 0-48 14t-14 34v22q0 20 13 34t49 14q35 0 48-14t14-34v-22q0-20-13-34t-49-14z"/><glyph unicode="1" glyph-name="one" d="M85 0v73h200v563h-7L102 472l-49 53 185 173h131V73h184V0H85z"/><glyph unicode="2" glyph-name="two" d="M537 0H71v86l233 210q51 46 84 94t33 103v12q0 63-33 97t-98 35q-64 0-98-32t-52-87l-75 28q10 31 27 60t45 53 65 37 90 14q52 0 92-15t68-42 42-64 15-81q0-40-11-75t-32-67-49-62-64-61L158 73h379V0z"/><glyph unicode="3" glyph-name="three" d="M270 402q73 0 109 32t37 84v7q0 56-35 84t-93 28q-56 0-90-24t-57-65l-63 48q13 21 32 41t44 37 59 26 77 10q45 0 84-11t68-34 45-56 17-75q0-34-10-61t-29-47-44-34-53-21v-4q29-6 56-19t48-35 33-52 13-70q0-45-17-82t-49-64-76-42-99-15q-46 0-81 10t-63 27-48 38-37 44l63 48q14-21 29-38t34-29 45-20 58-7q74 0 113 34t40 97v8q0 62-38 96t-116 34h-83v72h77z"/><glyph unicode="4" glyph-name="four" d="M378 0v137H34v74l302 487h122V206h104v-69H458V0h-80zM109 206h269v427h-4L109 206z"/><glyph unicode="5" glyph-name="five" d="M501 625H189l-20-267h7q26 35 58 55t88 21q46 0 84-14t67-43 44-67 16-91q0-51-16-93t-47-73-75-48-100-17q-44 0-78 10t-61 27-47 38-36 44l63 48q14-21 28-38t34-29 43-20 56-7q72 0 110 39t39 108v8q0 69-39 108t-112 39q-50 0-77-17t-51-42l-71 10 25 384h380v-73z"/><glyph unicode="6" glyph-name="six" d="M301-12q-55 0-99 18t-74 53-47 85-17 112q0 78 23 146t60 125 82 100 88 71h108q-57-41-101-80t-79-81-57-91-38-110l5-2q25 43 66 71t106 29q46 0 84-15t66-43 43-68 16-89q0-51-17-93t-47-73-74-48-97-17zm-1 71q72 0 111 39t40 110v8q0 71-39 110t-112 39q-72 0-111-39t-40-110v-8q0-71 39-110t112-39z"/><glyph unicode="7" glyph-name="seven" d="M173 0l273 626H140V496H65v202h466v-74L263 0h-90z"/><glyph unicode="8" glyph-name="eight" d="M300-12q-61 0-107 15t-76 43-46 64-16 80q0 72 39 114t103 59v8q-56 19-88 61T76 535q0 80 59 127t165 48q106 0 165-47t59-128q0-60-32-102t-89-62v-8q64-17 103-59t39-114q0-43-15-80t-47-64-76-42-107-16zm0 71q74 0 116 33t42 93v22q0 60-41 93t-117 33q-75 0-116-33t-42-93v-22q0-60 42-93t116-33zm0 342q68 0 103 29t36 83v14q0 54-36 83t-103 29q-66 0-102-29t-37-83v-14q0-54 35-83t104-29z"/><glyph unicode="9" glyph-name="nine" d="M536 442q0-78-23-146t-61-125-81-100-88-71H175q57 41 101 80t79 81 57 91 38 110l-5 2q-26-43-66-71t-106-29q-46 0-84 15t-66 43-43 67-16 90q0 51 16 93t48 73 74 48 97 17q55 0 99-18t74-53 47-85 17-112zM300 333q72 0 111 39t40 110v8q0 71-39 110t-112 39q-72 0-111-39t-40-110v-8q0-71 39-110t112-39z"/><glyph unicode=":" glyph-name="colon" d="M300-9q-41 0-57 17t-17 43v18q0 26 16 43t58 17q41 0 57-17t17-43V51q0-26-16-43T300-9zm0 396q-41 0-57 17t-17 43v18q0 26 16 43t58 17q41 0 57-17t17-43v-18q0-26-16-43t-58-17z"/><glyph unicode=";" glyph-name="semicolon" d="M257 136h129L271-141h-67l53 277zm43 251q-41 0-57 17t-17 43v18q0 26 16 43t58 17q41 0 57-17t17-43v-18q0-26-16-43t-58-17z"/><glyph unicode="&lt;" glyph-name="less" d="M85 265v80l430 249v-83L160 310v-8l355-201V16L85 265z"/><glyph unicode="=" glyph-name="equal" d="M62 372v68h476v-68H62zm0-200v68h476v-68H62z"/><glyph unicode="&gt;" glyph-name="greater" d="M85 99l355 201v8L85 509v85l430-249v-80L85 16v83z"/><glyph unicode="?" glyph-name="question" d="M239 215v157q86 4 135 37t49 102v14q0 56-33 84t-92 28q-60 0-96-33t-50-84l-75 28q10 33 28 62t45 52 65 35 86 13q48 0 86-13t66-38 42-60 15-78q0-47-17-82t-44-61-61-40-70-22V215h-79zM282-9q-41 0-57 17t-17 43v18q0 26 16 43t58 17q41 0 57-17t17-43V51q0-26-16-43T282-9z"/><glyph unicode="@" glyph-name="at" d="M454-112H331q-76 0-127 25t-83 77-45 129-14 181q0 116 15 194t46 127 74 68 104 21q60 0 102-19t70-52 39-78 13-98V91h-71v57h-5q-10-26-33-47t-67-22q-61 0-97 51t-36 163q0 111 36 163t97 52q22 0 38-6t29-16 20-22 13-25h5v24q0 85-35 134t-116 49q-89 0-127-68t-39-220V229q0-58 8-108t29-88 59-59 98-22h123v-64zm-79 251q36 0 57 20t22 58v153q0 38-21 58t-58 20q-42 0-63-28t-22-96v-61q0-67 21-95t64-29z"/><glyph unicode="A" glyph-name="A" d="M481 0l-59 199H177L118 0H31l214 698h111L570 0h-89zM304 609h-9l-98-337h205l-98 337z"/><glyph unicode="B" glyph-name="B" d="M88 698h237q90 0 141-49t51-131q0-63-30-99t-79-51v-3q59-14 97-52t38-112q0-42-14-79t-39-64-60-42-75-16H88v698zM330 73q58 0 91 26t33 80v41q0 53-33 79t-91 27H172V73h158zm-14 322q53 0 83 23t30 72v39q0 48-30 72t-83 24H172V395h144z"/><glyph unicode="C" glyph-name="C" d="M323-12q-128 0-190 93T70 349q0 175 62 268t191 93q48 0 83-13t60-35 42-49 30-56l-72-33q-9 23-21 43t-28 36-39 25-55 9q-83 0-123-63t-41-168V292q0-105 40-168t124-63q32 0 54 9t39 24 29 36 21 44l72-33q-13-29-30-56t-42-49-60-35-83-13z"/><glyph unicode="D" glyph-name="D" d="M95 698h195q128 0 191-88t63-261q0-173-63-261T290 0H95v698zM286 73q84 0 126 58t43 164v108q0 106-42 164t-127 58H179V73h107z"/><glyph unicode="E" glyph-name="E" d="M90 0v698h430v-73H174V390h334v-73H174V73h346V0H90z"/><glyph unicode="F" glyph-name="F" d="M90 0v698h440v-73H174V390h326v-73H174V0H90z"/><glyph unicode="G" glyph-name="G" d="M444 93h-5q-9-20-21-39t-30-33-45-24-62-9q-114 0-169 92T56 344q0 180 61 273t188 93q49 0 85-13t61-35 43-49 28-56l-72-33q-9 23-20 43t-28 36-40 25-54 9q-84 0-123-63t-40-168V298q0-53 8-96t26-76 48-49 73-18q68 0 106 41t38 106v72H297v67h225V0h-78v93z"/><glyph unicode="H" glyph-name="H" d="M436 317H164V0H80v698h84V390h272v308h84V0h-84v317z"/><glyph unicode="I" glyph-name="I" d="M84 0v67h174v564H84v67h432v-67H342V67h174V0H84z"/><glyph unicode="J" glyph-name="J" d="M480 698V181q0-44-15-80t-42-61-66-38-83-14q-80 0-132 41T74 146l80 17q5-21 13-39t23-32 36-22 50-8q57 0 88 32t32 102v429H144v73h336z"/><glyph unicode="K" glyph-name="K" d="M269 342L169 224V0H85v698h84V334h3l92 116 206 248h101L326 404 578 0h-98L269 342z"/><glyph unicode="L" glyph-name="L" d="M120 0v698h84V73h331V0H120z"/><glyph unicode="M" glyph-name="M" d="M455 350v221h-8L300 212 153 571h-8V0H68v698h108l123-308h6l123 308h104V0h-77v350z"/><glyph unicode="N" glyph-name="N" d="M163 591h-7V0H80v698h119l238-585h7v585h76V0H401L163 591z"/><glyph unicode="O" glyph-name="O" d="M300-12q-64 0-110 24t-76 71-44 113-14 153q0 85 14 152t44 114 76 70 110 25q64 0 110-24t76-71 44-113 14-153q0-86-14-153T486 83t-76-70-110-25zm0 73q42 0 71 16t48 47 27 72 9 96v114q0 52-8 95t-28 73-48 46-71 17q-42 0-71-16t-48-47-27-73-9-95V292q0-53 8-95t28-73 48-46 71-17z"/><glyph unicode="P" glyph-name="P" d="M90 0v698h254q97 0 148-53t51-148q0-95-51-148t-148-53H174V0H90zm84 369h168q53 0 82 26t30 76v52q0 49-29 75t-83 27H174V369z"/><glyph unicode="Q" glyph-name="Q" d="M491-164H374q-59 0-86 33t-28 85v37q-53 7-91 34t-64 73-37 109-12 142q0 85 14 152t44 114 76 70 110 25q64 0 110-24t76-71 44-113 14-153q0-157-49-250T340-9v-87h151v-68zM300 61q42 0 71 16t48 47 27 72 9 96v114q0 52-8 95t-28 73-48 46-71 17q-42 0-71-16t-48-47-27-73-9-95V292q0-53 8-95t28-73 48-46 71-17z"/><glyph unicode="R" glyph-name="R" d="M174 0H90v698h254q97 0 148-53t51-148q0-85-44-136t-128-59L549 0h-94L285 298H174V0zm168 369q53 0 82 26t30 76v52q0 49-29 75t-83 27H174V369h168z"/><glyph unicode="S" glyph-name="S" d="M298-12q-94 0-154 34t-99 89l61 50q41-51 86-76t109-25q76 0 116 35t40 98q0 51-29 79t-101 41l-78 13q-51 9-85 27t-56 43-30 56-9 64q0 96 63 145t170 49q84 0 141-28t93-79l-59-51q-29 38-70 62t-106 24q-71 0-109-30t-38-90q0-47 28-76t103-43l75-13q51-9 86-27t56-43 31-56 9-65q0-97-63-152T298-12z"/><glyph unicode="T" glyph-name="T" d="M342 625V0h-84v625H25v73h550v-73H342z"/><glyph unicode="U" glyph-name="U" d="M164 698V279q0-51 3-91t16-68 40-44 77-15q49 0 76 15t41 43 16 69 3 91v419h84V299q0-78-7-136t-31-97-67-58-115-20q-71 0-114 19t-67 59-31 97-8 136v399h84z"/><glyph unicode="V" glyph-name="V" d="M243 0L36 698h89l99-349 75-264h5l75 264 99 349h86L357 0H243z"/><glyph unicode="W" glyph-name="W" d="M90 0L35 698h75l29-400 15-211h8l92 429h94l92-429h8l15 211 29 400h73L510 0H389l-85 417h-8L211 0H90z"/><glyph unicode="X" glyph-name="X" d="M575 0h-95l-83 139-92 152h-4l-95-152L118 0H26l228 356L39 698h95l81-135 87-141h4l86 141 84 135h92L352 357 575 0z"/><glyph unicode="Y" glyph-name="Y" d="M258 0v274L17 698h96l100-182 85-159h4l87 159 100 182h94L342 274V0h-84z"/><glyph unicode="Z" glyph-name="Z" d="M552 0H48v75l395 550H65v73h470v-75L139 73h413V0z"/><glyph unicode="[" glyph-name="bracketleft" d="M225-138v898h280v-62H294V-76h211v-62H225z"/><glyph unicode="\" glyph-name="backslash" d="M438-138L90 760h72l348-898h-72z"/><glyph unicode="]" glyph-name="bracketright" d="M375 760v-898H95v62h211v774H95v62h280z"/><glyph unicode="^" glyph-name="asciicircum" d="M489 287L300 629h-4L107 287l-62 31 210 380h90l210-380-66-31z"/><glyph unicode="_" glyph-name="underscore" d="M60-169v74h480v-74H60z"/><glyph unicode="`" glyph-name="grave" d="M187 744l73 35 85-170-52-24-106 159z"/><glyph unicode="a" glyph-name="a" d="M495 0q-47 0-67 24t-25 60h-5q-17-45-54-70T243-12q-81 0-129 42T66 145q0 72 52 111t170 39h110v51q0 57-32 85t-91 29q-52 0-85-20t-53-56l-54 40q10 20 27 39t42 33 57 23 71 9q91 0 144-46t54-128V70h72V0h-55zM257 55q31 0 56 7t45 20 29 30 11 38v85H288q-72 0-105-20t-33-58v-21q0-40 28-60t79-21z"/><glyph unicode="b" glyph-name="b" d="M95 740h80V432h4q50 96 159 96 95 0 148-71t54-199q0-128-53-199T338-12q-109 0-159 96h-4V0H95v740zM307 59q70 0 108 42t39 113v88q0 70-38 112t-109 43q-27 0-51-7t-42-20-28-33-11-46V165q0-26 10-45t29-33 42-21 51-7z"/><glyph unicode="c" glyph-name="c" d="M318-12q-56 0-99 19t-74 55-45 85-16 111q0 61 16 111t46 85 73 55 98 19q75 0 122-33t69-86l-64-34q-14 40-46 62t-81 22q-35 0-62-11t-47-33-28-50-10-63v-88q0-34 9-63t29-50 47-32 64-12q52 0 86 24t54 66l57-39q-23-52-71-86T318-12z"/><glyph unicode="d" glyph-name="d" d="M425 84h-4q-50-96-159-96-95 0-148 71T60 258q0 128 53 199t149 71q109 0 159-96h4v308h80V0h-80v84zM293 59q27 0 51 7t42 20 28 33 11 46v186q0 26-10 45t-29 33-42 21-51 7q-70 0-108-42t-39-113v-88q0-70 38-112t109-43z"/><glyph unicode="e" glyph-name="e" d="M309-12q-56 0-100 19t-76 54-49 85-17 111q0 62 17 112t49 85 74 55 97 19q52 0 94-19t73-52 46-80 16-101v-38H151v-24q0-34 11-63t31-50 50-32 66-12q52 0 90 24t58 66l59-40q-23-52-76-85T309-12zm-5 474q-33 0-61-12t-48-33-32-49-12-63v-7h296v11q0 34-10 62t-29 48-45 32-59 11z"/><glyph unicode="f" glyph-name="f" d="M83 68h174v380H73v68h184v106q0 52 27 85t87 33h173v-68H337V516h207v-68H337V68h184V0H83v68z"/><glyph unicode="g" glyph-name="g" d="M561-59q0-78-65-115t-195-38q-125 0-179 33T67-84q0 42 22 65t62 34v12q-22 11-34 28t-12 43q0 40 26 60t67 30v4q-48 21-74 62t-27 96q0 39 14 72t40 56 64 37 82 13q58 0 102-21v9q0 30 14 50t48 20h95v-70H440v-35q28-24 43-57t15-74q0-39-14-72t-41-56-63-37-83-13q-13 0-25 1t-24 3q-12-2-25-6t-24-12-18-18-7-23q0-23 23-30t60-8h114q100 0 145-37t45-101zm-75-4q0 31-25 49T374 5H195q-52-21-52-70 0-34 27-58t90-25h78q70 0 109 21t39 64zM297 234q60 0 88 28t29 74v29q0 46-28 73t-89 28q-60 0-88-27t-28-74v-29q0-46 28-74t88-28z"/><glyph unicode="h" glyph-name="h" d="M98 740h80V432h4q8 19 20 36t29 31 42 21 56 8q81 0 130-51t49-146V0h-80v317q0 71-31 105t-91 35q-24 0-47-6t-41-18-29-31-11-44V0H98v740z"/><glyph unicode="i" glyph-name="i" d="M332 630q-35 0-49 14t-14 37v16q0 22 14 36t49 15q35 0 49-14t14-37v-16q0-22-14-36t-49-15zM106 68h186v380H106v68h266V68h174V0H106v68z"/><glyph unicode="j" glyph-name="j" d="M102-132h250v580H93v68h339V-82q0-52-27-85t-87-33H102v68zm290 762q-35 0-49 14t-14 37v16q0 22 14 36t49 15q35 0 49-14t14-37v-16q0-22-14-36t-49-15z"/><glyph unicode="k" glyph-name="k" d="M105 740h80V273h4l90 85 172 158h98L335 314 574 0h-99L274 268l-89-81V0h-80v740z"/><glyph unicode="l" glyph-name="l" d="M80 68h180v604H80v68h260V68h180V0H80v68z"/><glyph unicode="m" glyph-name="m" d="M54 0v516h74v-60h4q12 30 34 51t65 21q45 0 67-22t27-59h3q14 35 40 58t72 23q63 0 84-44t22-126V0h-74v345q0 66-13 91t-50 26q-32 0-52-20t-20-63V0h-74v345q0 66-13 91t-49 26q-32 0-52-20t-21-63V0H54z"/><glyph unicode="n" glyph-name="n" d="M98 0v516h80v-84h4q8 19 20 36t29 31 42 21 56 8q81 0 130-51t49-146V0h-80v317q0 71-31 105t-91 35q-24 0-47-6t-41-18-29-31-11-44V0H98z"/><glyph unicode="o" glyph-name="o" d="M300-12q-54 0-97 19t-74 54-47 85-16 112q0 61 16 111t46 85 74 55 98 19q54 0 97-19t74-54 47-86 16-111q0-62-16-111t-46-85-74-55-98-19zm0 69q67 0 108 40t41 124v74q0 84-41 124t-108 40q-67 0-108-40t-41-124v-74q0-84 41-124t108-40z"/><glyph unicode="p" glyph-name="p" d="M95 516h80v-84h4q50 96 159 96 95 0 148-71t54-199q0-128-53-199T338-12q-109 0-159 96h-4v-284H95v716zM307 59q70 0 108 42t39 113v88q0 70-38 112t-109 43q-27 0-51-7t-42-20-28-33-11-46V165q0-26 10-45t29-33 42-21 51-7z"/><glyph unicode="q" glyph-name="q" d="M425 84h-4q-50-96-159-96-95 0-148 71T60 258q0 128 53 199t149 71q109 0 159-96h4v84h80v-716h-80V84zM293 59q27 0 51 7t42 20 28 33 11 46v186q0 26-10 45t-29 33-42 21-51 7q-70 0-108-42t-39-113v-88q0-70 38-112t109-43z"/><glyph unicode="r" glyph-name="r" d="M77 68h151v380H77v68h231V386h5q16 61 60 95t114 35h72v-80h-97q-69 0-111-40t-43-105V68h200V0H77v68z"/><glyph unicode="s" glyph-name="s" d="M306-12q-81 0-139 27T67 89l54 47q37-39 81-60t106-21q60 0 98 21t39 68q0 20-7 33t-21 22-29 12-34 8l-81 12q-27 4-58 11t-58 22-43 42-18 68q0 39 15 67t44 48 66 29 83 10q70 0 121-22t89-61l-52-49q-9 11-22 22t-33 21-46 16-60 6q-61 0-93-21t-33-61q0-20 7-33t21-22 29-12 34-8l81-12q28-4 59-11t57-22 43-42 18-68q0-77-59-119T306-12z"/><glyph unicode="t" glyph-name="t" d="M325 0q-59 0-86 33t-28 85v330H39v68h128q26 0 36 10t11 37v135h77V516h235v-68H291V68h235V0H325z"/><glyph unicode="u" glyph-name="u" d="M422 84h-4q-8-19-20-36t-29-31-42-21-56-8q-81 0-130 51T92 185v331h80V199q0-71 31-105t91-35q24 0 47 6t41 18 29 30 11 45v358h80V0h-80v84z"/><glyph unicode="v" glyph-name="v" d="M249 0L64 516h81l74-216 80-233h4l80 233 74 216h79L351 0H249z"/><glyph unicode="w" glyph-name="w" d="M30 516h71l59-446h9l88 446h88l88-446h9l59 446h69L491 0H387l-82 432h-8L213 0H109L30 516z"/><glyph unicode="x" glyph-name="x" d="M61 0l192 262L66 516h96l78-109 62-86h4l60 86 77 109h92L346 263 540 0h-96l-87 121-59 82h-4l-57-82L153 0H61z"/><glyph unicode="y" glyph-name="y" d="M467 516h80L291-113q-9-22-20-38t-26-27-36-16-50-6H83v68h120l58 142L53 516h82l87-216 77-196h4l77 196 87 216z"/><glyph unicode="z" glyph-name="z" d="M85 0v77l333 371H96v68h409v-77L172 68h343V0H85z"/><glyph unicode="{" glyph-name="braceleft" d="M319-138q-42 0-63 23t-21 59V7q0 27 5 47t14 36 18 28 19 24q17 20 23 34t7 31q0 38-35 55t-103 18h-78v62h78q68 0 103 17t35 56q0 16-6 30t-24 35q-9 11-19 23t-18 28-13 36-6 48v63q0 35 21 58t63 24h176v-62H304v-77q0-41 12-63t28-43q17-22 32-45t15-56q0-42-29-68t-81-33v-4q51-7 80-33t30-68q0-32-15-55t-32-46q-16-21-28-43T304 1v-77h191v-62H319z"/><glyph unicode="|" glyph-name="bar" d="M265-138v898h70v-898h-70z"/><glyph unicode="}" glyph-name="braceright" d="M281 760q42 0 63-23t21-59v-63q0-27-5-47t-14-36-18-28-19-24q-17-20-23-34t-7-31q0-38 35-55t103-18h78v-62h-78q-68 0-103-17t-35-56q0-16 6-30t24-35q9-11 19-23t18-29 13-36 6-47v-63q0-35-21-58t-63-24H105v62h191V1q0 41-12 63t-28 43q-17 22-32 45t-15 56q0 42 29 68t81 33v4q-51 7-80 33t-30 68q0 32 15 55t32 46q16 21 28 43t12 63v77H105v62h176z"/><glyph unicode="~" glyph-name="asciitilde" d="M408 237q-31 0-59 9t-54 23q-26 13-52 25t-52 12q-29 0-47-19t-31-50l-61 25q14 48 49 79t91 32q31 0 59-9t54-23q26-13 52-25t52-12q29 0 47 19t31 50l61-25q-14-48-49-79t-91-32z"/><glyph glyph-name="uni00A0"/><glyph unicode="¡" glyph-name="exclamdown" d="M256-182V21l28 262h32l28-262v-203h-88zm44 569q-41 0-57 17t-17 43v18q0 26 16 43t58 17q41 0 57-17t17-43v-18q0-26-16-43t-58-17z"/><glyph unicode="¢" glyph-name="cent" d="M279-114V-9Q185 4 135 75T84 258q0 112 51 183t144 84v105h62V527q65-5 106-37t61-81l-64-34q-13 35-39 56t-65 27V58q43 5 72 28t47 61l57-39q-21-48-64-81T341-11v-103h-62zM170 214q0-59 28-100t82-53v394q-54-11-82-52t-28-101v-88z"/><glyph unicode="£" glyph-name="sterling" d="M75 0v105q42 17 60 51t19 81q0 13-1 25t-4 24H52v69h78q-11 34-21 68t-11 76q0 46 16 85t46 67 74 43 98 16q80 0 132-31t86-83l-63-45q-28 41-65 63t-95 23q-66 0-104-33t-39-110q0-41 9-74t21-65h201v-69H233q3-20 3-39 0-31-7-56t-20-46-26-36-29-24v-5h384V0H75z"/><glyph unicode="¥" glyph-name="yen" d="M75 69h185v186H75v69h141L22 698h93l184-374h4l184 374h91L384 324h141v-69H340V69h185V0H75v69z"/><glyph unicode="¦" glyph-name="brokenbar" d="M265 401v359h70V401h-70zm0-539v359h70v-359h-70z"/><glyph unicode="§" glyph-name="section" d="M487 3q0-36-14-65t-41-50-64-32-82-11q-46 0-90 13t-80 43l47 56q24-20 55-31t69-12q57 0 89 23t32 65q0 38-27 60t-79 37l-64 18q-83 23-120 63t-37 92q0 48 29 85t83 58v5q-39 24-57 58t-19 74q0 36 14 65t41 50 64 32 82 11q46 0 90-13t80-43l-47-56q-24 20-55 31t-69 12q-57 0-89-23t-32-65q0-38 27-60t79-37l64-18q83-23 120-63t37-92q0-48-29-85t-83-58v-5q39-24 57-58t19-74zm-43 260q0 43-29 69t-91 43l-63 17q-17 4-34 11-31-21-49-48t-18-63q0-43 29-69t91-43l63-17q17-4 34-11 31 21 49 48t18 63z"/><glyph unicode="¨" glyph-name="dieresis" d="M207 618q-31 0-44 13t-13 33v14q0 20 13 33t44 13q31 0 44-13t13-33v-14q0-20-13-33t-44-13zm186 0q-31 0-44 13t-13 33v14q0 20 13 33t44 13q31 0 44-13t13-33v-14q0-20-13-33t-44-13z"/><glyph unicode="©" glyph-name="copyright" d="M300 18q-63 0-117 23t-95 66-64 104T0 349q0 76 23 137t64 105 95 66 118 23q63 0 117-23t95-66 64-104 24-138q0-77-23-138t-64-104-95-66-118-23zm0 55q51 0 94 19t75 52 50 79 18 96v60q0 51-18 96t-49 78-75 53-95 19q-51 0-94-19t-75-52-50-79-18-96v-60q0-51 18-96t49-78 75-53 95-19zm5 98q-73 0-113 48t-41 130q0 82 41 130t113 48q48 0 78-22t48-58l-53-29q-11 24-28 38t-45 14q-39 0-60-25t-22-67v-57q0-42 21-67t62-26q30 0 48 15t32 40l50-31q-17-35-49-58t-82-23z"/><glyph unicode="ª" glyph-name="ordfeminine" d="M429 357q-33 0-47 14t-16 39h-4q-11-23-38-42t-75-19q-54 0-82 27t-29 72q0 54 39 79t112 25h73v28q0 78-77 78-35 0-58-14t-35-38l-42 34q7 13 19 25t30 23 39 16 50 6q64 0 100-33t37-94V413h38v-56h-34zM287 506q-42 0-64-12t-22-35v-10q0-49 61-49 40 0 70 17t30 48v41h-75z"/><glyph unicode="«" glyph-name="guillemotleft" d="M536 56L330 230v80l206 174 25-57-148-157 148-157-25-57zm-27 0L303 230v80l206 174 25-57-148-157 148-157-25-57z"/><glyph unicode="¬" glyph-name="logicalnot" d="M453 78v193H62v68h460V78h-69z"/><glyph unicode="­" glyph-name="uni00AD" d="M155 262v84h290v-84H155z"/><glyph unicode="®" glyph-name="registered" d="M300 346q-38 0-71 14t-59 38-39 57-14 73q0 39 14 72t39 58 58 38 72 14q38 0 71-14t58-38 39-57 15-73q0-39-14-72t-39-58-58-38-72-14zm0 41q29 0 53 9t43 27 28 41 11 54v20q0 30-10 54t-29 41-42 26-54 10q-29 0-53-9t-43-27-28-41-11-54v-20q0-30 10-54t29-41 42-26 54-10zm-30 49h-40v185h85q28 0 43-15t16-42q0-39-37-52l46-76h-45l-39 70h-29v-70zm36 99q26 0 26 24v7q0 24-26 24h-36v-55h36z"/><glyph unicode="¯" glyph-name="overscore" d="M160 705h280v-68H160v68z"/><glyph unicode="°" glyph-name="degree" d="M300 368q-36 0-67 13t-54 36-37 54-13 68q0 36 13 67t36 55 55 36 67 13q36 0 67-13t54-36 37-54 13-68q0-36-13-67t-36-55-55-36-67-13zm0 64q46 0 73 31t28 76q0 45-27 76t-74 31q-46 0-73-31t-28-76q0-45 27-76t74-31z"/><glyph unicode="±" glyph-name="plusminus" d="M262 152v199H62v68h200v199h76V419h200v-68H338V152h-76zM62 0v68h476V0H62z"/><glyph unicode="²" glyph-name="twosuperior" d="M438 329H166v57l130 105q29 24 45 47t17 51v6q0 26-16 41t-49 16q-35 0-52-17t-26-41l-54 20q6 18 16 34t27 28 40 20 53 8q62 0 95-30t33-79q0-44-26-76t-69-65l-97-75h205v-50z"/><glyph unicode="³" glyph-name="threesuperior" d="M282 546q38 0 56 14t19 38v4q0 25-17 38t-48 14q-29 0-49-12t-34-33l-43 34q17 25 47 43t81 18q57 0 93-25t37-70q0-36-23-57t-55-28v-3q34-6 59-28t25-62q0-49-38-78t-105-30q-55 0-86 20t-50 46l47 34q14-22 34-36t55-14q38 0 57 16t20 45v6q0 55-77 55h-45v51h40z"/><glyph unicode="´" glyph-name="acute" d="M307 585l-52 24 85 170 73-35-106-159z"/><glyph unicode="µ" glyph-name="mu" d="M98-200v716h80V199q0-140 119-140 24 0 46 6t40 18 28 30 11 45v358h80V0h-80v84h-4q-9-20-20-37t-28-31-39-20-53-8q-75 0-103 52h-4l7-84v-156H98z"/><glyph unicode="¶" glyph-name="paragraph" d="M270 246q-47 0-87 17t-72 47-48 71-18 91q0 49 17 90t49 72 71 47 88 17h234v-847h-72v783h-90v-783h-72v395z"/><glyph unicode="·" glyph-name="middot" d="M300 235q-41 0-57 17t-17 43v18q0 26 16 43t58 17q41 0 57-17t17-43v-18q0-26-16-43t-58-17z"/><glyph unicode="¸" glyph-name="cedilla" d="M312-207q-41 0-64 13t-35 28l38 41q9-11 24-19t37-9q19 0 31 7t13 24q0 14-13 24t-55 17l-28 4 19 97h50l-16-81 3-3q19 6 39 6 29 0 48-17t20-49q0-21-9-37t-24-26-36-15-42-5z"/><glyph unicode="¹" glyph-name="onesuperior" d="M176 329v50h109v265l-106-55-25 44 126 65h68V379h98v-50H176z"/><glyph unicode="º" glyph-name="ordmasculine" d="M300 349q-76 0-118 48t-42 133q0 84 42 132t118 48q75 0 117-48t43-132q0-85-42-133t-118-48zm0 53q45 0 68 27t23 71v59q0 43-23 70t-68 28q-45 0-68-27t-23-71v-59q0-43 23-70t68-28z"/><glyph unicode="»" glyph-name="guillemotright" d="M67 113l148 157L67 427l25 57 206-174v-80L92 56l-25 57zm229 0l148 157-148 157 25 57 206-174v-80L321 56l-25 57z"/><glyph unicode="¼" glyph-name="onequarter" d="M40 413h94v230l-89-45-24 44 108 56h68V413h83v-50H40v50zm470 285h72L422 398h-72l160 300zM178 300h72L90 0H18l160 300zM477 64H314v59l142 212h82V112h47V64h-47V0h-61v64zm0 48v170h-3L360 112h117z"/><glyph unicode="½" glyph-name="onehalf" d="M40 413h94v230l-89-45-24 44 108 56h68V413h83v-50H40v50zm470 285h72L422 398h-72l160 300zM178 300h72L90 0H18l160 300zM329 58l113 90q54 43 54 90v5q0 19-13 32t-40 14q-26 0-41-14t-26-41l-53 22q11 34 41 59t84 26q57 0 85-28t29-69q0-42-26-74t-64-61l-77-59h180V0H329v58z"/><glyph unicode="¾" glyph-name="threequarters" d="M144 357q-52 0-81 21t-45 50l47 33q12-23 29-38t50-15q29 0 45 13t17 37v7q0 23-18 34t-51 12h-35v50h35q32 0 47 12t16 29v7q0 20-15 32t-41 12q-47 0-72-41l-42 34q18 26 45 42t71 16q54 0 86-23t32-64q0-33-20-52t-50-25v-4q32-5 54-25t22-55q0-45-34-72t-92-27zm366 341h72L422 398h-72l160 300zM178 300h72L90 0H18l160 300zM477 64H314v59l142 212h82V112h47V64h-47V0h-61v64zm0 48v170h-3L360 112h117z"/><glyph unicode="¿" glyph-name="questiondown" d="M299-194q-48 0-86 13t-66 38-42 60T90-5q0 47 17 82t44 61 61 40 70 22v101h79V144q-86-4-135-37T177 5V-9q0-56 33-84t92-28q60 0 96 33t50 84l75-28q-10-33-28-62t-45-52-65-35-86-13zm19 581q-41 0-57 17t-17 43v18q0 26 16 43t58 17q41 0 57-17t17-43v-18q0-26-16-43t-58-17z"/><glyph unicode="À" glyph-name="Agrave" d="M481 0l-59 199H177L118 0H31l214 698h111L570 0h-89zM304 609h-9l-98-337h205l-98 337zM187 914l73 35 85-170-52-24-106 159z"/><glyph unicode="Á" glyph-name="Aacute" d="M481 0l-59 199H177L118 0H31l214 698h111L570 0h-89zM304 609h-9l-98-337h205l-98 337zm3 146l-52 24 85 170 73-35-106-159z"/><glyph unicode="Â" glyph-name="Acircumflex" d="M481 0l-59 199H177L118 0H31l214 698h111L570 0h-89zM304 609h-9l-98-337h205l-98 337zm46 326l111-143-45-31-117 117-117-117-43 31 111 143h100z"/><glyph unicode="Ã" glyph-name="Atilde" d="M481 0l-59 199H177L118 0H31l214 698h111L570 0h-89zM304 609h-9l-98-337h205l-98 337zm69 173q-26 0-45 9t-35 17q-24 13-40 18t-30 6q-17 0-30-7t-28-20l-33 40q14 20 37 36t58 17q26 0 45-9t35-17q24-13 40-18t30-6q17 0 30 7t28 20l33-40q-14-20-37-36t-58-17z"/><glyph unicode="Ä" glyph-name="Adieresis" d="M481 0l-59 199H177L118 0H31l214 698h111L570 0h-89zM304 609h-9l-98-337h205l-98 337zm-97 179q-31 0-44 13t-13 33v14q0 20 13 33t44 13q31 0 44-13t13-33v-14q0-20-13-33t-44-13zm186 0q-31 0-44 13t-13 33v14q0 20 13 33t44 13q31 0 44-13t13-33v-14q0-20-13-33t-44-13z"/><glyph unicode="Å" glyph-name="Aring" d="M481 0l-59 199H177L118 0H31l214 698h111L570 0h-89zM304 609h-9l-98-337h205l-98 337zm-4 137q-24 0-45 8t-37 24-25 37-9 46q0 25 9 46t24 36 37 24 46 9q24 0 45-8t37-24 25-37 9-46q0-25-9-46t-24-36-37-24-46-9zm0 49q27 0 42 14t16 41v22q0 26-15 40t-43 15q-27 0-42-14t-16-41v-22q0-26 15-40t43-15z"/><glyph unicode="Æ" glyph-name="AE" d="M312 201H160L104 0H20l206 698h334v-69H392V388h156v-69H392V69h168V0H312v201zm-31 437L178 270h134v368h-31z"/><glyph unicode="Ç" glyph-name="Ccedilla" d="M323 637q-83 0-123-63t-41-168V292q0-105 40-168t124-63q32 0 54 9t39 24 29 36 21 44l72-33q-13-28-29-55t-41-48-58-35-80-15l-9-49 3-3q19 6 39 6 29 0 48-17t20-49q0-21-9-37t-24-26-36-15-42-5q-41 0-64 13t-35 28l38 41q9-11 24-19t37-9q19 0 31 7t13 24q0 14-13 24t-55 17l-28 4 13 68Q174 6 122 97T70 349q0 175 62 268t191 93q48 0 83-13t60-35 42-49 30-56l-72-33q-9 23-21 43t-28 36-39 25-55 9z"/><glyph unicode="È" glyph-name="Egrave" d="M90 0v698h430v-73H174V390h334v-73H174V73h346V0H90zm102 914l73 35 85-170-52-24-106 159z"/><glyph unicode="É" glyph-name="Eacute" d="M90 0v698h430v-73H174V390h334v-73H174V73h346V0H90zm222 755l-52 24 85 170 73-35-106-159z"/><glyph unicode="Ê" glyph-name="Ecircumflex" d="M90 0v698h430v-73H174V390h334v-73H174V73h346V0H90zm265 935l111-143-45-31-117 117-117-117-43 31 111 143h100z"/><glyph unicode="Ë" glyph-name="Edieresis" d="M90 0v698h430v-73H174V390h334v-73H174V73h346V0H90zm122 788q-31 0-44 13t-13 33v14q0 20 13 33t44 13q31 0 44-13t13-33v-14q0-20-13-33t-44-13zm186 0q-31 0-44 13t-13 33v14q0 20 13 33t44 13q31 0 44-13t13-33v-14q0-20-13-33t-44-13z"/><glyph unicode="Ì" glyph-name="Igrave" d="M84 0v67h174v564H84v67h432v-67H342V67h174V0H84zm103 914l73 35 85-170-52-24-106 159z"/><glyph unicode="Í" glyph-name="Iacute" d="M84 0v67h174v564H84v67h432v-67H342V67h174V0H84zm223 755l-52 24 85 170 73-35-106-159z"/><glyph unicode="Î" glyph-name="Icircumflex" d="M84 0v67h174v564H84v67h432v-67H342V67h174V0H84zm266 935l111-143-45-31-117 117-117-117-43 31 111 143h100z"/><glyph unicode="Ï" glyph-name="Idieresis" d="M84 0v67h174v564H84v67h432v-67H342V67h174V0H84zm123 788q-31 0-44 13t-13 33v14q0 20 13 33t44 13q31 0 44-13t13-33v-14q0-20-13-33t-44-13zm186 0q-31 0-44 13t-13 33v14q0 20 13 33t44 13q31 0 44-13t13-33v-14q0-20-13-33t-44-13z"/><glyph unicode="Ð" glyph-name="Eth" d="M102 336H22v64h80v298h188q128 0 191-88t63-261q0-173-63-261T290 0H102v336zM286 73q84 0 126 58t43 164v108q0 106-42 164t-127 58H186V400h141v-64H186V73h100z"/><glyph unicode="Ñ" glyph-name="Ntilde" d="M163 591h-7V0H80v698h119l238-585h7v585h76V0H401L163 591zm210 191q-26 0-45 9t-35 17q-24 13-40 18t-30 6q-17 0-30-7t-28-20l-33 40q14 20 37 36t58 17q26 0 45-9t35-17q24-13 40-18t30-6q17 0 30 7t28 20l33-40q-14-20-37-36t-58-17z"/><glyph unicode="Ò" glyph-name="Ograve" d="M300-12q-64 0-110 24t-76 71-44 113-14 153q0 85 14 152t44 114 76 70 110 25q64 0 110-24t76-71 44-113 14-153q0-86-14-153T486 83t-76-70-110-25zm0 73q42 0 71 16t48 47 27 72 9 96v114q0 52-8 95t-28 73-48 46-71 17q-42 0-71-16t-48-47-27-73-9-95V292q0-53 8-95t28-73 48-46 71-17zM187 914l73 35 85-170-52-24-106 159z"/><glyph unicode="Ó" glyph-name="Oacute" d="M300-12q-64 0-110 24t-76 71-44 113-14 153q0 85 14 152t44 114 76 70 110 25q64 0 110-24t76-71 44-113 14-153q0-86-14-153T486 83t-76-70-110-25zm0 73q42 0 71 16t48 47 27 72 9 96v114q0 52-8 95t-28 73-48 46-71 17q-42 0-71-16t-48-47-27-73-9-95V292q0-53 8-95t28-73 48-46 71-17zm7 694l-52 24 85 170 73-35-106-159z"/><glyph unicode="Ô" glyph-name="Ocircumflex" d="M300-12q-64 0-110 24t-76 71-44 113-14 153q0 85 14 152t44 114 76 70 110 25q64 0 110-24t76-71 44-113 14-153q0-86-14-153T486 83t-76-70-110-25zm0 73q42 0 71 16t48 47 27 72 9 96v114q0 52-8 95t-28 73-48 46-71 17q-42 0-71-16t-48-47-27-73-9-95V292q0-53 8-95t28-73 48-46 71-17zm50 874l111-143-45-31-117 117-117-117-43 31 111 143h100z"/><glyph unicode="Õ" glyph-name="Otilde" d="M300-12q-64 0-110 24t-76 71-44 113-14 153q0 85 14 152t44 114 76 70 110 25q64 0 110-24t76-71 44-113 14-153q0-86-14-153T486 83t-76-70-110-25zm0 73q42 0 71 16t48 47 27 72 9 96v114q0 52-8 95t-28 73-48 46-71 17q-42 0-71-16t-48-47-27-73-9-95V292q0-53 8-95t28-73 48-46 71-17zm73 721q-26 0-45 9t-35 17q-24 13-40 18t-30 6q-17 0-30-7t-28-20l-33 40q14 20 37 36t58 17q26 0 45-9t35-17q24-13 40-18t30-6q17 0 30 7t28 20l33-40q-14-20-37-36t-58-17z"/><glyph unicode="Ö" glyph-name="Odieresis" d="M300-12q-64 0-110 24t-76 71-44 113-14 153q0 85 14 152t44 114 76 70 110 25q64 0 110-24t76-71 44-113 14-153q0-86-14-153T486 83t-76-70-110-25zm0 73q42 0 71 16t48 47 27 72 9 96v114q0 52-8 95t-28 73-48 46-71 17q-42 0-71-16t-48-47-27-73-9-95V292q0-53 8-95t28-73 48-46 71-17zm-93 727q-31 0-44 13t-13 33v14q0 20 13 33t44 13q31 0 44-13t13-33v-14q0-20-13-33t-44-13zm186 0q-31 0-44 13t-13 33v14q0 20 13 33t44 13q31 0 44-13t13-33v-14q0-20-13-33t-44-13z"/><glyph unicode="×" glyph-name="multiply" d="M300 256L137 93l-49 49 163 163L88 468l49 49 163-163 163 163 49-49-163-163 163-163-49-49-163 163z"/><glyph unicode="Ø" glyph-name="Oslash" d="M300-12q-91 0-146 48l-47-80L47-8l60 102q-26 46-38 110T56 349q0 85 14 152t44 114 76 70 110 25q90 0 146-48l47 80 60-36-60-102q26-46 38-110t13-145q0-86-14-153T486 83t-76-70-110-25zM145 292q0-34 3-63t11-55l248 417q-19 22-45 34t-62 12q-42 0-71-16t-48-47-27-73-9-95V292zM300 61q42 0 71 16t48 47 27 72 9 96v114q0 34-3 63t-11 55L193 107q19-22 45-34t62-12z"/><glyph unicode="Ù" glyph-name="Ugrave" d="M164 698V279q0-51 3-91t16-68 40-44 77-15q49 0 76 15t41 43 16 69 3 91v419h84V299q0-78-7-136t-31-97-67-58-115-20q-71 0-114 19t-67 59-31 97-8 136v399h84zm23 216l73 35 85-170-52-24-106 159z"/><glyph unicode="Ú" glyph-name="Uacute" d="M164 698V279q0-51 3-91t16-68 40-44 77-15q49 0 76 15t41 43 16 69 3 91v419h84V299q0-78-7-136t-31-97-67-58-115-20q-71 0-114 19t-67 59-31 97-8 136v399h84zm143 57l-52 24 85 170 73-35-106-159z"/><glyph unicode="Û" glyph-name="Ucircumflex" d="M164 698V279q0-51 3-91t16-68 40-44 77-15q49 0 76 15t41 43 16 69 3 91v419h84V299q0-78-7-136t-31-97-67-58-115-20q-71 0-114 19t-67 59-31 97-8 136v399h84zm186 237l111-143-45-31-117 117-117-117-43 31 111 143h100z"/><glyph unicode="Ü" glyph-name="Udieresis" d="M164 698V279q0-51 3-91t16-68 40-44 77-15q49 0 76 15t41 43 16 69 3 91v419h84V299q0-78-7-136t-31-97-67-58-115-20q-71 0-114 19t-67 59-31 97-8 136v399h84zm43 90q-31 0-44 13t-13 33v14q0 20 13 33t44 13q31 0 44-13t13-33v-14q0-20-13-33t-44-13zm186 0q-31 0-44 13t-13 33v14q0 20 13 33t44 13q31 0 44-13t13-33v-14q0-20-13-33t-44-13z"/><glyph unicode="Ý" glyph-name="Yacute" d="M258 0v274L17 698h96l100-182 85-159h4l87 159 100 182h94L342 274V0h-84zm49 755l-52 24 85 170 73-35-106-159z"/><glyph unicode="Þ" glyph-name="Thorn" d="M90 0v698h84V553h170q97 0 148-53t51-146q0-92-51-145t-148-54H174V0H90zm84 228h170q53 0 82 26t30 74v52q0 48-29 74t-83 26H174V228z"/><glyph unicode="ß" glyph-name="germandbls" d="M102 0v622q0 52 27 85t87 33h137v-69H182V516h343v-79L352 212q103-7 161-55t59-143q0-52-18-92t-53-67-82-41-109-14h-66v68h66q90 0 133 32T487 3v25q0 67-46 95t-149 29h-16v68l176 228H182V0h-80z"/><glyph unicode="à" glyph-name="agrave" d="M495 0q-47 0-67 24t-25 60h-5q-17-45-54-70T243-12q-81 0-129 42T66 145q0 72 52 111t170 39h110v51q0 57-32 85t-91 29q-52 0-85-20t-53-56l-54 40q10 20 27 39t42 33 57 23 71 9q91 0 144-46t54-128V70h72V0h-55zM257 55q31 0 56 7t45 20 29 30 11 38v85H288q-72 0-105-20t-33-58v-21q0-40 28-60t79-21zm170 689l73 35 85-170-52-24-106 159z"/><glyph unicode="á" glyph-name="aacute" d="M495 0q-47 0-67 24t-25 60h-5q-17-45-54-70T243-12q-81 0-129 42T66 145q0 72 52 111t170 39h110v51q0 57-32 85t-91 29q-52 0-85-20t-53-56l-54 40q10 20 27 39t42 33 57 23 71 9q91 0 144-46t54-128V70h72V0h-55zM257 55q31 0 56 7t45 20 29 30 11 38v85H288q-72 0-105-20t-33-58v-21q0-40 28-60t79-21zm290 530l-52 24 85 170 73-35-106-159z"/><glyph unicode="â" glyph-name="acircumflex" d="M495 0q-47 0-67 24t-25 60h-5q-17-45-54-70T243-12q-81 0-129 42T66 145q0 72 52 111t170 39h110v51q0 57-32 85t-91 29q-52 0-85-20t-53-56l-54 40q10 20 27 39t42 33 57 23 71 9q91 0 144-46t54-128V70h72V0h-55zM257 55q31 0 56 7t45 20 29 30 11 38v85H288q-72 0-105-20t-33-58v-21q0-40 28-60t79-21zm333 710l111-143-45-31-117 117-117-117-43 31 111 143h100z"/><glyph unicode="ã" glyph-name="atilde" d="M495 0q-47 0-67 24t-25 60h-5q-17-45-54-70T243-12q-81 0-129 42T66 145q0 72 52 111t170 39h110v51q0 57-32 85t-91 29q-52 0-85-20t-53-56l-54 40q10 20 27 39t42 33 57 23 71 9q91 0 144-46t54-128V70h72V0h-55zM257 55q31 0 56 7t45 20 29 30 11 38v85H288q-72 0-105-20t-33-58v-21q0-40 28-60t79-21zm356 557q-26 0-45 9t-35 17q-24 13-40 18t-30 6q-17 0-30-7t-28-20l-33 40q14 20 37 36t58 17q26 0 45-9t35-17q24-13 40-18t30-6q17 0 30 7t28 20l33-40q-14-20-37-36t-58-17z"/><glyph unicode="ä" glyph-name="adieresis" d="M495 0q-47 0-67 24t-25 60h-5q-17-45-54-70T243-12q-81 0-129 42T66 145q0 72 52 111t170 39h110v51q0 57-32 85t-91 29q-52 0-85-20t-53-56l-54 40q10 20 27 39t42 33 57 23 71 9q91 0 144-46t54-128V70h72V0h-55zM257 55q31 0 56 7t45 20 29 30 11 38v85H288q-72 0-105-20t-33-58v-21q0-40 28-60t79-21zm190 563q-31 0-44 13t-13 33v14q0 20 13 33t44 13q31 0 44-13t13-33v-14q0-20-13-33t-44-13zm186 0q-31 0-44 13t-13 33v14q0 20 13 33t44 13q31 0 44-13t13-33v-14q0-20-13-33t-44-13z"/><glyph unicode="å" glyph-name="aring" d="M495 0q-47 0-67 24t-25 60h-5q-17-45-54-70T243-12q-81 0-129 42T66 145q0 72 52 111t170 39h110v51q0 57-32 85t-91 29q-52 0-85-20t-53-56l-54 40q10 20 27 39t42 33 57 23 71 9q91 0 144-46t54-128V70h72V0h-55zM257 55q31 0 56 7t45 20 29 30 11 38v85H288q-72 0-105-20t-33-58v-21q0-40 28-60t79-21zm283 521q-24 0-45 8t-37 24-25 37-9 46q0 25 9 46t24 36 37 24 46 9q24 0 45-8t37-24 25-37 9-46q0-25-9-46t-24-36-37-24-46-9zm0 49q27 0 42 14t16 41v22q0 26-15 40t-43 15q-27 0-42-14t-16-41v-22q0-26 15-40t43-15z"/><glyph unicode="æ" glyph-name="ae" d="M141-12q-57 0-94 38T10 138q0 78 45 117t133 40h63v53q0 67-21 93t-60 27q-38 0-59-22t-36-57l-53 33q8 20 21 39t32 34 43 24 55 9q45 0 76-20t48-58h3q20 43 52 60t72 18q78 0 118-59t40-177v-54H324v-25q0-71 24-116t72-45q19 0 34 7t27 20 20 29 15 33l58-27q-8-23-21-45t-33-41-45-29-57-11q-51 0-88 30t-58 84h-3q-14-59-47-86t-81-28zm14 62q24 0 42 8t30 23 18 33 6 40v84h-52q-55 0-85-20t-31-66v-15q0-41 16-64t56-23zm265 420q-46 0-71-34t-25-107v-34h192v34q0 72-25 106t-71 35z"/><glyph unicode="ç" glyph-name="ccedilla" d="M317 528q75 0 122-33t69-86l-64-34q-14 40-46 62t-81 22q-35 0-62-11t-47-33-28-50-10-63v-88q0-34 9-63t29-50 47-32 64-12q52 0 86 24t54 66l57-39q-23-51-69-84T326-12l-10-49 3-3q19 6 39 6 29 0 48-17t20-49q0-21-9-37t-24-26-36-15-42-5q-41 0-64 13t-35 28l38 41q9-11 24-19t37-9q19 0 31 7t13 24q0 14-13 24t-55 17l-28 4 14 68Q185 5 135 76T84 258q0 61 16 111t46 85 73 55 98 19z"/><glyph unicode="è" glyph-name="egrave" d="M309-12q-56 0-100 19t-76 54-49 85-17 111q0 62 17 112t49 85 74 55 97 19q52 0 94-19t73-52 46-80 16-101v-38H151v-24q0-34 11-63t31-50 50-32 66-12q52 0 90 24t58 66l59-40q-23-52-76-85T309-12zm-5 474q-33 0-61-12t-48-33-32-49-12-63v-7h296v11q0 34-10 62t-29 48-45 32-59 11zM189 744l73 35 85-170-52-24-106 159z"/><glyph unicode="é" glyph-name="eacute" d="M309-12q-56 0-100 19t-76 54-49 85-17 111q0 62 17 112t49 85 74 55 97 19q52 0 94-19t73-52 46-80 16-101v-38H151v-24q0-34 11-63t31-50 50-32 66-12q52 0 90 24t58 66l59-40q-23-52-76-85T309-12zm-5 474q-33 0-61-12t-48-33-32-49-12-63v-7h296v11q0 34-10 62t-29 48-45 32-59 11zm5 123l-52 24 85 170 73-35-106-159z"/><glyph unicode="ê" glyph-name="ecircumflex" d="M309-12q-56 0-100 19t-76 54-49 85-17 111q0 62 17 112t49 85 74 55 97 19q52 0 94-19t73-52 46-80 16-101v-38H151v-24q0-34 11-63t31-50 50-32 66-12q52 0 90 24t58 66l59-40q-23-52-76-85T309-12zm-5 474q-33 0-61-12t-48-33-32-49-12-63v-7h296v11q0 34-10 62t-29 48-45 32-59 11zm48 303l111-143-45-31-117 117-117-117-43 31 111 143h100z"/><glyph unicode="ë" glyph-name="edieresis" d="M309-12q-56 0-100 19t-76 54-49 85-17 111q0 62 17 112t49 85 74 55 97 19q52 0 94-19t73-52 46-80 16-101v-38H151v-24q0-34 11-63t31-50 50-32 66-12q52 0 90 24t58 66l59-40q-23-52-76-85T309-12zm-5 474q-33 0-61-12t-48-33-32-49-12-63v-7h296v11q0 34-10 62t-29 48-45 32-59 11zm-95 156q-31 0-44 13t-13 33v14q0 20 13 33t44 13q31 0 44-13t13-33v-14q0-20-13-33t-44-13zm186 0q-31 0-44 13t-13 33v14q0 20 13 33t44 13q31 0 44-13t13-33v-14q0-20-13-33t-44-13z"/><glyph unicode="ì" glyph-name="igrave" d="M106 68h186v380H106v68h266V68h174V0H106v68zm113 676l73 35 85-170-52-24-106 159z"/><glyph unicode="í" glyph-name="iacute" d="M106 68h186v380H106v68h266V68h174V0H106v68zm233 517l-52 24 85 170 73-35-106-159z"/><glyph unicode="î" glyph-name="icircumflex" d="M106 68h186v380H106v68h266V68h174V0H106v68zm276 697l111-143-45-31-117 117-117-117-43 31 111 143h100z"/><glyph unicode="ï" glyph-name="idieresis" d="M106 68h186v380H106v68h266V68h174V0H106v68zm133 550q-31 0-44 13t-13 33v14q0 20 13 33t44 13q31 0 44-13t13-33v-14q0-20-13-33t-44-13zm186 0q-31 0-44 13t-13 33v14q0 20 13 33t44 13q31 0 44-13t13-33v-14q0-20-13-33t-44-13z"/><glyph unicode="ð" glyph-name="eth" d="M459 708l-87-61q31-31 60-70t52-86 36-103 14-122q0-140-62-209T303-12q-56 0-100 18t-74 52-47 81-16 107q0 59 16 106t44 82 68 52 86 18q61 0 101-28t64-68l4 2q-25 62-58 110t-76 88l-99-70-38 45 92 64q-33 26-69 49t-74 44h126q17-11 35-23t39-29l94 65 38-45zM300 57q67 0 108 38t41 116v70q0 78-41 116t-108 38q-67 0-108-38t-41-116v-70q0-78 41-116t108-38z"/><glyph unicode="ñ" glyph-name="ntilde" d="M98 0v516h80v-84h4q8 19 20 36t29 31 42 21 56 8q81 0 130-51t49-146V0h-80v317q0 71-31 105t-91 35q-24 0-47-6t-41-18-29-31-11-44V0H98zm278 612q-26 0-45 9t-35 17q-24 13-40 18t-30 6q-17 0-30-7t-28-20l-33 40q14 20 37 36t58 17q26 0 45-9t35-17q24-13 40-18t30-6q17 0 30 7t28 20l33-40q-14-20-37-36t-58-17z"/><glyph unicode="ò" glyph-name="ograve" d="M300-12q-54 0-97 19t-74 54-47 85-16 112q0 61 16 111t46 85 74 55 98 19q54 0 97-19t74-54 47-86 16-111q0-62-16-111t-46-85-74-55-98-19zm0 69q67 0 108 40t41 124v74q0 84-41 124t-108 40q-67 0-108-40t-41-124v-74q0-84 41-124t108-40zM187 744l73 35 85-170-52-24-106 159z"/><glyph unicode="ó" glyph-name="oacute" d="M300-12q-54 0-97 19t-74 54-47 85-16 112q0 61 16 111t46 85 74 55 98 19q54 0 97-19t74-54 47-86 16-111q0-62-16-111t-46-85-74-55-98-19zm0 69q67 0 108 40t41 124v74q0 84-41 124t-108 40q-67 0-108-40t-41-124v-74q0-84 41-124t108-40zm7 528l-52 24 85 170 73-35-106-159z"/><glyph unicode="ô" glyph-name="ocircumflex" d="M300-12q-54 0-97 19t-74 54-47 85-16 112q0 61 16 111t46 85 74 55 98 19q54 0 97-19t74-54 47-86 16-111q0-62-16-111t-46-85-74-55-98-19zm0 69q67 0 108 40t41 124v74q0 84-41 124t-108 40q-67 0-108-40t-41-124v-74q0-84 41-124t108-40zm50 708l111-143-45-31-117 117-117-117-43 31 111 143h100z"/><glyph unicode="õ" glyph-name="otilde" d="M300-12q-54 0-97 19t-74 54-47 85-16 112q0 61 16 111t46 85 74 55 98 19q54 0 97-19t74-54 47-86 16-111q0-62-16-111t-46-85-74-55-98-19zm0 69q67 0 108 40t41 124v74q0 84-41 124t-108 40q-67 0-108-40t-41-124v-74q0-84 41-124t108-40zm73 555q-26 0-45 9t-35 17q-24 13-40 18t-30 6q-17 0-30-7t-28-20l-33 40q14 20 37 36t58 17q26 0 45-9t35-17q24-13 40-18t30-6q17 0 30 7t28 20l33-40q-14-20-37-36t-58-17z"/><glyph unicode="ö" glyph-name="odieresis" d="M300-12q-54 0-97 19t-74 54-47 85-16 112q0 61 16 111t46 85 74 55 98 19q54 0 97-19t74-54 47-86 16-111q0-62-16-111t-46-85-74-55-98-19zm0 69q67 0 108 40t41 124v74q0 84-41 124t-108 40q-67 0-108-40t-41-124v-74q0-84 41-124t108-40zm-93 561q-31 0-44 13t-13 33v14q0 20 13 33t44 13q31 0 44-13t13-33v-14q0-20-13-33t-44-13zm186 0q-31 0-44 13t-13 33v14q0 20 13 33t44 13q31 0 44-13t13-33v-14q0-20-13-33t-44-13z"/><glyph unicode="÷" glyph-name="divide" d="M62 271v68h476v-68H62zM300 52q-35 0-48 14t-14 34v22q0 20 13 34t49 14q35 0 48-14t14-34v-22q0-20-13-34t-49-14zm0 388q-35 0-48 14t-14 34v22q0 20 13 34t49 14q35 0 48-14t14-34v-22q0-20-13-34t-49-14z"/><glyph unicode="ø" glyph-name="oslash" d="M47-6l69 84q-24 35-37 80T66 258q0 61 16 111t46 85 74 55 98 19q44 0 80-13t65-36l63 77 45-34-69-84q24-35 37-80t13-100q0-62-16-111t-46-85-74-55-98-19q-44 0-80 13t-65 36L92-40 47-6zm253 465q-67 0-108-40t-41-124v-74q0-50 15-83l235 287q-37 34-101 34zm0-402q67 0 108 40t41 124v74q0 50-15 83L199 91q37-34 101-34z"/><glyph unicode="ù" glyph-name="ugrave" d="M422 84h-4q-8-19-20-36t-29-31-42-21-56-8q-81 0-130 51T92 185v331h80V199q0-71 31-105t91-35q24 0 47 6t41 18 29 30 11 45v358h80V0h-80v84zm19 660l73 35 85-170-52-24-106 159z"/><glyph unicode="ú" glyph-name="uacute" d="M422 84h-4q-8-19-20-36t-29-31-42-21-56-8q-81 0-130 51T92 185v331h80V199q0-71 31-105t91-35q24 0 47 6t41 18 29 30 11 45v358h80V0h-80v84zm139 501l-52 24 85 170 73-35-106-159z"/><glyph unicode="û" glyph-name="ucircumflex" d="M422 84h-4q-8-19-20-36t-29-31-42-21-56-8q-81 0-130 51T92 185v331h80V199q0-71 31-105t91-35q24 0 47 6t41 18 29 30 11 45v358h80V0h-80v84zm182 681l111-143-45-31-117 117-117-117-43 31 111 143h100z"/><glyph unicode="ü" glyph-name="udieresis" d="M422 84h-4q-8-19-20-36t-29-31-42-21-56-8q-81 0-130 51T92 185v331h80V199q0-71 31-105t91-35q24 0 47 6t41 18 29 30 11 45v358h80V0h-80v84zm39 534q-31 0-44 13t-13 33v14q0 20 13 33t44 13q31 0 44-13t13-33v-14q0-20-13-33t-44-13zm186 0q-31 0-44 13t-13 33v14q0 20 13 33t44 13q31 0 44-13t13-33v-14q0-20-13-33t-44-13z"/><glyph unicode="ý" glyph-name="yacute" d="M467 516h80L291-113q-9-22-20-38t-26-27-36-16-50-6H83v68h120l58 142L53 516h82l87-216 77-196h4l77 196 87 216zm-160 69l-52 24 85 170 73-35-106-159z"/><glyph unicode="þ" glyph-name="thorn" d="M95 740h80V432h4q50 96 159 96 95 0 148-71t54-199q0-128-53-199T338-12q-109 0-159 96h-4v-284H95v940zM307 59q70 0 108 42t39 113v88q0 70-38 112t-109 43q-27 0-51-7t-42-20-28-33-11-46V165q0-26 10-45t29-33 42-21 51-7z"/><glyph unicode="ÿ" glyph-name="ydieresis" d="M467 516h80L291-113q-9-22-20-38t-26-27-36-16-50-6H83v68h120l58 142L53 516h82l87-216 77-196h4l77 196 87 216zM207 618q-31 0-44 13t-13 33v14q0 20 13 33t44 13q31 0 44-13t13-33v-14q0-20-13-33t-44-13zm186 0q-31 0-44 13t-13 33v14q0 20 13 33t44 13q31 0 44-13t13-33v-14q0-20-13-33t-44-13z"/><glyph unicode="–" glyph-name="endash" d="M60 267v74h480v-74H60z"/><glyph unicode="—" glyph-name="emdash" d="M0 267v74h600v-74H0z"/><glyph unicode="‘" glyph-name="quoteleft" d="M310 740h67l-53-277H195l115 277z"/><glyph unicode="’" glyph-name="quoteright" d="M276 740h129L290 463h-67l53 277z"/><glyph unicode="‚" glyph-name="quotesinglbase" d="M257 136h129L271-141h-67l53 277z"/><glyph unicode="“" glyph-name="quotedblleft" d="M453 740h67l-53-277H338l115 277zm-17 0h67l-53-277H321l115 277z"/><glyph unicode="”" glyph-name="quotedblright" d="M419 740h129L433 463h-67l53 277zm-17 0h129L416 463h-67l53 277z"/><glyph unicode="„" glyph-name="quotedblbase" d="M419 136h129L433-141h-67l53 277zm-17 0h129L416-141h-67l53 277z"/><glyph unicode="•" glyph-name="bullet" d="M300 186q-67 0-94 30t-28 74v28q0 44 27 74t95 30q67 0 94-30t28-74v-28q0-44-27-74t-95-30z"/><glyph unicode="‹" glyph-name="guilsinglleft" d="M376 56L170 230v80l206 174 25-57-148-157 148-157-25-57z"/><glyph unicode="›" glyph-name="guilsinglright" d="M199 113l148 157-148 157 25 57 206-174v-80L224 56l-25 57z"/></font>
</defs>
</svg>
