<svg xmlns="http://www.w3.org/2000/svg"><defs><font id="IBMPlexSans" horiz-adv-x="590"><font-face font-family="IBM Plex Sans" panose-1="2 11 5 3 5 2 3 0 2 3" ascent="1025" descent="-275" alphabetic="0"/><glyph glyph-name="space" horiz-adv-x="236"/><glyph unicode="!" glyph-name="exclam" horiz-adv-x="284" d="M122 185L98 495v203h88V495l-24-310h-40zm20-197q-32 0-46 16T81 46v13q0 26 14 42t47 16q32 0 46-16t15-42V46q0-26-14-42t-47-16z"/><glyph unicode="&quot;" glyph-name="quotedbl" horiz-adv-x="419" d="M85 460v280h72V460H85zm177 0v280h72V460h-72z"/><glyph unicode="#" glyph-name="numbersign" horiz-adv-x="713" d="M406 205H252L216 0h-64l36 205H60v60h138l28 168H99v60h138l35 205h64l-35-205h154l35 205h64l-35-205h128v-60H508l-28-168h128v-60H470L434 0h-64l36 205zm10 60l28 168H290l-28-168h154z"/><glyph unicode="$" glyph-name="dollar" horiz-adv-x="598" d="M270-82V0q-76 5-128 37t-90 82l59 53q32-43 70-68t90-33v257q-103 23-150 67T73 518q0 40 14 71t41 55 62 36 80 18v82h62v-81q68-6 117-34t86-79l-61-46q-25 35-60 57t-83 30V393l9-2q104-23 151-67t48-124q0-86-55-138T332 0v-82h-62zm190 277q0 51-29 78t-100 44V71q60 8 94 40t35 84zM152 524q0-51 29-76t90-42v221q-54-7-86-33t-33-70z"/><glyph unicode="%" glyph-name="percent" horiz-adv-x="927" d="M183 0l484 698h77L260 0h-77zm40 314q-76 0-117 50T65 512q0 97 41 147t117 51q76 0 117-50t41-148q0-97-41-147t-117-51zm0 52q86 0 86 116v60q0 116-86 116t-86-116v-60q0-116 86-116zM704-12q-76 0-117 50t-41 148q0 97 41 147t117 51q76 0 117-50t41-148q0-97-41-147T704-12zm0 52q86 0 86 116v60q0 116-86 116t-86-116v-60q0-116 86-116z"/><glyph unicode="&amp;" glyph-name="ampersand" horiz-adv-x="694" d="M489 82q-11-13-28-29t-41-31-58-24-76-10q-52 0-92 15t-67 41-41 62-14 75q0 39 12 69t32 53 46 42 53 33q-36 38-57 77t-22 87q0 35 13 66t36 53 57 36 75 13q37 0 68-11t53-30 34-48 13-61q0-35-12-62t-35-51-51-42-62-38l157-169q15 38 23 81t10 88h136v-68h-71q-7-44-19-82t-29-72L668 0H564l-75 82zM313 643q-43 0-70-27t-28-67v-12q0-30 18-60t49-65q24 13 46 27t40 32 29 35 11 40v12q0 41-28 63t-67 22zM293 58q51 0 88 19t63 53L257 332q-20-11-38-23t-33-28-22-38-9-51v-15q0-55 37-87t101-32z"/><glyph unicode="'" glyph-name="quotesingle" horiz-adv-x="242" d="M85 460v280h72V460H85z"/><glyph unicode="(" glyph-name="parenleft" horiz-adv-x="335" d="M83 312q0 72 14 139t38 124 58 105 71 80h76q-42-38-75-86t-57-102-37-110-13-108v-86q0-53 13-109t37-110 57-102 75-84h-76q-37 31-70 78T137 46 98 171 83 312z"/><glyph unicode=")" glyph-name="parenright" horiz-adv-x="335" d="M252 312q0-73-14-140T199 46 141-59t-70-78H-5q41 36 74 84t58 102 37 110 13 109v86q0 52-13 108t-36 110-57 102-76 86h76q38-33 71-80t57-104 39-125 14-139z"/><glyph unicode="*" glyph-name="asterisk" horiz-adv-x="450" d="M143 388l-56 41 91 116-142 39 22 67 138-51-6 147h70l-6-147 138 51 22-67-142-39 91-116-56-41-82 123-82-123z"/><glyph unicode="+" glyph-name="plus" horiz-adv-x="600" d="M262 62v209H67v68h195v209h76V339h195v-68H338V62h-76z"/><glyph unicode="," glyph-name="comma" horiz-adv-x="272" d="M136 117q32 0 46-16t15-43V44q0-41-24-90t-67-87H39q30 32 48 60t27 64Q94-4 85 10T75 44v14q0 26 14 42t47 17z"/><glyph unicode="-" glyph-name="hyphen" horiz-adv-x="399" d="M69 261v86h261v-86H69z"/><glyph unicode="." glyph-name="period" horiz-adv-x="272" d="M136-12q-32 0-46 16T75 46v13q0 26 14 42t47 16q32 0 46-16t15-42V46q0-26-14-42t-47-16z"/><glyph unicode="/" glyph-name="slash" horiz-adv-x="383" d="M9-151l261 891h72L81-151H9z"/><glyph unicode="0" glyph-name="zero" horiz-adv-x="600" d="M300-12q-125 0-182 95T60 349q0 171 57 266t183 95q125 0 182-95t58-266q0-171-57-266T300-12zm0 73q41 0 70 17t47 48 26 73 9 93v114q0 51-8 93t-27 73-47 48-70 17q-41 0-70-17t-47-48-26-73-9-93V292q0-51 8-93t27-73 47-48 70-17z"/><glyph unicode="1" glyph-name="one" horiz-adv-x="600" d="M88 0v74h195v562h-7L100 472l-49 53 185 173h131V74h180V0H88z"/><glyph unicode="2" glyph-name="two" horiz-adv-x="600" d="M533 0H75v86l228 210q49 45 82 95t33 102v12q0 58-32 94t-97 36q-32 0-56-9t-41-25-29-37-19-47l-75 29q10 31 27 60t44 53 64 37 89 14q51 0 91-15t67-42 41-64 15-82q0-41-11-76t-32-66-48-62-62-60L166 74h367V0z"/><glyph unicode="3" glyph-name="three" horiz-adv-x="600" d="M261 402q71 0 106 32t36 84v7q0 55-34 82t-91 28q-54 0-88-23t-56-64l-62 48q13 21 31 41t44 37 58 26 75 10q44 0 83-11t67-34 45-56 17-75q0-34-10-61t-29-47-42-34-53-21v-4q28-6 54-19t47-35 33-52 13-70q0-45-17-82t-48-64-75-42-97-15q-45 0-80 10t-62 27-47 38-37 44l63 48q13-21 28-38t35-29 43-18 56-7q74 0 112 33t38 96v8q0 62-38 95t-112 34h-82v73h76z"/><glyph unicode="4" glyph-name="four" horiz-adv-x="600" d="M375 0v137H38v74l292 487h125V207h101v-70H455V0h-80zM117 207h258v426h-5L117 207z"/><glyph unicode="5" glyph-name="five" horiz-adv-x="600" d="M498 624H192l-20-266h7q25 35 56 56t87 21q45 0 83-15t66-42 43-68 16-91q0-51-16-93t-46-73-74-48-99-17q-44 0-77 10t-60 27-45 38-36 44l63 48q13-21 27-38t32-29 41-18 55-7q72 0 109 38t37 107v10q0 69-37 107t-109 38q-48 0-75-17t-50-42l-71 10 25 384h374v-74z"/><glyph unicode="6" glyph-name="six" horiz-adv-x="600" d="M301-12q-54 0-97 18t-74 53-47 85-16 112q0 78 23 146t59 125 81 100 86 71h108q-56-41-100-80t-77-81-56-91-37-110l5-2q25 43 64 71t104 29q45 0 83-15t65-43 42-68 16-89q0-51-16-93t-47-73-74-48-95-17zm-1 73q69 0 107 38t39 109v8q0 71-38 109t-108 38q-69 0-107-38t-39-109v-8q0-71 38-109t108-38z"/><glyph unicode="7" glyph-name="seven" horiz-adv-x="600" d="M175 0l267 626H144V496H69v202h458v-74L265 0h-90z"/><glyph unicode="8" glyph-name="eight" horiz-adv-x="600" d="M300-12q-60 0-105 15t-75 43-46 64-16 80q0 72 39 114t102 59v8q-55 19-87 61T79 535q0 80 58 127t163 48q105 0 163-47t58-128q0-60-32-102t-88-62v-8q63-17 102-59t39-114q0-43-15-80t-46-64-76-42-105-16zm0 73q73 0 113 32t40 93v21q0 60-40 92t-113 33q-73 0-113-32t-40-93v-21q0-60 40-92t113-33zm0 341q66 0 100 28t34 82v15q0 54-34 82t-100 28q-66 0-100-28t-34-82v-15q0-54 34-82t100-28z"/><glyph unicode="9" glyph-name="nine" horiz-adv-x="600" d="M533 442q0-78-23-146t-59-125-81-100-86-71H176q56 41 100 80t77 81 56 91 37 110l-5 2q-25-43-64-71t-104-29q-45 0-83 15t-65 43-42 67-16 90q0 51 16 93t47 73 73 48 96 17q54 0 97-18t74-53 47-85 16-112zM300 335q69 0 107 38t39 109v8q0 71-38 109t-108 38q-69 0-107-38t-39-109v-8q0-71 38-109t108-38z"/><glyph unicode=":" glyph-name="colon" horiz-adv-x="292" d="M146-12q-32 0-46 16T85 46v13q0 26 14 42t47 16q32 0 46-16t15-42V46q0-26-14-42t-47-16zm0 411q-32 0-46 16t-15 42v13q0 26 14 42t47 16q32 0 46-16t15-42v-13q0-26-14-42t-47-16z"/><glyph unicode=";" glyph-name="semicolon" horiz-adv-x="292" d="M146 117q32 0 46-16t15-43V44q0-41-24-90t-67-87H49q30 32 48 60t27 64q-20 5-29 19T85 44v14q0 26 14 42t47 17zm0 282q-32 0-46 16t-15 42v13q0 26 14 42t47 16q32 0 46-16t15-42v-13q0-26-14-42t-47-16z"/><glyph unicode="&lt;" glyph-name="less" horiz-adv-x="600" d="M90 237v80l420 249v-84L165 281v-8L510 72v-84L90 237z"/><glyph unicode="=" glyph-name="equal" horiz-adv-x="600" d="M67 372v68h466v-68H67zm0-200v68h466v-68H67z"/><glyph unicode="&gt;" glyph-name="greater" horiz-adv-x="600" d="M90 72l345 201v8L90 482v84l420-249v-80L90-12v84z"/><glyph unicode="?" glyph-name="question" horiz-adv-x="477" d="M179 208v164q82 4 128 40t47 99v14q0 51-32 81t-86 31q-58 0-92-33t-47-84l-74 28q9 32 26 61t44 52 63 36 83 13q93 0 147-51t54-138q0-48-16-83t-43-61-59-40-66-21V208h-77zm39-220q-32 0-46 16t-15 42v13q0 26 14 42t47 16q32 0 46-16t15-42V46q0-26-14-42t-47-16z"/><glyph unicode="@" glyph-name="at" horiz-adv-x="891" d="M679-121H447q-86 0-156 29T170-10 93 119 65 288q0 93 28 170t79 132 123 87 161 31q70 0 137-21t118-68 83-119 32-177q0-52-9-98t-31-80-54-55-80-21q-48 0-72 24t-29 62h-4q-20-40-49-63t-75-23q-35 0-66 13t-56 41-38 68-14 98q0 56 14 97t38 69 55 40 67 14q46 0 73-22t41-55h4v68h69V196q0-39 13-52t42-14q47 0 71 48t24 132v46q0 66-23 120t-65 92-97 59-120 21q-72 0-131-25t-102-69-66-104-24-129v-59q0-71 23-130t64-102 100-66 129-24h231v-61zM437 135q53 0 78 25t26 71v122q0 38-25 64t-79 26q-54 0-79-31t-25-83v-80q0-52 25-83t79-31z"/><glyph unicode="A" glyph-name="A" horiz-adv-x="641" d="M530 0l-70 206H178L108 0H23l244 698h107L618 0h-88zM321 620h-5L198 280h241L321 620z"/><glyph unicode="B" glyph-name="B" horiz-adv-x="653" d="M93 698h287q87 0 136-49t50-131q0-39-11-66t-28-44-37-26-37-12v-6q19-1 42-10t45-28 35-50 15-74q0-43-13-80t-38-64-57-42-72-16H93v698zm84-624h207q54 0 85 27t31 81v34q0 53-31 80t-85 28H177V74zm0 322h193q50 0 78 25t28 72v34q0 47-28 72t-78 25H177V396z"/><glyph unicode="C" glyph-name="C" horiz-adv-x="621" d="M339-12q-133 0-207 90T58 345q0 176 74 270t207 95q88 0 147-40t93-113l-68-41q-21 54-64 86t-108 33q-45 0-80-17t-60-48-38-75-13-98V293q0-108 50-169t141-61q67 0 112 34t66 92l67-42q-33-74-95-116T339-12z"/><glyph unicode="D" glyph-name="D" horiz-adv-x="671" d="M93 698h234q65 0 118-22t90-65 58-109 20-153q0-87-20-152T536 88t-91-66T327 0H93v698zM327 74q43 0 79 14t62 43 40 68 15 93v114q0 52-14 92t-41 69-62 42-79 15H177V74h150z"/><glyph unicode="E" glyph-name="E" horiz-adv-x="583" d="M93 0v698h426v-74H177V390h322v-74H177V74h342V0H93z"/><glyph unicode="F" glyph-name="F" horiz-adv-x="559" d="M93 0v698h416v-74H177V390h303v-74H177V0H93z"/><glyph unicode="G" glyph-name="G" horiz-adv-x="695" d="M545 102h-3q-13-49-63-81T348-12q-64 0-117 23t-92 69-59 113-22 156q0 87 21 154t60 113 94 70 122 24q94 0 157-42t97-111l-69-42q-24 56-71 88t-114 32q-46 0-84-16t-65-47-43-72-15-94V293q0-52 15-94t42-73 68-46 90-17q36 0 68 9t57 29 39 47 14 68v69H387v74h236V0h-78v102z"/><glyph unicode="H" glyph-name="H" horiz-adv-x="707" d="M530 316H177V0H93v698h84V390h353v308h84V0h-84v316z"/><glyph unicode="I" glyph-name="I" horiz-adv-x="400" d="M60 0v70h98v558H60v70h280v-70h-98V70h98V0H60z"/><glyph unicode="J" glyph-name="J" horiz-adv-x="510" d="M422 698V181q0-44-14-80t-41-61-64-38-81-14q-81 0-130 43T28 147l76 18q10-45 38-73t82-29q54 0 84 33t30 100v428H98v74h324z"/><glyph unicode="K" glyph-name="K" horiz-adv-x="634" d="M276 343l-99-110V0H93v698h84V327h3l100 121 211 250h103L334 399 612 0H508L276 343z"/><glyph unicode="L" glyph-name="L" horiz-adv-x="501" d="M93 0v698h84V74h297V0H93z"/><glyph unicode="M" glyph-name="M" horiz-adv-x="812" d="M637 588h-5l-59-117-167-304-167 304-59 117h-5V0H93v698h112l200-376h5l201 376h108V0h-82v588z"/><glyph unicode="N" glyph-name="N" horiz-adv-x="707" d="M262 426l-84 155h-3V0H93v698h97l255-426 84-155h3v581h82V0h-97L262 426z"/><glyph unicode="O" glyph-name="O" horiz-adv-x="708" d="M354-12q-68 0-122 23t-93 69-60 113-21 156q0 88 21 155t59 113 93 69 123 24q67 0 122-23t93-70 60-113 21-155q0-88-21-155T570 81t-94-69-122-24zm0 75q45 0 83 16t65 46 43 72 15 94v116q0 52-15 94t-42 72-66 46-83 16q-45 0-83-16t-65-46-43-72-15-94V291q0-52 15-94t42-72 66-46 83-16z"/><glyph unicode="P" glyph-name="P" horiz-adv-x="606" d="M93 0v698h278q94 0 144-53t51-147q0-93-50-146t-145-54H177V0H93zm84 372h194q50 0 77 26t28 74v52q0 48-27 74t-78 26H177V372z"/><glyph unicode="Q" glyph-name="Q" horiz-adv-x="708" d="M508-164H405q-42 0-63 23t-21 59v71q-60 6-109 32t-83 71-52 110-19 147q0 88 21 155t59 113 93 69 123 24q67 0 122-23t93-70 60-113 21-155q0-161-67-251T401-9v-85h107v-70zM354 63q45 0 83 16t65 46 43 72 15 94v116q0 52-15 94t-42 72-66 46-83 16q-45 0-83-16t-65-46-43-72-15-94V291q0-52 15-94t42-72 66-46 83-16z"/><glyph unicode="R" glyph-name="R" horiz-adv-x="640" d="M177 0H93v698h278q92 0 143-51t52-147q0-77-35-126t-105-66L586 0h-95L340 300H177V0zm194 372q50 0 77 26t28 74v52q0 48-27 74t-78 26H177V372h194z"/><glyph unicode="S" glyph-name="S" horiz-adv-x="581" d="M289-12q-85 0-145 32T42 110l62 52q37-49 82-74t106-26q75 0 114 36t40 96q0 50-30 77t-99 43l-57 13q-96 22-146 66T63 519q0 46 17 82t47 60 73 36 94 13q79 0 135-29t96-85l-63-46q-29 40-70 63t-102 23q-67 0-105-28t-39-86q0-50 32-75t99-41l57-13q103-23 149-70t46-125q0-48-16-87t-48-66-75-42-101-15z"/><glyph unicode="T" glyph-name="T" horiz-adv-x="572" d="M328 624V0h-84v624H22v74h528v-74H328z"/><glyph unicode="U" glyph-name="U" horiz-adv-x="678" d="M172 698V266q0-100 37-151t130-52q93 0 130 51t37 152v432h84V286q0-76-13-132t-44-93-78-55-119-18q-70 0-117 18t-77 55-41 93-13 132v412h84z"/><glyph unicode="V" glyph-name="V" horiz-adv-x="609" d="M252 0L20 698h90l115-352 77-262h5l79 262 116 352h87L354 0H252z"/><glyph unicode="W" glyph-name="W" horiz-adv-x="891" d="M190 0L20 698h89l75-336 58-261h2l65 261 88 336h96l85-336 65-260h3l60 260 79 336h86L692 0h-93l-91 348-64 256h-2l-66-256L283 0h-93z"/><glyph unicode="X" glyph-name="X" horiz-adv-x="613" d="M589 0H488L305 293h-2L120 0H24l228 355L30 698h101l175-278h2l179 278h96L359 358 589 0z"/><glyph unicode="Y" glyph-name="Y" horiz-adv-x="593" d="M253 0v276L13 698h96l186-336h3l186 336h96L337 279V0h-84z"/><glyph unicode="Z" glyph-name="Z" horiz-adv-x="580" d="M544 0H36v76l403 548H57v74h473v-76L126 74h418V0z"/><glyph unicode="[" glyph-name="bracketleft" horiz-adv-x="317" d="M93-138v898h164v-63h-95V-75h95v-63H93z"/><glyph unicode="\" glyph-name="backslash" horiz-adv-x="383" d="M299-151L40 740h72l259-891h-72z"/><glyph unicode="]" glyph-name="bracketright" horiz-adv-x="317" d="M224 760v-898H60v63h95v772H60v63h164z"/><glyph unicode="^" glyph-name="asciicircum" horiz-adv-x="600" d="M489 296L302 624h-4L111 296l-61 32 207 370h86l207-370-61-32z"/><glyph unicode="_" glyph-name="underscore" horiz-adv-x="565" d="M30-165v70h505v-70H30z"/><glyph unicode="`" glyph-name="grave" horiz-adv-x="600" d="M187 744l73 35 85-170-52-24-106 159z"/><glyph unicode="a" glyph-name="a" horiz-adv-x="534" d="M460 0q-45 0-64 24t-25 60h-5q-17-48-56-72t-93-24q-82 0-127 42T44 144q0 73 53 112t167 39h102v51q0 55-30 84t-92 29q-47 0-78-21t-53-56l-48 45q21 42 67 71t116 30q94 0 146-46t52-128V70h59V0h-45zM230 56q30 0 55 7t43 20 28 30 10 37v85H260q-69 0-100-20t-32-58v-21q0-38 27-59t75-21z"/><glyph unicode="b" glyph-name="b" horiz-adv-x="580" d="M85 740h80V432h4q20 49 58 72t93 24q48 0 87-19t66-54 42-85 15-112q0-62-14-112t-42-85-67-54-87-19q-105 0-151 96h-4V0H85v740zM298 60q68 0 107 42t39 112v88q0 69-39 111t-107 43q-27 0-51-7t-43-21-28-31-11-40V165q0-25 10-44t29-33 42-21 52-7z"/><glyph unicode="c" glyph-name="c" horiz-adv-x="503" d="M277-12q-54 0-97 19t-72 54-45 85-16 112q0 62 15 112t45 85 73 54 97 19q77 0 123-33t70-88l-67-34q-14 40-46 62t-80 22q-36 0-63-11t-45-32-27-49-9-63v-88q0-68 36-111t108-44q97 0 140 90l58-39q-25-56-74-89T277-12z"/><glyph unicode="d" glyph-name="d" horiz-adv-x="580" d="M415 84h-4q-47-96-151-96-48 0-87 19t-66 54-42 85-15 112q0 62 14 112t42 85 67 54 87 19q54 0 92-23t59-73h4v308h80V0h-80v84zM282 60q27 0 51 7t43 20 28 33 11 45v192q0 21-10 39t-29 32-42 20-52 8q-68 0-107-42t-39-112v-88q0-69 39-111t107-43z"/><glyph unicode="e" glyph-name="e" horiz-adv-x="549" d="M279-12q-53 0-95 19t-73 54-47 85-17 112q0 61 16 111t47 85 73 55 96 19q52 0 93-19t70-52 44-80 16-101v-38H131v-24q0-33 10-61t30-50 48-33 65-12q49 0 85 23t57 66l57-41q-25-53-78-85T279-12zm0 473q-33 0-60-11t-46-33-31-49-11-63v-7h285v11q0 69-37 110t-100 42z"/><glyph unicode="f" glyph-name="f" horiz-adv-x="324" d="M113 446H29v70h84v104q0 54 28 87t85 33h78v-70H193V516h111v-70H193V0h-80v446z"/><glyph unicode="g" glyph-name="g" horiz-adv-x="528" d="M520-57q0-80-62-117t-188-38q-121 0-174 33T43-85q0 42 22 65t60 35v11Q79 48 79 98q0 39 25 59t64 31v4q-46 22-71 63t-26 95q0 39 14 72t39 56 61 37 80 13q55 0 98-20v9q0 30 14 49t46 20h77v-70h-98v-33q28-24 43-57t16-76q0-39-14-72t-39-56-62-37-80-13q-25 0-50 5-26-7-47-20t-21-38q0-23 22-31t57-8h110q96 0 139-36t44-101zm-75-6q0 31-23 49T338 5H166q-48-22-48-70 0-34 25-58t87-24h74q67 0 104 21t37 63zM266 236q51 0 81 24t30 76v28q0 51-30 75t-81 25q-51 0-81-24t-30-76v-28q0-51 30-75t81-25z"/><glyph unicode="h" glyph-name="h" horiz-adv-x="568" d="M85 740h80V432h4q19 44 53 70t93 26q80 0 126-51t47-146V0h-80v317q0 139-117 139-24 0-46-6t-41-18-28-30-11-44V0H85v740z"/><glyph unicode="i" glyph-name="i" horiz-adv-x="250" d="M125 637q-26 0-37 12t-12 33v13q0 20 11 32t38 13q26 0 37-12t12-33v-13q0-20-11-32t-38-13zM85 516h80V0H85v516z"/><glyph unicode="j" glyph-name="j" horiz-adv-x="250" d="M85 516h80V-80q0-54-27-87t-85-33H1v70h84v646zm40 121q-26 0-37 12t-12 33v13q0 20 11 32t38 13q26 0 37-12t12-33v-13q0-20-11-32t-38-13z"/><glyph unicode="k" glyph-name="k" horiz-adv-x="527" d="M85 740h80V271h4l79 88 146 157h97L300 312 510 0h-97L242 263l-77-79V0H85v740z"/><glyph unicode="l" glyph-name="l" horiz-adv-x="272" d="M170 0q-42 0-63 23T85 83v657h80V70h76V0h-71z"/><glyph unicode="m" glyph-name="m" horiz-adv-x="873" d="M85 0v516h80v-84h4q9 20 20 37t28 31 39 20 52 8q51 0 94-24t64-81h2q14 42 52 73t105 32q79 0 123-51t45-146V0h-80v317q0 69-27 104t-86 35q-24 0-45-6t-39-18-27-30-10-44V0h-80v317q0 69-27 104t-84 35q-24 0-46-6t-39-18-27-30-11-44V0H85z"/><glyph unicode="n" glyph-name="n" horiz-adv-x="568" d="M85 0v516h80v-84h4q19 44 53 70t93 26q80 0 126-51t47-146V0h-80v317q0 139-117 139-24 0-46-6t-41-18-28-30-11-44V0H85z"/><glyph unicode="o" glyph-name="o" horiz-adv-x="560" d="M280-12q-52 0-95 19t-73 54-48 85-17 112q0 61 17 111t47 85 74 55 95 19q52 0 94-19t74-54 48-86 17-111q0-62-17-111t-48-85-73-55-95-19zm0 71q65 0 106 40t41 122v74q0 82-41 122t-106 40q-65 0-106-40t-41-122v-74q0-82 41-122t106-40z"/><glyph unicode="p" glyph-name="p" horiz-adv-x="580" d="M85 516h80v-84h4q20 49 58 72t93 24q48 0 87-19t66-54 42-85 15-112q0-62-14-112t-42-85-67-54-87-19q-105 0-151 96h-4v-284H85v716zM298 60q68 0 107 42t39 112v88q0 69-39 111t-107 43q-27 0-51-7t-43-21-28-31-11-40V165q0-25 10-44t29-33 42-21 52-7z"/><glyph unicode="q" glyph-name="q" horiz-adv-x="580" d="M415 84h-4q-47-96-151-96-48 0-87 19t-66 54-42 85-15 112q0 62 14 112t42 85 67 54 87 19q54 0 92-23t59-73h4v84h80v-716h-80V84zM282 60q27 0 51 7t43 20 28 33 11 45v192q0 21-10 39t-29 32-42 20-52 8q-68 0-107-42t-39-112v-88q0-69 39-111t107-43z"/><glyph unicode="r" glyph-name="r" horiz-adv-x="367" d="M85 0v516h80v-95h5q14 37 50 66t99 29h31v-80h-47q-65 0-101-24t-37-62V0H85z"/><glyph unicode="s" glyph-name="s" horiz-adv-x="487" d="M240-12q-72 0-120 27T36 89l57 46q30-38 67-58t86-21q51 0 79 22t29 62q0 30-19 51t-71 30l-41 6q-36 5-66 15t-52 28-35 44-13 62q0 38 14 66t38 48 59 28 73 10q63 0 105-22t75-61l-53-48q-17 24-50 43t-83 20q-50 0-75-21t-26-59q0-38 25-55t74-25l40-6q86-13 122-49t36-96q0-75-51-118T240-12z"/><glyph unicode="t" glyph-name="t" horiz-adv-x="351" d="M199 0q-42 0-63 23t-22 62v361H29v70h48q26 0 35 10t10 37v96h72V516h113v-70H194V70h105V0H199z"/><glyph unicode="u" glyph-name="u" horiz-adv-x="568" d="M403 84h-4q-8-18-19-35t-29-31-41-22-56-8q-80 0-127 51T80 185v331h80V199q0-139 118-139 24 0 46 6t40 18 28 30 11 45v357h80V0h-80v84z"/><glyph unicode="v" glyph-name="v" horiz-adv-x="492" d="M199 0L18 516h80l90-256 56-176h5l56 176 92 256h77L292 0h-93z"/><glyph unicode="w" glyph-name="w" horiz-adv-x="768" d="M31 516h78l55-223 55-226h2l63 226 65 223h71l67-223 64-226h2l53 226 56 223h75L600 0h-99l-72 248-45 157h-2l-44-157L266 0h-97L31 516z"/><glyph unicode="x" glyph-name="x" horiz-adv-x="507" d="M21 0l191 260L29 516h94l131-192h3l136 192h89L300 266 486 0h-94L258 202h-3L110 0H21z"/><glyph unicode="y" glyph-name="y" horiz-adv-x="499" d="M403 516h79L251-120q-9-23-18-38t-22-25-32-13-48-4H90v70h81l39 110L17 516h80l124-351 24-84h5l28 84 125 351z"/><glyph unicode="z" glyph-name="z" horiz-adv-x="464" d="M33 0v67l293 379H42v70h381v-60L124 70h307V0H33z"/><glyph unicode="{" glyph-name="braceleft" horiz-adv-x="343" d="M199-138q-40 0-60 23t-20 59v240q0 43-27 65t-70 23v78q42 0 69 22t28 66v240q0 35 20 58t60 24h84v-63h-95V447q0-47-26-83t-69-45v-16q42-8 68-44t27-84V-75h95v-63h-84z"/><glyph unicode="|" glyph-name="bar" horiz-adv-x="314" d="M123-138v898h68v-898h-68z"/><glyph unicode="}" glyph-name="braceright" horiz-adv-x="343" d="M144 760q40 0 60-23t20-59V438q0-43 27-65t70-23v-78q-42 0-69-22t-28-66V-56q0-35-20-58t-60-24H60v63h95v250q0 47 26 83t69 45v16q-42 8-68 44t-27 84v250H60v63h84z"/><glyph unicode="~" glyph-name="asciitilde" horiz-adv-x="600" d="M419 236q-37 0-65 10t-64 27q-28 14-55 24t-58 10q-25 0-42-7t-41-25l-33 44q20 25 47 40t73 15q37 0 65-10t64-27q28-14 55-24t58-10q25 0 42 7t41 25l33-44q-20-25-47-40t-73-15z"/><glyph glyph-name="uni00A0" horiz-adv-x="236"/><glyph unicode="¡" glyph-name="exclamdown" horiz-adv-x="284" d="M97-182V21l24 310h40l24-310v-203H97zm45 581q-32 0-46 16t-15 42v13q0 26 14 42t47 16q32 0 46-16t15-42v-13q0-26-14-42t-47-16z"/><glyph unicode="¢" glyph-name="cent" horiz-adv-x="514" d="M235-114V-9Q144 4 96 75T47 258q0 113 49 183t139 84v105h70V527q63-5 103-37t61-81l-64-35q-27 71-101 82V60q78 9 114 88l58-39q-22-51-65-83T305-11v-103h-70zM133 214q0-57 26-98t77-53v390q-51-11-77-52t-26-99v-88z"/><glyph unicode="£" glyph-name="sterling" horiz-adv-x="595" d="M82 0v100q42 18 57 56t15 81q0 13-1 25t-3 24H60v70h71q-11 34-21 67t-10 76q0 46 15 85t45 67 73 43 97 16q77 0 128-30t86-84l-63-46q-26 40-62 63t-92 23q-65 0-102-36t-38-109q0-38 9-70t19-65h216v-70H233q3-20 3-40 0-56-22-101t-53-65v-5h364V0H82z"/><glyph unicode="¤" glyph-name="currency" horiz-adv-x="612" d="M306 119q-84 0-138 45L66 62l-48 47 106 106q-32 56-32 134t32 134L18 589l48 47 102-102q54 45 138 45t138-45l102 102 48-47-106-106q32-56 32-134t-32-134l106-106-48-47-102 102q-54-45-138-45zm0 67q58 0 93 32t36 99v64q0 66-35 98t-94 33q-58 0-93-32t-36-99v-64q0-66 35-98t94-33z"/><glyph unicode="¥" glyph-name="yen" horiz-adv-x="605" d="M344 145V0h-83v145H85v67h176v96H85v67h136L34 698h94l175-315h5l170 315h93L384 375h136v-67H344v-96h176v-67H344z"/><glyph unicode="¦" glyph-name="brokenbar" horiz-adv-x="314" d="M123 406v354h68V406h-68zm0-544v354h68v-354h-68z"/><glyph unicode="§" glyph-name="section" horiz-adv-x="586" d="M475 4q0-37-14-66t-41-50-62-32-81-11q-45 0-88 13t-79 43l46 56q24-20 54-31t68-12q56 0 87 23t31 65q0 38-27 60t-77 37l-63 19q-81 24-117 63t-36 90q0 48 28 85t81 58v7q-33 22-53 54t-21 77q0 36 14 65t40 50 62 32 81 11q45 0 89-13t79-43l-47-56q-24 20-54 31t-68 12q-56 0-87-23t-31-65q0-38 27-60t77-37l63-19q81-24 117-63t37-90q0-48-28-85t-82-58v-6q36-23 55-55t20-76zm-44 259q0 42-28 68t-89 44l-62 17q-8 2-16 5t-16 6q-30-21-47-48t-18-63q0-42 28-68t88-44l62-17q8-2 16-5t16-6q30 22 48 49t18 62z"/><glyph unicode="¨" glyph-name="dieresis" horiz-adv-x="600" d="M207 618q-26 0-37 12t-12 34v11q0 21 11 33t38 13q26 0 37-12t12-34v-11q0-21-11-33t-38-13zm186 0q-26 0-37 12t-12 34v11q0 21 11 33t38 13q26 0 37-12t12-34v-11q0-21-11-33t-38-13z"/><glyph unicode="©" glyph-name="copyright" horiz-adv-x="776" d="M388-11q-70 0-131 25T151 85 80 199 54 349q0 83 26 150t71 113 106 72 131 25q70 0 131-25t106-71 71-114 26-150q0-83-26-150T625 86 519 14 388-11zm0 60q58 0 107 20t84 57 55 85 20 108v60q0 58-19 107t-55 86-85 56-107 21q-59 0-107-20t-84-57-55-85-20-108v-60q0-58 19-107t55-86 84-56 108-21zm8 106q-78 0-121 52t-44 142q0 89 43 141t122 53q51 0 83-24t50-63l-57-32q-11 26-29 41t-47 15q-44 0-66-27t-23-72v-65q0-44 22-71t67-28q32 0 51 16t34 44l54-34q-17-38-51-63t-88-25z"/><glyph unicode="ª" glyph-name="ordfeminine" horiz-adv-x="399" d="M360 350h-34q-29 0-45 13t-17 40h-4q-11-23-38-41t-73-18q-53 0-81 27t-28 71q0 54 38 79t111 25h71v28q0 78-75 78-34 0-57-14t-34-38l-42 34q15 26 48 48t88 22q63 0 99-33t36-94V406h37v-56zM187 500q-41 0-62-12t-22-35v-10q0-48 60-48 19 0 36 4t31 13 22 20 8 27v41h-73z"/><glyph unicode="«" glyph-name="guillemotleft" horiz-adv-x="513" d="M228 80L36 246v76l192 166 24-54-137-150 137-150-24-54zm209 0L245 246v76l192 166 24-54-137-150 137-150-24-54z"/><glyph unicode="¬" glyph-name="logicalnot" horiz-adv-x="600" d="M464 78v193H67v68h466V78h-69z"/><glyph unicode="­" glyph-name="uni00AD" horiz-adv-x="399" d="M69 261v86h261v-86H69z"/><glyph unicode="®" glyph-name="registered" horiz-adv-x="476" d="M238 298q-41 0-77 15t-63 44-42 65-16 82q0 44 15 81t43 66 63 43 77 16q40 0 76-15t63-44 43-65 16-82q0-44-16-81t-43-66-63-43-76-16zm0 40q34 0 62 13t49 34 32 50 12 58v22q0 30-11 58t-32 49-49 35-63 13q-34 0-62-13t-49-34-32-50-12-58v-22q0-30 11-58t32-49 49-35 63-13zm-35 58h-40v209h90q30 0 47-17t17-46q0-24-11-39t-28-22l49-85h-45l-44 80h-35v-80zm48 112q23 0 23 21v22q0 21-23 21h-48v-64h48z"/><glyph unicode="¯" glyph-name="overscore" horiz-adv-x="600" d="M160 705h280v-68H160v68z"/><glyph unicode="°" glyph-name="degree" horiz-adv-x="468" d="M234 366q-36 0-66 13t-53 36-36 54-13 69q0 37 13 68t35 55 53 36 67 13q36 0 66-13t53-36 36-54 13-69q0-37-13-68t-35-55-53-36-67-13zm0 64q45 0 71 31t27 77q0 45-26 76t-72 32q-45 0-71-31t-27-77q0-45 26-76t72-32z"/><glyph unicode="±" glyph-name="plusminus" horiz-adv-x="600" d="M262 152v199H67v68h195v199h76V419h195v-68H338V152h-76zM67 0v68h466V0H67z"/><glyph unicode="²" glyph-name="twosuperior" horiz-adv-x="346" d="M311 329H39v57l130 105q29 24 45 47t17 51v6q0 26-16 41t-49 16q-35 0-52-17t-26-41l-54 20q6 18 16 34t27 28 40 20 53 8q62 0 95-30t33-79q0-44-26-76t-69-65l-97-75h205v-50z"/><glyph unicode="³" glyph-name="threesuperior" horiz-adv-x="346" d="M155 546q38 0 56 14t19 38v4q0 25-17 38t-48 14q-29 0-49-12t-34-33l-43 34q17 25 47 43t81 18q57 0 93-25t37-70q0-36-23-57t-55-28v-3q34-6 59-28t25-62q0-49-38-78t-105-30q-55 0-86 20t-50 46l47 34q14-22 34-36t55-14q38 0 57 16t20 45v6q0 55-77 55h-45v51h40z"/><glyph unicode="´" glyph-name="acute" horiz-adv-x="600" d="M307 585l-52 24 85 170 73-35-106-159z"/><glyph unicode="µ" glyph-name="mu" horiz-adv-x="573" d="M85-200v716h80V199q0-69 30-104t87-35q24 0 46 6t41 18 28 31 11 45v356h80V0h-80v84h-4q-8-18-19-35t-29-31-40-22-54-8q-73 0-101 52h-3l7-85v-155H85z"/><glyph unicode="¶" glyph-name="paragraph" horiz-adv-x="652" d="M246 300q-41 0-76 16t-61 43-42 63-15 77q0 40 15 76t41 64 62 43 76 16h324v-68h-67v-779h-73v779H319v-779h-73v449z"/><glyph unicode="·" glyph-name="middot" horiz-adv-x="326" d="M163 240q-32 0-46 16t-15 42v13q0 26 14 42t47 16q32 0 46-16t15-42v-13q0-26-14-42t-47-16z"/><glyph unicode="¸" glyph-name="cedilla" horiz-adv-x="600" d="M312-207q-41 0-64 13t-35 28l38 41q9-11 24-19t37-9q19 0 31 7t13 24q0 14-13 24t-55 17l-28 4 19 97h50l-16-81 3-3q19 6 39 6 29 0 48-17t20-49q0-21-9-37t-24-26-36-15-42-5z"/><glyph unicode="¹" glyph-name="onesuperior" horiz-adv-x="359" d="M55 329v50h109v268h-6l-90-89-36 37 102 103h93V379h98v-50H55z"/><glyph unicode="º" glyph-name="ordmasculine" horiz-adv-x="398" d="M199 344q-73 0-114 47T44 524q0 85 41 132t114 48q73 0 114-47t41-133q0-85-41-132t-114-48zm0 52q44 0 65 27t22 70v62q0 43-21 70t-66 27q-44 0-65-27t-22-70v-62q0-43 21-70t66-27z"/><glyph unicode="»" glyph-name="guillemotright" horiz-adv-x="513" d="M52 134l137 150L52 434l24 54 192-166v-76L76 80l-24 54zm209 0l137 150-137 150 24 54 192-166v-76L285 80l-24 54z"/><glyph unicode="¼" glyph-name="onequarter" horiz-adv-x="847" d="M55 329v50h109v268h-6l-90-89-36 37 102 103h93V379h98v-50H55zM171 0l486 698h67L238 0h-67zm539 0v72H521v52l164 245h85V120h56V72h-56V0h-60zm0 312h-4L576 120h134v192z"/><glyph unicode="½" glyph-name="onehalf" horiz-adv-x="872" d="M55 329v50h109v268h-6l-90-89-36 37 102 103h93V379h98v-50H55zM171 0l486 698h67L238 0h-67zm666 0H565v57l130 105q29 24 45 48t17 50v6q0 26-16 41t-49 16q-35 0-52-17t-26-41l-54 20q6 18 16 34t27 28 40 20 53 8q62 0 95-30t33-79q0-44-26-76t-69-65l-97-75h205V0z"/><glyph unicode="¾" glyph-name="threequarters" horiz-adv-x="824" d="M155 546q38 0 56 14t19 38v4q0 25-17 38t-48 14q-29 0-49-12t-34-33l-43 34q17 25 47 43t81 18q57 0 93-25t37-70q0-36-23-57t-55-28v-3q34-6 59-28t25-62q0-49-38-78t-105-30q-55 0-86 20t-50 46l47 34q14-22 34-36t55-14q38 0 57 16t20 45v6q0 55-77 55h-45v51h40zM148 0l486 698h67L215 0h-67zm539 0v72H498v52l164 245h85V120h56V72h-56V0h-60zm0 312h-4L553 120h134v192z"/><glyph unicode="¿" glyph-name="questiondown" horiz-adv-x="467" d="M238-194q-93 0-147 51T37-5q0 48 16 83t43 61 59 40 66 21v108h77V144q-82-4-128-40T123 5V-9q0-51 32-81t86-31q58 0 92 33t47 84l74-28q-9-32-26-61t-44-52-63-36-83-13zm24 593q-32 0-46 16t-15 42v13q0 26 14 42t47 16q32 0 46-16t15-42v-13q0-26-14-42t-47-16z"/><glyph unicode="À" glyph-name="Agrave" horiz-adv-x="641" d="M530 0l-70 206H178L108 0H23l244 698h107L618 0h-88zM321 620h-5L198 280h241L321 620zM209 914l73 35 85-170-52-24-106 159z"/><glyph unicode="Á" glyph-name="Aacute" horiz-adv-x="641" d="M530 0l-70 206H178L108 0H23l244 698h107L618 0h-88zM321 620h-5L198 280h241L321 620zm8 135l-52 24 85 170 73-35-106-159z"/><glyph unicode="Â" glyph-name="Acircumflex" horiz-adv-x="641" d="M530 0l-70 206H178L108 0H23l244 698h107L618 0h-88zM321 620h-5L198 280h241L321 620zm51 315l111-143-44-31-117 117-117-117-44 31 111 143h100z"/><glyph unicode="Ã" glyph-name="Atilde" horiz-adv-x="641" d="M530 0l-70 206H178L108 0H23l244 698h107L618 0h-88zM321 620h-5L198 280h241L321 620zm74 162q-26 0-45 9t-35 17q-24 13-40 18t-30 6q-17 0-30-7t-28-20l-33 40q14 20 37 36t58 17q26 0 45-9t35-17q24-13 40-18t30-6q17 0 30 7t28 20l33-40q-14-20-37-36t-58-17z"/><glyph unicode="Ä" glyph-name="Adieresis" horiz-adv-x="641" d="M530 0l-70 206H178L108 0H23l244 698h107L618 0h-88zM321 620h-5L198 280h241L321 620zm-92 168q-26 0-38 13t-12 34v12q0 21 12 34t38 13q26 0 38-13t12-34v-12q0-21-12-34t-38-13zm186 0q-26 0-38 13t-12 34v12q0 21 12 34t38 13q26 0 38-13t12-34v-12q0-21-12-34t-38-13z"/><glyph unicode="Å" glyph-name="Aring" horiz-adv-x="641" d="M530 0l-70 206H178L108 0H23l244 698h107L618 0h-88zM321 620h-5L198 280h241L321 620zm1 126q-24 0-45 8t-37 24-25 37-9 46q0 25 9 46t24 36 37 24 46 9q24 0 45-8t37-24 25-37 9-46q0-25-9-46t-24-36-37-24-46-9zm0 49q27 0 42 14t16 41v22q0 26-15 40t-43 15q-27 0-42-14t-16-41v-22q0-26 15-40t43-15z"/><glyph unicode="Æ" glyph-name="AE" horiz-adv-x="907" d="M417 205H192L90 0H4l357 698h482v-74H500V390h323v-74H500V74h343V0H417v205zm-13 419L227 279h190v345h-13z"/><glyph unicode="Ç" glyph-name="Ccedilla" horiz-adv-x="621" d="M339 635q-45 0-80-17t-60-48-38-75-13-98V293q0-108 50-169t141-61q67 0 112 34t66 92l67-42q-31-69-87-111T361-11l-10-50 3-3q19 6 39 6 29 0 48-17t20-49q0-21-9-37t-24-26-36-15-42-5q-41 0-64 13t-35 28l38 41q9-11 24-19t37-9q19 0 31 7t13 24q0 14-13 24t-55 17l-28 4 13 66Q191-2 125 88T58 345q0 176 74 270t207 95q88 0 147-40t93-113l-68-41q-21 54-64 86t-108 33z"/><glyph unicode="È" glyph-name="Egrave" horiz-adv-x="583" d="M93 0v698h426v-74H177V390h322v-74H177V74h342V0H93zm98 914l73 35 85-170-52-24-106 159z"/><glyph unicode="É" glyph-name="Eacute" horiz-adv-x="583" d="M93 0v698h426v-74H177V390h322v-74H177V74h342V0H93zm218 755l-52 24 85 170 73-35-106-159z"/><glyph unicode="Ê" glyph-name="Ecircumflex" horiz-adv-x="583" d="M93 0v698h426v-74H177V390h322v-74H177V74h342V0H93zm261 935l111-143-44-31-117 117-117-117-44 31 111 143h100z"/><glyph unicode="Ë" glyph-name="Edieresis" horiz-adv-x="583" d="M93 0v698h426v-74H177V390h322v-74H177V74h342V0H93zm118 788q-26 0-38 13t-12 34v12q0 21 12 34t38 13q26 0 38-13t12-34v-12q0-21-12-34t-38-13zm186 0q-26 0-38 13t-12 34v12q0 21 12 34t38 13q26 0 38-13t12-34v-12q0-21-12-34t-38-13z"/><glyph unicode="Ì" glyph-name="Igrave" horiz-adv-x="400" d="M60 0v70h98v558H60v70h280v-70h-98V70h98V0H60zm284 914l73 35 85-170-52-24-106 159z"/><glyph unicode="Í" glyph-name="Iacute" horiz-adv-x="400" d="M60 0v70h98v558H60v70h280v-70h-98V70h98V0H60zm404 755l-52 24 85 170 73-35-106-159z"/><glyph unicode="Î" glyph-name="Icircumflex" horiz-adv-x="400" d="M60 0v70h98v558H60v70h280v-70h-98V70h98V0H60zm447 935l111-143-44-31-117 117-117-117-44 31 111 143h100z"/><glyph unicode="Ï" glyph-name="Idieresis" horiz-adv-x="400" d="M60 0v70h98v558H60v70h280v-70h-98V70h98V0H60zm304 788q-26 0-38 13t-12 34v12q0 21 12 34t38 13q26 0 38-13t12-34v-12q0-21-12-34t-38-13zm186 0q-26 0-38 13t-12 34v12q0 21 12 34t38 13q26 0 38-13t12-34v-12q0-21-12-34t-38-13z"/><glyph unicode="Ð" glyph-name="Eth" horiz-adv-x="674" d="M96 337H17v64h79v297h234q65 0 118-22t90-65 58-109 20-153q0-87-20-152T539 88t-91-66T330 0H96v337zM330 74q43 0 79 14t62 43 40 68 15 93v114q0 52-14 92t-41 69-62 42-79 15H180V401h137v-64H180V74h150z"/><glyph unicode="Ñ" glyph-name="Ntilde" horiz-adv-x="707" d="M262 426l-84 155h-3V0H93v698h97l255-426 84-155h3v581h82V0h-97L262 426zm164 356q-26 0-45 9t-35 17q-24 13-40 18t-30 6q-17 0-30-7t-28-20l-33 40q14 20 37 36t58 17q26 0 45-9t35-17q24-13 40-18t30-6q17 0 30 7t28 20l33-40q-14-20-37-36t-58-17z"/><glyph unicode="Ò" glyph-name="Ograve" horiz-adv-x="708" d="M354-12q-68 0-122 23t-93 69-60 113-21 156q0 88 21 155t59 113 93 69 123 24q67 0 122-23t93-70 60-113 21-155q0-88-21-155T570 81t-94-69-122-24zm0 75q45 0 83 16t65 46 43 72 15 94v116q0 52-15 94t-42 72-66 46-83 16q-45 0-83-16t-65-46-43-72-15-94V291q0-52 15-94t42-72 66-46 83-16zM241 914l73 35 85-170-52-24-106 159z"/><glyph unicode="Ó" glyph-name="Oacute" horiz-adv-x="708" d="M354-12q-68 0-122 23t-93 69-60 113-21 156q0 88 21 155t59 113 93 69 123 24q67 0 122-23t93-70 60-113 21-155q0-88-21-155T570 81t-94-69-122-24zm0 75q45 0 83 16t65 46 43 72 15 94v116q0 52-15 94t-42 72-66 46-83 16q-45 0-83-16t-65-46-43-72-15-94V291q0-52 15-94t42-72 66-46 83-16zm7 692l-52 24 85 170 73-35-106-159z"/><glyph unicode="Ô" glyph-name="Ocircumflex" horiz-adv-x="708" d="M354-12q-68 0-122 23t-93 69-60 113-21 156q0 88 21 155t59 113 93 69 123 24q67 0 122-23t93-70 60-113 21-155q0-88-21-155T570 81t-94-69-122-24zm0 75q45 0 83 16t65 46 43 72 15 94v116q0 52-15 94t-42 72-66 46-83 16q-45 0-83-16t-65-46-43-72-15-94V291q0-52 15-94t42-72 66-46 83-16zm50 872l111-143-44-31-117 117-117-117-44 31 111 143h100z"/><glyph unicode="Õ" glyph-name="Otilde" horiz-adv-x="708" d="M354-12q-68 0-122 23t-93 69-60 113-21 156q0 88 21 155t59 113 93 69 123 24q67 0 122-23t93-70 60-113 21-155q0-88-21-155T570 81t-94-69-122-24zm0 75q45 0 83 16t65 46 43 72 15 94v116q0 52-15 94t-42 72-66 46-83 16q-45 0-83-16t-65-46-43-72-15-94V291q0-52 15-94t42-72 66-46 83-16zm73 719q-26 0-45 9t-35 17q-24 13-40 18t-30 6q-17 0-30-7t-28-20l-33 40q14 20 37 36t58 17q26 0 45-9t35-17q24-13 40-18t30-6q17 0 30 7t28 20l33-40q-14-20-37-36t-58-17z"/><glyph unicode="Ö" glyph-name="Odieresis" horiz-adv-x="708" d="M354-12q-68 0-122 23t-93 69-60 113-21 156q0 88 21 155t59 113 93 69 123 24q67 0 122-23t93-70 60-113 21-155q0-88-21-155T570 81t-94-69-122-24zm0 75q45 0 83 16t65 46 43 72 15 94v116q0 52-15 94t-42 72-66 46-83 16q-45 0-83-16t-65-46-43-72-15-94V291q0-52 15-94t42-72 66-46 83-16zm-93 725q-26 0-38 13t-12 34v12q0 21 12 34t38 13q26 0 38-13t12-34v-12q0-21-12-34t-38-13zm186 0q-26 0-38 13t-12 34v12q0 21 12 34t38 13q26 0 38-13t12-34v-12q0-21-12-34t-38-13z"/><glyph unicode="×" glyph-name="multiply" horiz-adv-x="600" d="M300 256L141 93l-49 49 159 163L92 468l49 49 159-163 159 163 49-49-159-163 159-163-49-49-159 163z"/><glyph unicode="Ø" glyph-name="Oslash" horiz-adv-x="708" d="M354-12q-102 0-173 53l-60-86L64-8l68 97q-36 46-55 110T58 349q0 88 21 155t59 113 93 69 123 24q102 0 173-53l60 86 57-37-68-97q36-46 55-110t19-150q0-88-21-155T570 81t-94-69-122-24zM148 291q0-38 8-71t24-60l302 432q-52 43-128 43-45 0-83-16t-65-46-43-72-15-94V291zm412 116q0 38-8 71t-24 60L226 106q52-43 128-43 45 0 83 16t65 46 43 72 15 94v116z"/><glyph unicode="Ù" glyph-name="Ugrave" horiz-adv-x="678" d="M172 698V266q0-100 37-151t130-52q93 0 130 51t37 152v432h84V286q0-76-13-132t-44-93-78-55-119-18q-70 0-117 18t-77 55-41 93-13 132v412h84zm52 216l73 35 85-170-52-24-106 159z"/><glyph unicode="Ú" glyph-name="Uacute" horiz-adv-x="678" d="M172 698V266q0-100 37-151t130-52q93 0 130 51t37 152v432h84V286q0-76-13-132t-44-93-78-55-119-18q-70 0-117 18t-77 55-41 93-13 132v412h84zm172 57l-52 24 85 170 73-35-106-159z"/><glyph unicode="Û" glyph-name="Ucircumflex" horiz-adv-x="678" d="M172 698V266q0-100 37-151t130-52q93 0 130 51t37 152v432h84V286q0-76-13-132t-44-93-78-55-119-18q-70 0-117 18t-77 55-41 93-13 132v412h84zm215 237l111-143-44-31-117 117-117-117-44 31 111 143h100z"/><glyph unicode="Ü" glyph-name="Udieresis" horiz-adv-x="678" d="M172 698V266q0-100 37-151t130-52q93 0 130 51t37 152v432h84V286q0-76-13-132t-44-93-78-55-119-18q-70 0-117 18t-77 55-41 93-13 132v412h84zm72 90q-26 0-38 13t-12 34v12q0 21 12 34t38 13q26 0 38-13t12-34v-12q0-21-12-34t-38-13zm186 0q-26 0-38 13t-12 34v12q0 21 12 34t38 13q26 0 38-13t12-34v-12q0-21-12-34t-38-13z"/><glyph unicode="Ý" glyph-name="Yacute" horiz-adv-x="593" d="M253 0v276L13 698h96l186-336h3l186 336h96L337 279V0h-84zm308 755l-52 24 85 170 73-35-106-159z"/><glyph unicode="Þ" glyph-name="Thorn" horiz-adv-x="606" d="M93 0v698h84V554h194q94 0 144-54t51-146q0-92-50-146t-145-54H177V0H93zm84 229h194q50 0 77 26t28 74v50q0 48-27 74t-78 26H177V229z"/><glyph unicode="ß" glyph-name="germandbls" horiz-adv-x="640" d="M613 149q0-75-48-118T432-12q-60 0-103 22t-74 62l54 48q52-64 129-64 47 0 72 22t26 62q0 30-14 51t-56 30l-31 7q-31 7-57 17t-46 28-31 42-12 61q0 69 48 106t130 40v5q0 80-33 118t-105 39q-71 0-103-38t-33-119V0h-80v446H29v70h84v5q0 52 14 95t42 73 68 46 92 17q51 0 91-16t68-47 42-73 15-95v-61h-47q-63 0-97-18t-35-62q0-38 20-55t59-26l30-7q74-17 106-51t32-92z"/><glyph unicode="à" glyph-name="agrave" horiz-adv-x="534" d="M460 0q-45 0-64 24t-25 60h-5q-17-48-56-72t-93-24q-82 0-127 42T44 144q0 73 53 112t167 39h102v51q0 55-30 84t-92 29q-47 0-78-21t-53-56l-48 45q21 42 67 71t116 30q94 0 146-46t52-128V70h59V0h-45zM230 56q30 0 55 7t43 20 28 30 10 37v85H260q-69 0-100-20t-32-58v-21q0-38 27-59t75-21zm166 688l73 35 85-170-52-24-106 159z"/><glyph unicode="á" glyph-name="aacute" horiz-adv-x="534" d="M460 0q-45 0-64 24t-25 60h-5q-17-48-56-72t-93-24q-82 0-127 42T44 144q0 73 53 112t167 39h102v51q0 55-30 84t-92 29q-47 0-78-21t-53-56l-48 45q21 42 67 71t116 30q94 0 146-46t52-128V70h59V0h-45zM230 56q30 0 55 7t43 20 28 30 10 37v85H260q-69 0-100-20t-32-58v-21q0-38 27-59t75-21zm286 529l-52 24 85 170 73-35-106-159z"/><glyph unicode="â" glyph-name="acircumflex" horiz-adv-x="534" d="M460 0q-45 0-64 24t-25 60h-5q-17-48-56-72t-93-24q-82 0-127 42T44 144q0 73 53 112t167 39h102v51q0 55-30 84t-92 29q-47 0-78-21t-53-56l-48 45q21 42 67 71t116 30q94 0 146-46t52-128V70h59V0h-45zM230 56q30 0 55 7t43 20 28 30 10 37v85H260q-69 0-100-20t-32-58v-21q0-38 27-59t75-21zm329 709l111-143-44-31-117 117-117-117-44 31 111 143h100z"/><glyph unicode="ã" glyph-name="atilde" horiz-adv-x="534" d="M460 0q-45 0-64 24t-25 60h-5q-17-48-56-72t-93-24q-82 0-127 42T44 144q0 73 53 112t167 39h102v51q0 55-30 84t-92 29q-47 0-78-21t-53-56l-48 45q21 42 67 71t116 30q94 0 146-46t52-128V70h59V0h-45zM230 56q30 0 55 7t43 20 28 30 10 37v85H260q-69 0-100-20t-32-58v-21q0-38 27-59t75-21zm352 556q-26 0-45 9t-35 17q-24 13-40 18t-30 6q-17 0-30-7t-28-20l-33 40q14 20 37 36t58 17q26 0 45-9t35-17q24-13 40-18t30-6q17 0 30 7t28 20l33-40q-14-20-37-36t-58-17z"/><glyph unicode="ä" glyph-name="adieresis" horiz-adv-x="534" d="M460 0q-45 0-64 24t-25 60h-5q-17-48-56-72t-93-24q-82 0-127 42T44 144q0 73 53 112t167 39h102v51q0 55-30 84t-92 29q-47 0-78-21t-53-56l-48 45q21 42 67 71t116 30q94 0 146-46t52-128V70h59V0h-45zM230 56q30 0 55 7t43 20 28 30 10 37v85H260q-69 0-100-20t-32-58v-21q0-38 27-59t75-21zm186 562q-26 0-37 12t-12 34v11q0 21 11 33t38 13q26 0 37-12t12-34v-11q0-21-11-33t-38-13zm186 0q-26 0-37 12t-12 34v11q0 21 11 33t38 13q26 0 37-12t12-34v-11q0-21-11-33t-38-13z"/><glyph unicode="å" glyph-name="aring" horiz-adv-x="534" d="M460 0q-45 0-64 24t-25 60h-5q-17-48-56-72t-93-24q-82 0-127 42T44 144q0 73 53 112t167 39h102v51q0 55-30 84t-92 29q-47 0-78-21t-53-56l-48 45q21 42 67 71t116 30q94 0 146-46t52-128V70h59V0h-45zM230 56q30 0 55 7t43 20 28 30 10 37v85H260q-69 0-100-20t-32-58v-21q0-38 27-59t75-21zm279 520q-24 0-45 8t-37 24-25 37-9 46q0 25 9 46t24 36 37 24 46 9q24 0 45-8t37-24 25-37 9-46q0-25-9-46t-24-36-37-24-46-9zm0 49q27 0 42 14t16 41v22q0 26-15 40t-43 15q-27 0-42-14t-16-41v-22q0-26 15-40t43-15z"/><glyph unicode="æ" glyph-name="ae" horiz-adv-x="864" d="M260 238q-69-2-100-22t-32-59v-21q0-38 27-59t76-21q29 0 53 7t43 20 28 30 11 37v88H260zm471 60v11q0 69-37 110t-100 42q-33 0-60-11t-46-33-31-49-11-63v-7h285zM599 58q99 0 142 88l57-40q-25-54-76-86T603-12q-41 0-74 11t-58 29-40 38-19 38h-6q-3-17-17-37t-39-37-58-30-77-12q-78 0-124 41T44 142q0 75 55 115t165 41h102v48q0 55-30 84t-89 29q-50 0-81-20t-53-56l-48 44q20 41 66 71t118 30q44 0 73-12t48-30 28-38 13-35h6q4 17 19 37t39 37 56 29 72 12q49 0 88-19t68-52 43-80 15-101v-38H446v-24q0-33 10-61t30-50 48-33 65-12z"/><glyph unicode="ç" glyph-name="ccedilla" horiz-adv-x="503" d="M277 528q77 0 123-33t70-87l-67-35q-14 40-46 62t-80 22q-36 0-63-11t-45-32-27-49-9-63v-88q0-68 36-111t108-44q97 0 140 90l58-39q-23-51-67-83T299-11l-10-50 3-3q19 6 39 6 29 0 48-17t20-49q0-21-9-37t-24-26-36-15-42-5q-41 0-64 13t-35 28l38 41q9-11 24-19t37-9q19 0 31 7t13 24q0 14-13 24t-55 17l-28 4 13 66Q152-1 100 71T47 258q0 62 15 112t45 85 73 54 97 19z"/><glyph unicode="è" glyph-name="egrave" horiz-adv-x="549" d="M279-12q-53 0-95 19t-73 54-47 85-17 112q0 61 16 111t47 85 73 55 96 19q52 0 93-19t70-52 44-80 16-101v-38H131v-24q0-33 10-61t30-50 48-33 65-12q49 0 85 23t57 66l57-41q-25-53-78-85T279-12zm0 473q-33 0-60-11t-46-33-31-49-11-63v-7h285v11q0 69-37 110t-100 42zm144 283l73 35 85-170-52-24-106 159z"/><glyph unicode="é" glyph-name="eacute" horiz-adv-x="549" d="M279-12q-53 0-95 19t-73 54-47 85-17 112q0 61 16 111t47 85 73 55 96 19q52 0 93-19t70-52 44-80 16-101v-38H131v-24q0-33 10-61t30-50 48-33 65-12q49 0 85 23t57 66l57-41q-25-53-78-85T279-12zm0 473q-33 0-60-11t-46-33-31-49-11-63v-7h285v11q0 69-37 110t-100 42zm264 124l-52 24 85 170 73-35-106-159z"/><glyph unicode="ê" glyph-name="ecircumflex" horiz-adv-x="549" d="M279-12q-53 0-95 19t-73 54-47 85-17 112q0 61 16 111t47 85 73 55 96 19q52 0 93-19t70-52 44-80 16-101v-38H131v-24q0-33 10-61t30-50 48-33 65-12q49 0 85 23t57 66l57-41q-25-53-78-85T279-12zm0 473q-33 0-60-11t-46-33-31-49-11-63v-7h285v11q0 69-37 110t-100 42zm307 304l111-143-44-31-117 117-117-117-44 31 111 143h100z"/><glyph unicode="ë" glyph-name="edieresis" horiz-adv-x="549" d="M279-12q-53 0-95 19t-73 54-47 85-17 112q0 61 16 111t47 85 73 55 96 19q52 0 93-19t70-52 44-80 16-101v-38H131v-24q0-33 10-61t30-50 48-33 65-12q49 0 85 23t57 66l57-41q-25-53-78-85T279-12zm0 473q-33 0-60-11t-46-33-31-49-11-63v-7h285v11q0 69-37 110t-100 42zm164 157q-26 0-37 12t-12 34v11q0 21 11 33t38 13q26 0 37-12t12-34v-11q0-21-11-33t-38-13zm186 0q-26 0-37 12t-12 34v11q0 21 11 33t38 13q26 0 37-12t12-34v-11q0-21-11-33t-38-13z"/><glyph unicode="ì" glyph-name="igrave" horiz-adv-x="250" d="M85 0v516h80V0H85zM13 744l73 35 85-170-52-24L13 744z"/><glyph unicode="í" glyph-name="iacute" horiz-adv-x="250" d="M85 0v516h80V0H85zm48 585l-52 24 85 170 73-35-106-159z"/><glyph unicode="î" glyph-name="icircumflex" horiz-adv-x="250" d="M85 0v516h80V0H85zm91 765l111-143-44-31-117 117L9 591l-44 31L76 765h100z"/><glyph unicode="ï" glyph-name="idieresis" horiz-adv-x="250" d="M85 0v516h80V0H85zM33 618q-26 0-37 12t-12 34v11q0 21 11 33t38 13q26 0 37-12t12-34v-11q0-21-11-33t-38-13zm186 0q-26 0-37 12t-12 34v11q0 21 11 33t38 13q26 0 37-12t12-34v-11q0-21-11-33t-38-13z"/><glyph unicode="ð" glyph-name="eth" horiz-adv-x="555" d="M418 712l-78-56q31-31 61-70t53-87 37-105 14-123q0-70-17-123t-47-88-73-54-92-18q-53 0-95 19t-72 53-46 81-16 105q0 57 16 104t45 82 72 53 96 19q49 0 82-26t48-72l4 2q-11 57-45 109t-83 98l-79-56-31 41 70 50q-32 26-65 48t-66 42h123q15-9 32-21t34-27l85 61 33-41zM276 57q65 0 104 42t39 114v66q0 72-39 114t-104 42q-65 0-104-42t-39-114v-66q0-72 39-114t104-42z"/><glyph unicode="ñ" glyph-name="ntilde" horiz-adv-x="568" d="M85 0v516h80v-84h4q19 44 53 70t93 26q80 0 126-51t47-146V0h-80v317q0 139-117 139-24 0-46-6t-41-18-28-30-11-44V0H85zm533 612q-26 0-45 9t-35 17q-24 13-40 18t-30 6q-17 0-30-7t-28-20l-33 40q14 20 37 36t58 17q26 0 45-9t35-17q24-13 40-18t30-6q17 0 30 7t28 20l33-40q-14-20-37-36t-58-17z"/><glyph unicode="ò" glyph-name="ograve" horiz-adv-x="560" d="M280-12q-52 0-95 19t-73 54-48 85-17 112q0 61 17 111t47 85 74 55 95 19q52 0 94-19t74-54 48-86 17-111q0-62-17-111t-48-85-73-55-95-19zm0 71q65 0 106 40t41 122v74q0 82-41 122t-106 40q-65 0-106-40t-41-122v-74q0-82 41-122t106-40zm144 685l73 35 85-170-52-24-106 159z"/><glyph unicode="ó" glyph-name="oacute" horiz-adv-x="560" d="M280-12q-52 0-95 19t-73 54-48 85-17 112q0 61 17 111t47 85 74 55 95 19q52 0 94-19t74-54 48-86 17-111q0-62-17-111t-48-85-73-55-95-19zm0 71q65 0 106 40t41 122v74q0 82-41 122t-106 40q-65 0-106-40t-41-122v-74q0-82 41-122t106-40zm264 526l-52 24 85 170 73-35-106-159z"/><glyph unicode="ô" glyph-name="ocircumflex" horiz-adv-x="560" d="M280-12q-52 0-95 19t-73 54-48 85-17 112q0 61 17 111t47 85 74 55 95 19q52 0 94-19t74-54 48-86 17-111q0-62-17-111t-48-85-73-55-95-19zm0 71q65 0 106 40t41 122v74q0 82-41 122t-106 40q-65 0-106-40t-41-122v-74q0-82 41-122t106-40zm307 706l111-143-44-31-117 117-117-117-44 31 111 143h100z"/><glyph unicode="õ" glyph-name="otilde" horiz-adv-x="560" d="M280-12q-52 0-95 19t-73 54-48 85-17 112q0 61 17 111t47 85 74 55 95 19q52 0 94-19t74-54 48-86 17-111q0-62-17-111t-48-85-73-55-95-19zm0 71q65 0 106 40t41 122v74q0 82-41 122t-106 40q-65 0-106-40t-41-122v-74q0-82 41-122t106-40zm330 553q-26 0-45 9t-35 17q-24 13-40 18t-30 6q-17 0-30-7t-28-20l-33 40q14 20 37 36t58 17q26 0 45-9t35-17q24-13 40-18t30-6q17 0 30 7t28 20l33-40q-14-20-37-36t-58-17z"/><glyph unicode="ö" glyph-name="odieresis" horiz-adv-x="560" d="M280-12q-52 0-95 19t-73 54-48 85-17 112q0 61 17 111t47 85 74 55 95 19q52 0 94-19t74-54 48-86 17-111q0-62-17-111t-48-85-73-55-95-19zm0 71q65 0 106 40t41 122v74q0 82-41 122t-106 40q-65 0-106-40t-41-122v-74q0-82 41-122t106-40zm164 559q-26 0-37 12t-12 34v11q0 21 11 33t38 13q26 0 37-12t12-34v-11q0-21-11-33t-38-13zm186 0q-26 0-37 12t-12 34v11q0 21 11 33t38 13q26 0 37-12t12-34v-11q0-21-11-33t-38-13z"/><glyph unicode="÷" glyph-name="divide" horiz-adv-x="600" d="M67 271v68h466v-68H67zM300 52q-35 0-48 14t-14 34v22q0 20 13 34t49 14q35 0 48-14t14-34v-22q0-20-13-34t-49-14zm0 388q-35 0-48 14t-14 34v22q0 20 13 34t49 14q35 0 48-14t14-34v-22q0-20-13-34t-49-14z"/><glyph unicode="ø" glyph-name="oslash" horiz-adv-x="568" d="M35-6l67 84q-51 71-51 180 0 61 17 111t47 85 74 55 95 19q42 0 77-13t65-36l62 77 45-34-67-85q24-34 37-79t14-100q0-62-17-111t-48-85-73-55-95-19q-83 0-142 48L80-40 35-6zm249 65q65 0 106 40t41 122v74q0 24-4 44t-11 37L186 92q37-33 98-33zM137 221q0-48 15-82l230 285q-39 33-98 33-65 0-106-40t-41-122v-74z"/><glyph unicode="ù" glyph-name="ugrave" horiz-adv-x="568" d="M403 84h-4q-8-18-19-35t-29-31-41-22-56-8q-80 0-127 51T80 185v331h80V199q0-139 118-139 24 0 46 6t40 18 28 30 11 45v357h80V0h-80v84zm23 660l73 35 85-170-52-24-106 159z"/><glyph unicode="ú" glyph-name="uacute" horiz-adv-x="568" d="M403 84h-4q-8-18-19-35t-29-31-41-22-56-8q-80 0-127 51T80 185v331h80V199q0-139 118-139 24 0 46 6t40 18 28 30 11 45v357h80V0h-80v84zm143 501l-52 24 85 170 73-35-106-159z"/><glyph unicode="û" glyph-name="ucircumflex" horiz-adv-x="568" d="M403 84h-4q-8-18-19-35t-29-31-41-22-56-8q-80 0-127 51T80 185v331h80V199q0-139 118-139 24 0 46 6t40 18 28 30 11 45v357h80V0h-80v84zm186 681l111-143-44-31-117 117-117-117-44 31 111 143h100z"/><glyph unicode="ü" glyph-name="udieresis" horiz-adv-x="568" d="M403 84h-4q-8-18-19-35t-29-31-41-22-56-8q-80 0-127 51T80 185v331h80V199q0-139 118-139 24 0 46 6t40 18 28 30 11 45v357h80V0h-80v84zm43 534q-26 0-37 12t-12 34v11q0 21 11 33t38 13q26 0 37-12t12-34v-11q0-21-11-33t-38-13zm186 0q-26 0-37 12t-12 34v11q0 21 11 33t38 13q26 0 37-12t12-34v-11q0-21-11-33t-38-13z"/><glyph unicode="ý" glyph-name="yacute" horiz-adv-x="499" d="M403 516h79L251-120q-9-23-18-38t-22-25-32-13-48-4H90v70h81l39 110L17 516h80l124-351 24-84h5l28 84 125 351zm111 69l-52 24 85 170 73-35-106-159z"/><glyph unicode="þ" glyph-name="thorn" horiz-adv-x="580" d="M85 740h80V432h4q20 49 58 72t93 24q48 0 87-19t66-54 42-85 15-112q0-62-14-112t-42-85-67-54-87-19q-105 0-151 96h-4v-284H85v940zM298 60q68 0 107 42t39 112v88q0 69-39 111t-107 43q-27 0-51-7t-43-21-28-31-11-40V165q0-25 10-44t29-33 42-21 52-7z"/><glyph unicode="ÿ" glyph-name="ydieresis" horiz-adv-x="499" d="M403 516h79L251-120q-9-23-18-38t-22-25-32-13-48-4H90v70h81l39 110L17 516h80l124-351 24-84h5l28 84 125 351zm11 102q-26 0-37 12t-12 34v11q0 21 11 33t38 13q26 0 37-12t12-34v-11q0-21-11-33t-38-13zm186 0q-26 0-37 12t-12 34v11q0 21 11 33t38 13q26 0 37-12t12-34v-11q0-21-11-33t-38-13z"/><glyph unicode="–" glyph-name="endash" horiz-adv-x="588" d="M36 266v76h516v-76H36z"/><glyph unicode="—" glyph-name="emdash" horiz-adv-x="780" d="M36 266v76h708v-76H36z"/><glyph unicode="‘" glyph-name="quoteleft" horiz-adv-x="273" d="M132 490q-32 0-46 16t-15 43v14q0 41 24 90t67 87h67q-30-32-48-60t-27-64q20-5 29-19t10-34v-14q0-26-14-42t-47-17z"/><glyph unicode="’" glyph-name="quoteright" horiz-adv-x="273" d="M141 750q32 0 46-16t15-43v-14q0-41-24-90t-67-87H44q30 32 48 60t27 64q-20 5-29 19t-10 34v14q0 26 14 42t47 17z"/><glyph unicode="‚" glyph-name="quotesinglbase" horiz-adv-x="274" d="M132 134q32 0 46-16t15-43V61q0-41-24-90t-67-87H35q30 32 48 60t27 64q-20 5-29 19T71 61v14q0 26 14 42t47 17z"/><glyph unicode="“" glyph-name="quotedblleft" horiz-adv-x="475" d="M132 490q-32 0-46 16t-15 43v14q0 41 24 90t67 87h67q-30-32-48-60t-27-64q20-5 29-19t10-34v-14q0-26-14-42t-47-17zm202 0q-32 0-46 16t-15 43v14q0 41 24 90t67 87h67q-30-32-48-60t-27-64q20-5 29-19t10-34v-14q0-26-14-42t-47-17z"/><glyph unicode="”" glyph-name="quotedblright" horiz-adv-x="474" d="M141 750q32 0 46-16t15-43v-14q0-41-24-90t-67-87H44q30 32 48 60t27 64q-20 5-29 19t-10 34v14q0 26 14 42t47 17zm201 0q32 0 46-16t15-43v-14q0-41-24-90t-67-87h-67q30 32 48 60t27 64q-20 5-29 19t-10 34v14q0 26 14 42t47 17z"/><glyph unicode="„" glyph-name="quotedblbase" horiz-adv-x="475" d="M132 134q32 0 46-16t15-43V61q0-41-24-90t-67-87H35q30 32 48 60t27 64q-20 5-29 19T71 61v14q0 26 14 42t47 17zm201 0q32 0 46-16t15-43V61q0-41-24-90t-67-87h-67q30 32 48 60t27 64q-20 5-29 19t-10 34v14q0 26 14 42t47 17z"/><glyph unicode="•" glyph-name="bullet" horiz-adv-x="396" d="M198 186q-67 0-94 30t-28 74v28q0 44 27 74t95 30q67 0 94-30t28-74v-28q0-44-27-74t-95-30z"/><glyph unicode="‹" glyph-name="guilsinglleft" horiz-adv-x="304" d="M228 80L36 246v76l192 166 24-54-137-150 137-150-24-54z"/><glyph unicode="›" glyph-name="guilsinglright" horiz-adv-x="304" d="M52 134l137 150L52 434l24 54 192-166v-76L76 80l-24 54z"/></font>
</defs>
</svg>
