<svg><defs><font id="TiemposHeadline" horiz-adv-x="500"><font-face font-family="Tiempos Headline Black" font-weight="900" panose-1="2 2 10 3 6 3 3 6 4 3" ascent="800" descent="-200" x-height="543" cap-height="702" bbox="-109 -250 1361 1050" underline-thickness="30" underline-position="-70" unicode-range="U+000D-FB04"/><glyph glyph-name="ff" unicode="ff" horiz-adv-x="734" d="M76 548v7q0 119 73 167.5T320 771q49 0 89-12.5t71-39.5q34 33 83 48.5T666 783q86 0 126-27.5t40-75.5q0-22-11-39.5T793 615H690q2 10 3.5 23t1.5 26q0 26-5.5 48T662 734q-21 0-29.5-16t-8.5-44V543h114v-57H624V97q0-33 18-41t60-14V0H368v42q28 2 39 8t11 28v408H282V78q0-22 11-28t39-8V0H23v42q28 2 40.5 8T76 78v408H5v45zm342 8q0 24 3.5 45.5T431 642q-8 34-30 58t-60 24q-31 0-45-24t-14-70v-87h136v13z"/><glyph glyph-name="fi" unicode="fi" horiz-adv-x="693" d="M624 553V78q0-22 12.5-28t40.5-8V0H368v42q28 2 39 8t11 28v408H282V78q0-22 11-28t39-8V0H23v42q28 2 40.5 8T76 78v408H5v45l71 17v8q0 119 82 173t193 54q96 0 144-27.5t48-75.5q0-22-11-39.5T504 615H387q2 10 3.5 23t1.5 26q0 26-10 49t-40 23q-31 0-45.5-27T282 628v-85h259l37 10h46z"/><glyph glyph-name="fl" unicode="fl" horiz-adv-x="693" d="M624 783V78q0-22 12.5-28t40.5-8V0H368v42q28 2 39 8t11 28v591q-10 27-28.5 47T340 736q-30 0-44-22.5T282 642v-99h84v-57h-84V78q0-22 11-28t39-8V0H23v42q28 2 40.5 8T76 78v408H5v45l71 17v8q0 119 68.5 173T319 783q46 0 80-8.5t58-19.5l132 28h35z"/><glyph glyph-name="ffi" unicode="ffi" horiz-adv-x="1035" d="M76 548v7q0 119 73 167.5T320 771q50 0 91-13.5t73-41.5q38 34 92.5 50.5T693 783q96 0 144-27.5t48-75.5q0-22-11-39.5T846 615H729q2 10 3.5 23t1.5 26q0 26-10 49t-40 23q-31 0-45.5-27T624 628v-85h259l37 10h46V78q0-22 12.5-28t40.5-8V0H710v42q28 2 39 8t11 28v408H624V78q0-22 12.5-28t40.5-8V0H368v42q28 2 39 8t11 28v408H282V78q0-22 11-28t39-8V0H23v42q28 2 40.5 8T76 78v408H5v45zm342 8q0 23 3.5 44t10.5 40q-8 34-30 59t-61 25q-31 0-45-24t-14-70v-87h136v13z"/><glyph glyph-name="ffl" unicode="ffl" horiz-adv-x="1035" d="M320 771q48 0 87.5-12.5T478 721q32 31 79 46.5T661 783q46 0 80-8.5t58-19.5l132 28h35V78q0-22 12.5-28t40.5-8V0H710v42q28 2 39 8t11 28v591q-10 27-28.5 47T682 736q-30 0-44-22.5T624 642v-99h84v-57h-84V78q0-22 11-28t39-8V0H368v42q28 2 39 8t11 28v408H282V78q0-22 11-28t39-8V0H23v42q28 2 40.5 8T76 78v408H5v45l71 17v7q0 119 73 167.5T320 771zm98-228v13q0 25 3 47.5t10 41.5q-9 33-31 56t-59 23q-31 0-45-24t-14-70v-87h136z"/><glyph glyph-name="f_b" unicode="fb" horiz-adv-x="1015" d="M418 58v611q-10 27-28.5 47T340 736q-30 0-44-22.5T282 642v-99h84v-57h-84V78q0-22 11-28t39-8V0H23v42q28 2 40.5 8T76 78v408H5v45l71 17v8q0 119 68.5 173T319 783q46 0 80-8.5t58-19.5l132 28h35V454q19 33 61 66t107 33q87 0 145-61t58-186q0-157-89.5-236.5T686-10q-69 0-143 14.5T418 58zm267-17q50 0 75 59.5T785 247q0 101-32.5 143.5T670 433q-12 0-23-2t-23-7V141q0-44 12-72t49-28z"/><glyph glyph-name="f_f_b" unicode="ffb" horiz-adv-x="1357" d="M760 58v611q-10 27-28.5 47T682 736q-30 0-44-22.5T624 642v-99h84v-57h-84V78q0-22 11-28t39-8V0H368v42q28 2 39 8t11 28v408H282V78q0-22 11-28t39-8V0H23v42q28 2 40.5 8T76 78v408H5v45l71 17v7q0 119 73 167.5T320 771q48 0 87.5-12.5T478 721q32 31 79 46.5T661 783q46 0 80-8.5t58-19.5l132 28h35V454q19 33 61 66t107 33q87 0 145-61t58-186q0-157-89.5-236.5T1028-10q-69 0-143 14.5T760 58zm267-17q50 0 75 59.5t25 146.5q0 101-32.5 143.5T1012 433q-12 0-23-2t-23-7V141q0-44 12-72t49-28zM418 556q0 25 3 47.5t10 41.5q-9 33-31 56t-59 23q-31 0-45-24t-14-70v-87h136v13z"/><glyph glyph-name="f_h" unicode="fh" horiz-adv-x="1027" d="M418 78v591q-10 27-28.5 47T340 736q-30 0-44-22.5T282 642v-99h74v-57h-74V78q0-22 11-28t39-8V0H23v42q28 2 40.5 8T76 78v408H5v45l71 17v8q0 119 68.5 173T319 783q46 0 80-8.5t58-19.5l132 28h35V452q27 35 72 68t115 33q72 0 113.5-41T966 389V78q0-22 12.5-28t40.5-8V0H710v42q28 2 39 8t11 28v293q0 28-12.5 45T698 433q-21 0-39-3.5t-35-9.5V78q0-22 11-28t39-8V0H365v42q28 2 40.5 8T418 78z"/><glyph glyph-name="f_f_h" unicode="ffh" horiz-adv-x="1369" d="M760 78v591q-10 27-28.5 47T682 736q-30 0-44-22.5T624 642v-99h84v-57h-84V78q0-22 11-28t39-8V0H368v42q28 2 39 8t11 28v408H282V78q0-22 11-28t39-8V0H23v42q28 2 40.5 8T76 78v408H5v45l71 17v7q0 119 73 167.5T320 771q48 0 87.5-12.5T478 721q32 31 79 46.5T661 783q46 0 80-8.5t58-19.5l132 28h35V452q27 35 72 68t115 33q72 0 113.5-41t41.5-123V78q0-22 12.5-28t40.5-8V0h-309v42q28 2 39 8t11 28v293q0 28-12.5 45t-49.5 17q-21 0-39-3.5t-35-9.5V78q0-22 11-28t39-8V0H707v42q28 2 40.5 8T760 78zM418 556q0 25 3 47.5t10 41.5q-9 33-31 56t-59 23q-31 0-45-24t-14-70v-87h136v13z"/><glyph glyph-name="f_idieresis" unicode="fï" horiz-adv-x="693" d="M624 553V78q0-22 12.5-28t40.5-8V0H368v42q28 2 39 8t11 28v408H282V78q0-22 11-28t39-8V0H23v42q28 2 40.5 8T76 78v408H5v45l71 17v8q0 119 81.5 173T347 783q86 0 127-27.5t41-75.5q0-22-11-40t-28-26H361q2 10 3.5 23t1.5 26q0 29-6.5 51T332 736q-23 0-36.5-27T282 628v-85h259l37 10h46zm-84 138q0 36 26.5 62t61.5 26q38 0 64.5-26t26.5-62-26.5-62-64.5-26q-35 0-61.5 26T540 691z"/><glyph glyph-name="f_f_idieresis" unicode="ffï" horiz-adv-x="1035" d="M320 771q50 0 91-13.5t73-41.5q37 34 91 50.5T689 783q86 0 127-27.5t41-75.5q0-22-11-40t-28-26H703q2 10 3.5 23t1.5 26q0 29-6.5 51T674 736q-23 0-36.5-27T624 628v-85h259l37 10h46V78q0-22 12.5-28t40.5-8V0H710v42q28 2 39 8t11 28v408H624V78q0-22 12.5-28t40.5-8V0H368v42q28 2 39 8t11 28v408H282V78q0-22 11-28t39-8V0H23v42q28 2 40.5 8T76 78v408H5v45l71 17v7q0 119 73 167.5T320 771zm98-228v13q0 23 3.5 44t10.5 40q-8 34-30 59t-61 25q-31 0-45-24t-14-70v-87h136zm464 148q0 36 26.5 62t61.5 26q38 0 64.5-26t26.5-62-26.5-62-64.5-26q-35 0-61.5 26T882 691z"/><glyph glyph-name="f_j" unicode="fj" horiz-adv-x="674" d="M418 486H282V78q0-22 11-28t39-8V0H23v42q28 2 40.5 8T76 78v408H5v45l71 17v8q0 119 82 173t193 54q96 0 144-27.5t48-75.5q0-22-11-39.5T504 615H387q2 10 3.5 23t1.5 26q0 26-10 49t-40 23q-31 0-45.5-27T282 628v-85h259l37 10h46V111q0-89-21-136t-59-81q-46-41-87-62t-96-43l-17 22 41 63q24 37 28.5 85.5T418 66v420z"/><glyph glyph-name="f_f_j" unicode="ffj" horiz-adv-x="1016" d="M760 486H624V78q0-22 12.5-28t40.5-8V0H368v42q28 2 39 8t11 28v408H282V78q0-22 11-28t39-8V0H23v42q28 2 40.5 8T76 78v408H5v45l71 17v7q0 119 73 167.5T320 771q50 0 91-13.5t73-41.5q38 34 92.5 50.5T693 783q96 0 144-27.5t48-75.5q0-22-11-39.5T846 615H729q2 10 3.5 23t1.5 26q0 26-10 49t-40 23q-31 0-45.5-27T624 628v-85h259l37 10h46V111q0-89-21-136t-59-81q-46-41-87-62t-96-43l-17 22 41 63q24 37 28.5 85.5T760 66v420zm-342 70q0 23 3.5 44t10.5 40q-8 34-30 59t-61 25q-31 0-45-24t-14-70v-87h136v13z"/><glyph glyph-name="f_k" unicode="fk" horiz-adv-x="1009" d="M630 283l152 137q21 19 27.5 30t6.5 21q0 13-12.5 19.5T757 501v42h233v-42q-25-3-44.5-9.5T906 465L800 363l209-334V0H797zM418 78v591q-10 27-28.5 47T340 736q-30 0-44-22.5T282 642v-99h84v-57h-84V78q0-22 11-28t39-8V0H23v42q28 2 40.5 8T76 78v408H5v45l71 17v8q0 119 68.5 173T319 783q46 0 80-8.5t58-19.5l132 28h35V78q0-22 12.5-28t40.5-8V0H365v42q28 2 40.5 8T418 78z"/><glyph glyph-name="f_f_k" unicode="ffk" horiz-adv-x="1351" d="M760 78v591q-10 27-28.5 47T682 736q-30 0-44-22.5T624 642v-99h84v-57h-84V78q0-22 11-28t39-8V0H368v42q28 2 39 8t11 28v408H282V78q0-22 11-28t39-8V0H23v42q28 2 40.5 8T76 78v408H5v45l71 17v7q0 119 73 167.5T320 771q48 0 87.5-12.5T478 721q32 31 79 46.5T661 783q46 0 80-8.5t58-19.5l132 28h35V78q0-22 12.5-28t40.5-8V0H707v42q28 2 40.5 8T760 78zm212 205l152 137q21 19 27.5 30t6.5 21q0 13-12.5 19.5T1099 501v42h233v-42q-25-3-44.5-9.5T1248 465l-106-102 209-334V0h-212zM418 556q0 25 3 47.5t10 41.5q-9 33-31 56t-59 23q-31 0-45-24t-14-70v-87h136v13z"/><glyph glyph-name=".notdef" horiz-adv-x="960" d="M90 0v780h780V0H90zm390 345L201 66h558zM201 714l279-279 279 279H201zm234-324L160 665V115zm90 0l275-275v550z"/><glyph glyph-name=".null" horiz-adv-x="0"/><glyph glyph-name="nonmarkingreturn" horiz-adv-x="165"/><glyph glyph-name="NULL" horiz-adv-x="0"/><glyph glyph-name="NULL" horiz-adv-x="0"/><glyph glyph-name="space" horiz-adv-x="165"/><glyph glyph-name="exclam" unicode="!" horiz-adv-x="305" d="M51 93q0 44 30 75t71 31q43 0 72.5-31T254 93q0-42-29.5-72.5T152-10q-41 0-71 30.5T51 93zm135 148h-67L31 702h243z"/><glyph glyph-name="quotedbl" unicode="&quot;" horiz-adv-x="387" d="M107 447H91L42 595q-7 23-14.5 50T20 689q0 31 19 56t60 25 60-25 19-56q0-17-7.5-44T156 595zm189 0h-16l-49 148q-7 23-14.5 50t-7.5 44q0 31 19 56t60 25 60-25 19-56q0-17-7.5-44T345 595z"/><glyph glyph-name="numbersign" unicode="#" horiz-adv-x="523" d="M472 229H348L273-10 217 8l70 221H158L83-10 27 8l70 221H25v51h88l45 142H51v51h123l76 240 56-18-71-222h129l76 240 56-18-71-222h73v-51h-89l-45-142h108v-51zM219 422l-45-142h129l45 142H219z"/><glyph glyph-name="dollar" unicode="$" horiz-adv-x="590" d="M279-10q-7 0-15 .5T249-9l-18-104h-46L204-4q-52 7-95.5 23.5T38 57L26 232h59q14-63 47.5-110.5T215 54l35 196-9 3q-104 28-158 80T29 477q0 110 75.5 172.5T293 712q10 0 20-.5t20-1.5l19 104h46l-20-109q42-7 76-21t59-32V499h-49q-13 50-36.5 88T367 644l-34-191q1 0 2.5-.5t2.5-.5q99-28 161.5-74.5T562 221q0-120-83.5-175.5T279-10zm114 140q0 43-24 66.5T294 237L259 43q4-1 9.5-1H279q49 0 81.5 22t32.5 66zM192 571q0-43 24-65.5t73-39.5l35 192q-7 1-15 2t-16 1q-43 0-72-23.5T192 571z"/><glyph glyph-name="percent" unicode="%" horiz-adv-x="802" d="M35 537q0 87 53 131t122 44 122-44 53-131-53-131-122-44-122 44-53 131zm121 0q0-57 11.5-97.5T210 399t42.5 40.5T264 537t-11.5 97.5T210 675t-42.5-40.5T156 537zm-3-547l439 722h57L210-10h-57zm614 175q0-87-53-131T592-10 470 34t-53 131 53 131 122 44 122-44 53-131zm-121 0q0 57-11.5 97.5T592 303t-42.5-40.5T538 165t11.5-97.5T592 27t42.5 40.5T646 165z"/><glyph glyph-name="ampersand" unicode="&amp;" horiz-adv-x="752" d="M11 184q0 75 44 118.5T179 366q-19 25-39 66t-20 91q0 86 62 137.5T348 712q96 0 158-42t62-116q0-62-41-101t-121-54l148-181q7 16 10.5 34t3.5 37q0 24-14 34t-40 10v46h216v-46q-53 0-75.5-14.5T622 261q-6-22-14.5-43.5T588 177l45-55q30-37 49-57t50-20V0H500q-13 10-26 20.5T451 41q-42-24-90-37.5T263-10Q155-10 83 41.5T11 184zM349 73q15 0 30 2.5t30 7.5q-9 10-18 20.5T373 125L208 331q-12-19-17.5-43t-5.5-53q0-67 44.5-114.5T349 73zm-58 522q0-49 27.5-85.5T372 442l6-8q22 22 33.5 56.5T423 571q0 37-16 66.5T352 667q-30 0-45.5-20.5T291 595z"/><glyph glyph-name="quotesingle" unicode="'" horiz-adv-x="198" d="M107 447H91L42 595q-7 23-14.5 50T20 689q0 31 19 56t60 25 60-25 19-56q0-17-7.5-44T156 595z"/><glyph glyph-name="parenleft" unicode="(" horiz-adv-x="378" d="M60 314q0 128 64 250.5T299 770h59q-82-101-116-222t-34-234 34-234 116-222h-59Q188-59 124 63.5T60 314z"/><glyph glyph-name="parenright" unicode=")" horiz-adv-x="378" d="M318 314q0-128-64-250.5T79-142H20Q102-41 136 80t34 234-34 234T20 770h59q111-83 175-205.5T318 314z"/><glyph glyph-name="asterisk" unicode="*" horiz-adv-x="452" d="M373 585l-127-30 127-30q37-8 49-31t-2-48q-13-24-40-25t-52 27l-89 94 38-124q11-36-3-58t-42-22-42 22-3 58l38 124-89-94q-25-28-52-27t-40 25q-14 25-2 48t49 31l126 30-126 30q-37 8-49 31t2 48q13 24 40 25t52-27l89-95-38 125q-11 36 3 58t42 22 42-22 3-58l-38-125 89 95q25 28 52 27t40-25q14-25 2-48t-49-31z"/><glyph glyph-name="plus" unicode="+" horiz-adv-x="576" d="M252 591h71V405h187v-72H323V147h-71v186H66v72h186v186z"/><glyph glyph-name="comma" unicode="," horiz-adv-x="282" d="M156 7h-42q-34 8-56.5 30.5T35 101q0 45 30.5 71t73.5 26q52 0 83.5-37T254 65q0-86-56.5-134.5T35-121v45q53 7 84.5 24.5T156 7z"/><glyph glyph-name="hyphen" unicode="-" horiz-adv-x="320" d="M290 267H30v86h260v-86z"/><glyph glyph-name="period" unicode="." horiz-adv-x="282" d="M30 101q0 49 32.5 80.5T141 213t78.5-31.5T252 101t-32.5-80T141-10 62.5 21 30 101z"/><glyph glyph-name="slash" unicode="/" horiz-adv-x="359" d="M354 770L82-141H-5l272 911h87z"/><glyph glyph-name="zero" unicode="0" horiz-adv-x="686" d="M343 35q55 0 72.5 91T433 351t-17.5 225-72.5 91-72.5-91T253 351t17.5-225T343 35zm0-45q-133 0-225.5 92.5T25 351t92.5 268.5T343 712t225.5-92.5T661 351 568.5 82.5 343-10z"/><glyph glyph-name="one" unicode="1" horiz-adv-x="436" d="M422 0H25v45q66 3 78.5 14.5T116 117v408H25v43l47 8q77 13 125 46t89 89h47V117q0-46 14.5-57T422 45V0z"/><glyph glyph-name="two" unicode="2" horiz-adv-x="565" d="M195 172h173q46 0 71 14t63 85h33L516 0H5v35l196 194q51 51 79 106t28 117q0 52-29 86t-86 34q-39 0-71-16t-55-42l-33 23q40 73 101 124t165 51q96 0 154-50.5T512 521q0-110-100-192T195 172z"/><glyph glyph-name="three" unicode="3" horiz-adv-x="555" d="M311 404q101-2 162.5-54.5T535 208q0-109-88.5-163.5T252-10Q130-10 67.5 32T5 134q0 31 15 54t32 31h128q-5-13-8.5-29.5T168 151q0-48 21.5-83T257 33q37 0 58 33.5t21 96.5q0 71-37.5 115.5T189 323h-15l-13 31q79 34 103.5 66t24.5 72q0 39-23 62t-68 23q-43 0-73.5-17.5T68 512l-29 23q36 75 98.5 126T304 712q81 0 133.5-38T490 567q0-76-59.5-114T311 404z"/><glyph glyph-name="four" unicode="4" horiz-adv-x="653" d="M87 236h216v312zm216-125v67H5v38l337 486h173V236h113v-58H515v-67q0-38 12.5-51.5T591 44V0H226v44q51 2 64 15.5t13 51.5z"/><glyph glyph-name="five" unicode="5" horiz-adv-x="554" d="M476 526H142l-11-59q196 7 297-53t101-192q0-116-79.5-174T258-10Q137-10 73.5 29T10 129q0 29 15.5 53T64 218h120q-3-11-6-26.5t-3-33.5q0-52 22.5-88T271 34q41 0 65 27t24 76q0 71-70.5 109T56 284l65 418h286q25 0 35 7t23 35h42z"/><glyph glyph-name="six" unicode="6" horiz-adv-x="622" d="M507 682q-123-22-182-91.5T250 420q25 16 61.5 29t84.5 13q89 0 146.5-58T600 249q0-122-80.5-190.5T321-10q-136 0-214.5 90T28 314q0 166 121 282t343 116zM274 383h-15l-14-1q-1-18-2-36.5t-1-37.5q0-111 21-191.5T335 36q38 0 54.5 44T406 188q0 78-32 136.5T274 383z"/><glyph glyph-name="seven" unicode="7" horiz-adv-x="525" d="M401 497H141q-34 0-54.5-21T50 404H9l45 298h471v-42L243 0H121z"/><glyph glyph-name="eight" unicode="8" horiz-adv-x="600" d="M539 551q0-54-42-85t-106-35l20-8q84-37 124-86.5T575 213q0-107-78-165T297-10Q171-10 95.5 34T20 161q0 56 44 91t110 40l-14 6q-54 25-87.5 75.5T39 491q0 105 76 163t183 58q114 0 177.5-43T539 551zM335 220l-133 60q-18-21-27-45t-9-56q0-68 36.5-107T299 33q49 0 81 25t32 71q0 37-20 56t-57 35zm-59 265l82-40q16 16 30.5 42t14.5 67q0 49-26.5 82T297 669q-43 0-70-23.5T200 583q0-36 19.5-58.5T276 485z"/><glyph glyph-name="nine" unicode="9" horiz-adv-x="622" d="M115 21q123 22 182 91.5T372 283q-25-17-62-29.5T226 241q-89 0-146.5 58T22 454q0 122 80.5 190.5T301 713q136 0 214.5-90T594 389q0-166-121-282T130-9zm233 299h14.5l13.5 1q2 18 3 36.5t1 37.5q0 111-21 191.5T287 667q-38 0-54.5-44T216 515q0-78 32-136.5T348 320z"/><glyph glyph-name="colon" unicode=":" horiz-adv-x="282" d="M30 101q0 49 32.5 80.5T141 213t78.5-31.5T252 101t-32.5-80T141-10 62.5 21 30 101zm0 302q0 49 32.5 80.5T141 515t78.5-31.5T252 403t-32.5-80-78.5-31-78.5 31T30 403z"/><glyph glyph-name="semicolon" unicode=";" horiz-adv-x="282" d="M156 7h-42q-34 8-56.5 30.5T35 101q0 45 30.5 71t73.5 26q52 0 83.5-37T254 65q0-86-56.5-134.5T35-121v45q53 7 84.5 24.5T156 7zM30 403q0 49 32.5 80.5T141 515t78.5-31.5T252 403t-32.5-80-78.5-31-78.5 31T30 403z"/><glyph glyph-name="less" unicode="&lt;" horiz-adv-x="428" d="M44 362v10l318 195v-86L168 368l194-116v-85z"/><glyph glyph-name="equal" unicode="=" horiz-adv-x="586" d="M71 261v69h445v-69H71zm0 147v70h445v-70H71z"/><glyph glyph-name="greater" unicode="&gt;" horiz-adv-x="428" d="M384 372v-10L66 167v85l194 116L66 481v86z"/><glyph glyph-name="question" unicode="?" horiz-adv-x="477" d="M304 600q0 31-16 50t-47 19q-40 0-54.5-30T172 572q0-22 2-34t4-27H59q-22 10-33 28t-11 41q0 60 61.5 96T239 712q110 0 169-45t59-126q0-64-34.5-108T329 350q-43-25-61-46t-18-56v-9h-29q-41 14-64.5 42T133 351q0 32 19 64t58 60q38 28 66 56.5t28 68.5zM131 93q0 44 29.5 75t71.5 31q43 0 72.5-31T334 93q0-42-29.5-72.5T232-10q-42 0-71.5 30.5T131 93z"/><glyph glyph-name="at" unicode="@" horiz-adv-x="894" d="M610 77q-80 0-103 48t-12 108q-37-66-77-111t-97-45q-44 0-74.5 34.5T216 206q0 101 73.5 193.5T475 492q36 0 61.5-14t35.5-28l78 32h46l-35-94-57-198q-8-29-2-51.5t31-22.5q49 0 92 68.5T768 369q0 107-76 194t-210 87q-162 0-257-114.5T130 259Q130 88 232 5t241-83q82 0 144.5 19T743-2l14-21q-54-50-131-78t-175-28q-161 0-286 98T40 256q0 181 126 309t316 128q175 0 273.5-99T854 369q0-159-84-225.5T610 77zm-221 97q41 0 82.5 77.5T532 424q-5 14-15 22.5t-25 8.5q-55 0-94-81t-39-150q0-23 7-36.5t23-13.5z"/><glyph glyph-name="A" unicode="A" horiz-adv-x="773" d="M461 129l-32 82H182l-30-82q-4-10-6-19.5T144 93q0-25 21-35t59-13V0H5v45q20 4 35 10.5T63 82l203 533-35 87h233L709 82q7-19 22-26t37-11V0H393v45q34 1 55 11.5T469 92q0 7-2 16.5t-6 20.5zM302 536l-99-267h203z"/><glyph glyph-name="B" unicode="B" horiz-adv-x="718" d="M346 332h-32V118q0-40 14-54t50-14h7q45 0 76 34.5T492 194q0 69-37 103.5T346 332zm-19 320h-13V391h14q59 0 90.5 34T450 525t-34 96.5-89 30.5zM414 0H26v45q49 5 59 17t10 50v478q0 38-10 50t-59 17v45h381q116 0 182-44.5T655 526q0-75-57-114.5T467 365q100-3 168-47.5T703 191q0-99-73.5-145T414 0z"/><glyph glyph-name="C" unicode="C" horiz-adv-x="695" d="M413 712q69 0 125.5-15.5T638 653l4-181h-54q-19 90-59 138t-108 48q-89 0-127.5-87T255 359q0-135 44.5-223.5T431 47q58 0 105.5 49.5T615 261h55L652 58Q609 26 542 8T401-10q-174 0-275 91T25 331q0 176 115 278.5T413 712z"/><glyph glyph-name="D" unicode="D" horiz-adv-x="807" d="M327 652h-13V120q0-44 16-57t47-13h6q79 0 126 80t47 208q0 148-62 231t-167 83zM390 0H26v45q49 5 59 17t10 50v478q0 38-10 50t-59 17v45h339q211 0 314-98.5T782 356q0-166-105-261T390 0z"/><glyph glyph-name="E" unicode="E" horiz-adv-x="664" d="M26 0v45q49 5 59 17t10 50v478q0 38-10 50t-59 17v45h586l5-199h-42q-40 84-71.5 116.5T400 652h-86V392h83q35 0 47.5 20.5T463 485h47V239h-47q-6 52-18.5 72.5T397 332h-83V117q0-40 19-53.5T391 50h22q70 0 101 37t86 140h50L617 0H26z"/><glyph glyph-name="F" unicode="F" horiz-adv-x="625" d="M314 325V112q0-38 25-51t90-16V0H26v45q49 5 59 17t10 50v478q0 38-10 50t-59 17v45h579l5-207h-39q-44 85-75 121t-103 36h-79V385h76q35 0 47.5 20.5T456 478h47V232h-47q-6 52-18.5 72.5T390 325h-76z"/><glyph glyph-name="G" unicode="G" horiz-adv-x="752" d="M469 50v172q0 38-10 50t-59 17v45h342v-45q-49-5-59-17t-10-50V56Q621 23 548 6.5T394-10q-183 0-276 98T25 332q0 176 116 278t276 102q69 0 126.5-15.5T644 653l4-181h-54q-19 90-59.5 138T425 658q-90 0-130-87t-40-212 42-219.5T425 45q13 0 23 1t21 4z"/><glyph glyph-name="H" unicode="H" horiz-adv-x="860" d="M314 590V388h232v202q0 38-10 50t-59 17v45h357v-45q-49-5-59-17t-10-50V112q0-38 10-50t59-17V0H477v45q49 5 59 17t10 50v208H314V112q0-38 10-50t59-17V0H26v45q49 5 59 17t10 50v478q0 38-10 50t-59 17v45h357v-45q-49-5-59-17t-10-50z"/><glyph glyph-name="I" unicode="I" horiz-adv-x="409" d="M314 590V112q0-38 10-50t59-17V0H26v45q49 5 59 17t10 50v478q0 38-10 50t-59 17v45h357v-45q-49-5-59-17t-10-50z"/><glyph glyph-name="J" unicode="J" horiz-adv-x="606" d="M302 168v422q0 38-10 50t-59 17v45h357v-45q-49-5-59-17t-10-50V230q0-125-74.5-182.5T238-10Q119-10 57 30T-5 145q0 32 14.5 56.5T50 240h139q-3-19-5-38t-2-45q0-47 12-84t49-37q42 0 50.5 37.5T302 168z"/><glyph glyph-name="K" unicode="K" horiz-adv-x="792" d="M505 439l205-331q16-26 33.5-42.5T792 45V0H539q-25 22-49 55t-43 67L322 340l230 239q13 13 21 24.5t8 24.5q0 12-14.5 20t-52.5 9v45h244v-45q-31-2-47.5-8.5T675 622zM314 590V112q0-38 10-50t59-17V0H26v45q49 5 59 17t10 50v478q0 38-10 50t-59 17v45h357v-45q-49-5-59-17t-10-50z"/><glyph glyph-name="L" unicode="L" horiz-adv-x="658" d="M314 590V117q0-40 17-53.5T387 50h21q46 0 85 38t111 159h47L612 0H26v45q49 5 59 17t10 50v478q0 38-10 50t-59 17v45h357v-45q-49-5-59-17t-10-50z"/><glyph glyph-name="M" unicode="M" horiz-adv-x="1001" d="M694 134l-47 364L474 0h-88L209 498l-49-364q-1-6-1.5-14t-.5-11q0-36 19-48t78-16V0H0v45q43 2 62 14.5T85 106l64 478q0 40-17.5 55.5T64 657v45h302q1-17 5.5-33t10.5-33l123-357 119 358q6 19 11 33.5t6 31.5h296v-45q-50-2-67.5-17.5T852 584l64-478q5-37 23.5-48t61.5-13V0H599v45q54 3 75.5 15.5T696 109q0 3-.5 11t-1.5 14z"/><glyph glyph-name="N" unicode="N" horiz-adv-x="757" d="M598 337v253q0 38-21 50.5T496 657v45h244v-45q-49-5-59-17t-10-50V0h-82L168 516V112q0-38 21-50.5T270 45V0H26v45q49 5 59 17t10 50v480q-17 31-31 47t-38 18v45h274z"/><glyph glyph-name="O" unicode="O" horiz-adv-x="758" d="M384 42q70 0 94.5 95T503 336q0 137-29 230.5T374 660q-70 0-94.5-95T255 366q0-137 29-230.5T384 42zm-15-52Q200-10 112.5 93.5T25 337q0 172 102.5 273.5T389 712q169 0 256.5-103.5T733 365q0-172-102.5-273.5T369-10z"/><glyph glyph-name="P" unicode="P" horiz-adv-x="687" d="M314 267V112q0-38 25-51t90-16V0H26v45q49 5 59 17t10 50v478q0 38-10 50t-59 17v45h364q148 0 219-60.5T680 489q0-106-74.5-164T379 267h-65zm0 385V324h13q67 0 103.5 45T467 489q0 78-39.5 120.5T327 652h-13z"/><glyph glyph-name="Q" unicode="Q" horiz-adv-x="758" d="M345-62L301-5Q164 17 94.5 114.5T25 337q0 172 102.5 273.5T389 712q169 0 256.5-103.5T733 365q0-146-74.5-241.5T463 0l89-60q38-26 65-38t68-12v-19q-19-19-53.5-38.5T548-187q-51 0-101.5 29T345-62zm39 104q70 0 94.5 95T503 336q0 137-29 230.5T374 660q-70 0-94.5-95T255 366q0-137 29-230.5T384 42z"/><glyph glyph-name="R" unicode="R" horiz-adv-x="778" d="M335 649h-21V344h22q63 0 99.5 41T472 500q0 71-36 110t-101 39zm-21-359V112q0-38 10-50t59-17V0H26v45q49 5 59 17t10 50v478q0 38-10 50t-59 17v45h389q120 0 196.5-53.5T688 501q0-73-44.5-116.5T545 322l133-196q30-45 48-62t52-19V0H531q-21 16-41.5 43.5T447 110L344 290h-30z"/><glyph glyph-name="S" unicode="S" horiz-adv-x="592" d="M281-10q-76 0-140 19.5T40 57L28 232h59q19-81 69-135.5T281 42q49 0 80 22t31 66q0 45-34.5 70T243 247q-104 28-158 83T31 477q0 110 75.5 172.5T295 712q71 0 127.5-16.5T515 652V499h-49q-19 72-60.5 117T295 661q-43 0-70.5-23T197 574q0-46 34-70.5T340 458q99-28 161.5-77.5T564 221q0-120-83.5-175.5T281-10z"/><glyph glyph-name="T" unicode="T" horiz-adv-x="723" d="M30 702h663l15-261h-45q-57 121-89.5 169.5T495 659h-24V107q0-38 15-47.5T550 45V0H173v45q49 5 64 14.5t15 47.5v552h-24q-46 0-78.5-48.5T60 441H15z"/><glyph glyph-name="U" unicode="U" horiz-adv-x="763" d="M303 590V265q0-84 33.5-133.5T451 82q62 0 108.5 41.5T606 269v321q0 38-16 50.5T514 657v45h234v-45q-49-5-59-17t-10-50V249q0-132-83-195.5T394-10q-149 0-229.5 65.5T84 249v341q0 38-10 50t-59 17v45h357v-45q-49-5-59-17t-10-50z"/><glyph glyph-name="V" unicode="V" horiz-adv-x="741" d="M466 269l118 304q4 11 7.5 21.5T595 613q0 22-12.5 32T526 657v45h210v-45q-22-4-36.5-10.5T677 620L421-3h-64L63 620q-10 20-23 26.5T5 657v45h377v-45q-44-2-56.5-12T313 613q0-8 3-19t7-21z"/><glyph glyph-name="W" unicode="W" horiz-adv-x="1028" d="M661-3L528 382 385-3h-81L63 620q-7 16-22 24.5T5 657v45h345v-45q-25-3-35.5-12.5T304 619q0-12 4.5-27t10.5-31l108-287 71 193-52 153q-6 16-17 24.5T397 657v45h345v-45q-37-1-51-11.5T677 614q0-13 4-29.5t10-36.5l86-269 93 273q5 16 9 31t4 27q0 20-14 32.5T819 657v45h204v-45q-21-4-36.5-12.5T965 620L743-3h-82z"/><glyph glyph-name="X" unicode="X" horiz-adv-x="763" d="M427 120L318 279 180 106q-6-7-9-14t-3-13q0-14 21.5-23.5T248 45V0H5v45q30 4 44.5 13T72 77l209 256L81 625q-9 13-23 20.5T25 657v45h364v-45q-25 0-37.5-6.5T339 627q0-10 6-20t16-25l77-115 99 129q6 8 9 15t3 14q0 14-16.5 22.5T489 657v45h221v-45q-30-4-44-12.5T643 625L474 414 695 87q14-21 28-29.5T758 45V0H379v45q40 1 55 7t15 23q0 10-5 19t-17 26z"/><glyph glyph-name="Y" unicode="Y" horiz-adv-x="727" d="M481 258V107q0-38 15-47.5T560 45V0H188v45q49 5 64 14.5t15 47.5v146L63 620q-11 21-23.5 27T5 657v45h365v-45q-38-1-50.5-9.5T307 621q0-16 6-31t18-37l123-210 103 208q9 19 17 38t8 32q0 18-17 26.5t-49 9.5v45h206v-45q-21-4-35-11.5T664 620z"/><glyph glyph-name="Z" unicode="Z" horiz-adv-x="643" d="M266 50h105q63 0 103 36.5T580 239h48L591 0H15v39l339 613h-97q-72 0-100.5-38T83 478H38l10 224h559v-39z"/><glyph glyph-name="bracketleft" unicode="[" horiz-adv-x="342" d="M209 668V-39q0-39 21.5-47.5T312-99v-42H85v911h227v-42q-60-4-81.5-12.5T209 668z"/><glyph glyph-name="backslash" unicode="\" horiz-adv-x="359" d="M277-141L5 770h87l272-911h-87z"/><glyph glyph-name="bracketright" unicode="]" horiz-adv-x="342" d="M133-39v707q0 39-21.5 47.5T30 728v42h227v-911H30v42q60 4 81.5 12.5T133-39z"/><glyph glyph-name="asciicircum" unicode="^" horiz-adv-x="470" d="M275 770l165-290h-77L235 711 107 480H30l165 290h80z"/><glyph glyph-name="underscore" unicode="_" horiz-adv-x="420" d="M400-149H20v83h380v-83z"/><glyph glyph-name="grave" unicode="`" d="M114 766h197l47-163h-59L114 756v10z"/><glyph glyph-name="a" unicode="a" horiz-adv-x="568" d="M276 98q8 0 15 1.5t14 3.5v185l-40-15q-24-9-39-26t-15-61q0-37 14.5-62.5T276 98zm231 277V110q0-15 4-28t21-13q10 0 18.5 2t12.5 3l7-30q-26-24-60-39t-79-15q-46 0-78 21.5T308 73q-21-32-57-55.5T160-6Q96-6 54.5 29T13 130t39 98 91 50l162 56v110q0 30-9 48.5T262 511q-26 0-37-21.5T214 434q0-18 3-36.5t7-37.5l-124-16q-22 7-37 26t-15 47q0 71 65 103.5T271 553q109 0 172.5-38.5T507 375z"/><glyph glyph-name="b" unicode="b" horiz-adv-x="650" d="M53 677L0 704v34l224 45h35V454q19 33 61 66t107 33q87 0 145-61t58-186q0-157-89.5-236.5T321-10q-69 0-143 14.5T53 58v619zM320 41q50 0 75 59.5T420 247q0 101-32.5 143.5T305 433q-12 0-23-2t-23-7V141q0-44 12-72t49-28z"/><glyph glyph-name="c" unicode="c" horiz-adv-x="517" d="M198 330q0-94 40.5-148.5T353 127q43 0 75 14.5t55 47.5l24-15q-25-96-86-140T273-10Q167-10 93.5 60.5T20 255q0 128 77.5 213T302 553q76 0 133-31t57-100q0-31-15-50t-32-26H342q2 18 3 32.5t1 27.5q0 45-13.5 72T286 505q-42 0-65-50t-23-125z"/><glyph glyph-name="d" unicode="d" horiz-adv-x="660" d="M325 486q-49 0-73-49t-24-130q0-92 30-148.5t83-56.5q10 0 21.5 1.5T385 109v284q0 46-12 69.5T325 486zm60 191l-53 27v34l224 45h35V119q0-25 5-38t27-13h23V24L421-10h-39l3 95q-31-48-72-71.5T222-10q-87 0-144.5 66T20 247q0 148 79.5 224.5T290 548q29 0 54-7t41-20v156z"/><glyph glyph-name="e" unicode="e" horiz-adv-x="541" d="M297 553q112 0 169-63t57-161v-25H206q0-82 42-131t108-49q47 0 84 16.5t65 53.5l21-13q-21-87-80.5-139T288-10Q177-10 98.5 59.5T20 260q0 135 83.5 214T297 553zm-13-44q-37 0-55.5-43T207 353h141q0 74-14 115t-50 41z"/><glyph glyph-name="f" unicode="f" horiz-adv-x="392" d="M282 486V97q0-33 18-41t60-14V0H23v42q28 2 40.5 8T76 78v408H5v45l71 17v8q0 119 73.5 173T324 783q86 0 126-27.5t40-75.5q0-22-11-39.5T451 615H348q2 10 3.5 23t1.5 26q0 26-5.5 48T320 734q-21 0-29.5-16t-8.5-44V543h114v-57H282z"/><glyph glyph-name="g" unicode="g" horiz-adv-x="571" d="M265 187q-28 0-58 4t-58 13q-10-9-17.5-19.5T124 160q0-11 7-19t20-8h223q107 0 153.5-42.5T574-21q0-98-85.5-150T263-223q-122 0-194 31t-72 90q0 37 30.5 54T89-28Q57-15 39 14.5T21 76q0 51 30 84.5t70 54.5q-42 19-69.5 54.5T24 360q0 91 71 142t179 51q31 0 54.5-4t42.5-9l183 4v-72h-47l-57 2q28-19 44.5-47.5T511 361q0-84-71-129t-175-45zM386-54H112q-3-4-4-11.5T107-81q0-43 44.5-67T266-172q65 0 116.5 17T434-92q0 19-12 28.5T386-54zM272 230q31 0 41 34.5T323 366q0 55-13.5 98.5T265 508q-30 0-40.5-34.5T214 376q0-59 14-102.5t44-43.5z"/><glyph glyph-name="h" unicode="h" horiz-adv-x="680" d="M71 78v599l-53 27v34l224 45h35V452q27 35 72 68t115 33q72 0 113.5-41T619 389V78q0-22 12.5-28t40.5-8V0H363v42q28 2 39 8t11 28v293q0 28-12.5 45T351 433q-21 0-39-3.5t-35-9.5V78q0-22 11-28t39-8V0H18v42q28 2 40.5 8T71 78z"/><glyph glyph-name="i" unicode="i" horiz-adv-x="350" d="M281 553V78q0-22 12.5-28t40.5-8V0H22v42q28 2 40.5 8T75 78v350l-53 34v31l223 60h36zm-100 37q-50 0-78 29.5T75 689t28 69.5 78 29.5q49 0 77.5-29.5T287 689t-28.5-69.5T181 590z"/><glyph glyph-name="j" unicode="j" horiz-adv-x="315" d="M59 428L6 462v31l223 60h36V111q0-89-21-136t-59-81q-46-41-87-62T2-211l-17 22 41 63q24 37 28.5 85.5T59 66v362zm103 162q-50 0-78 29.5T56 689t28 69.5 78 29.5q49 0 77.5-29.5T268 689t-28.5-69.5T162 590z"/><glyph glyph-name="k" unicode="k" horiz-adv-x="662" d="M283 283l152 137q21 19 27.5 30t6.5 21q0 13-12.5 19.5T410 501v42h233v-42q-25-3-44.5-9.5T559 465L453 363 662 29V0H450zM71 78v599l-53 27v34l224 45h35V78q0-22 12.5-28t40.5-8V0H18v42q28 2 40.5 8T71 78z"/><glyph glyph-name="l" unicode="l" horiz-adv-x="346" d="M277 783V78q0-22 12.5-28t40.5-8V0H18v42q28 2 40.5 8T71 78v599l-53 27v34l224 45h35z"/><glyph glyph-name="m" unicode="m" horiz-adv-x="998" d="M731 78v296q0 28-11.5 44T677 434q-19 0-35.5-4.5T609 419V78q0-22 9-28t37-8V0H357v42q28 2 37 8t9 28v296q0 28-11.5 44T349 434q-19 0-35.5-4T281 420V78q0-22 9-28t37-8V0H22v42q28 2 40.5 8T75 78v350l-53 34v31l223 60h40l-4-103q26 41 70 72t112 31q58 0 95-24.5t47-80.5q25 40 71.5 72.5T789 553q69 0 108.5-39.5T937 396V78q0-22 12.5-28t40.5-8V0H685v42q28 2 37 8t9 28z"/><glyph glyph-name="n" unicode="n" horiz-adv-x="684" d="M417 78v293q0 28-12.5 45T355 433q-21 0-39-3.5t-35-9.5V78q0-22 11-28t39-8V0H22v42q28 2 40.5 8T75 78v350l-53 34v31l223 60h40l-4-101q27 35 72 68t115 33q72 0 113.5-41T623 389V78q0-22 12.5-28t40.5-8V0H367v42q28 2 39 8t11 28z"/><glyph glyph-name="o" unicode="o" horiz-adv-x="620" d="M315 34q40 0 53 53t13 146q0 128-16.5 202T305 509q-40 0-53-53t-13-146q0-128 16.5-202T315 34zm-5-44q-128 0-209 73.5T20 262t81 208 209 83 209-73.5T600 281 519 73 310-10z"/><glyph glyph-name="p" unicode="p" horiz-adv-x="665" d="M335 41q50 0 75 59.5T435 247q0 101-32.5 143.5T320 433q-12 0-23-2t-23-7V141q0-44 12-72t49-28zM68-134v562l-53 34v31l223 60h40l-4-99q19 33 61 66t107 33q87 0 145-61t58-186q0-157-84-236.5T355-10q-27 0-48.5 4.5T274 7v-136q0-26 16-31.5t58-9.5v-42H15v42q28 2 40.5 8T68-134z"/><glyph glyph-name="q" unicode="q" horiz-adv-x="644" d="M325 501q-49 0-73-51.5T228 317q0-92 30-153.5t83-61.5q10 0 21.5 1.5T385 109v299q0 46-15.5 69.5T325 501zm60-630V85q-23-38-63.5-66.5T222-10q-87 0-144.5 66T20 247q0 148 81 227t198 79q58 0 101-15.5t75-45.5l80 58h41l-5-124v-560q0-22 12.5-28t40.5-8v-42H311v42q42 4 58 9.5t16 31.5z"/><glyph glyph-name="r" unicode="r" horiz-adv-x="478" d="M281 355V97q0-33 18-41t60-14V0H22v42q28 2 40.5 8T75 78v350l-53 34v31l223 60h40l-4-156q28 90 59.5 123t79.5 33q19 0 32-5t21-12V383h-26q-48 0-91-4.5T281 355z"/><glyph glyph-name="s" unicode="s" horiz-adv-x="487" d="M231-10q-65 0-113.5 14T35 41l-6 135h51q13-60 52.5-100.5T229 35q34 0 57.5 16T310 98q0 37-27.5 53T207 181q-87 25-133 68T28 370q0 89 61 136t154 47q51 0 97.5-12.5T419 507V387h-47q-7 47-40 84t-84 37q-30 0-49-15t-19-42q0-30 22-45t68-30q93-31 142.5-71T462 179q0-90-63.5-139.5T231-10z"/><glyph glyph-name="t" unicode="t" horiz-adv-x="405" d="M268 682V543h111v-57H268V155q0-32 13-47t38-15q18 0 35.5 6.5T389 118l16-25q-30-50-75-76.5T222-10q-72 0-117.5 39T59 158v328H5v37q63 22 120 64.5t99 94.5h44z"/><glyph glyph-name="u" unicode="u" horiz-adv-x="669" d="M600 421V119q0-25 5-38t27-13h23V24L430-10h-39l3 98q-25-34-68-66T214-10q-67 0-110.5 42T60 161v237q0 21-7 37t-28 23l-15 5v40l224 50h38l-6-132V179q0-34 14.5-53t48.5-19q19 0 32.5 2.5T394 118v280q0 21-7 37t-28 23l-15 5v40l224 50h38z"/><glyph glyph-name="v" unicode="v" horiz-adv-x="616" d="M611 543v-42q-25-8-34.5-16T560 461L350-3h-59L56 461q-8 16-17 24T5 501v42h342v-42q-40-5-52.5-12T282 466q0-7 2-12.5t6-15.5l100-212 91 212q4 10 6 15.5t2 12.5q0 16-12.5 23T424 501v42h187z"/><glyph glyph-name="w" unicode="w" horiz-adv-x="923" d="M708 236l82 202q4 10 6 18t2 14q0 15-13.5 21.5T743 501v42h175v-42q-25-8-34.5-16T867 461L667-3h-68L481 299 339-3h-68L56 461q-7 16-16.5 24T5 501v42h318v-42q-22-3-32-10t-10-19q0-7 2.5-15.5T290 438l90-214 70 145-36 92q-6 16-16 25t-29 15v42h316v-42q-31-4-45.5-9.5T625 468q0-6 1.5-13.5T631 438z"/><glyph glyph-name="x" unicode="x" horiz-adv-x="632" d="M334 108l-84 113-82-110q-7-9-10-17t-3-15q0-16 16-26t45-11V0H5v42q26 7 42.5 18.5T74 85l140 185L74 461q-8 11-17 20t-31 20v42h315v-42q-21-1-32.5-8T297 473q0-7 4.5-16.5T314 435l65-88 63 85q8 11 13 21t5 18q0 12-11.5 19.5T414 501v42h185v-42q-26-7-40-18.5T535 458L413 300 574 82q8-11 19.5-21T627 42V0H297v42q26 1 39.5 8.5T350 71q0 7-4 16.5T334 108z"/><glyph glyph-name="y" unicode="y" horiz-adv-x="616" d="M387 202l94 234q4 10 6 16.5t2 13.5q0 16-12.5 23T424 501v42h187v-42q-25-8-34.5-16T560 461L328-83q-29-68-62.5-103.5T178-222q-31 0-53 11t-33 29v81q20-4 39-7t43-3q43 0 65.5 12.5T275-59l15 32L56 461q-7 16-16.5 24T5 501v42h342v-42q-40-5-52.5-12T282 466q0-7 2-13l5-15z"/><glyph glyph-name="z" unicode="z" horiz-adv-x="550" d="M15 0v38l280 457h-80q-38 0-68.5-38T78 339H36l14 236h40l22-32h415v-37L253 49h90q51 0 82.5 36T499 203h41L516 0H15z"/><glyph glyph-name="braceleft" unicode="{" horiz-adv-x="373" d="M50 304v20q36 7 59.5 29.5T133 424v218q0 59 48.5 93.5T348 770v-31q-35-4-60-26t-25-72V436q0-58-34-85t-87-37q53-10 87-37t34-85V-12q0-50 25-72t60-26v-31q-118 0-166.5 34.5T133-13v217q0 48-23.5 70.5T50 304z"/><glyph glyph-name="bar" unicode="|" horiz-adv-x="202" d="M142 770v-911H60v911h82z"/><glyph glyph-name="braceright" unicode="}" horiz-adv-x="383" d="M333 324v-20q-36-7-59.5-29.5T250 204V-13q0-59-48.5-93.5T35-141v31q35 4 60 26t25 72v204q0 58 34 85t87 37q-53 10-87 37t-34 85v205q0 50-25 72t-60 26v31q118 0 166.5-34.5T250 642V424q0-48 23.5-70.5T333 324z"/><glyph glyph-name="asciitilde" unicode="~" horiz-adv-x="502" d="M439 403l33-17q-23-83-59.5-126T324 217q-45 0-85 38t-81 38q-32 0-55-21.5T63 222l-33 17q23 83 59.5 126t88.5 43q45 0 85-38t81-38q32 0 55 21.5t40 49.5z"/><glyph glyph-name="uni00A0" horiz-adv-x="165"/><glyph glyph-name="exclamdown" unicode="¡" horiz-adv-x="305" d="M51 510q0 42 30 72.5t71 30.5q43 0 72.5-30.5T254 510q0-44-29.5-75T152 404q-41 0-71 31t-30 75zm68-148h67l88-461H31z"/><glyph glyph-name="cent" unicode="¢" horiz-adv-x="537" d="M187-117L206-1Q124 19 72 87.5T20 263q0 129 77.5 216.5T303 570l19 107h44l-19-109q66-6 113-38t47-95q0-31-15.5-51T458 357h-80q2 19 3 35t1 29q0 36-9 61t-34 35l-64-376q17-10 37.5-14.5T356 122q49 0 83 19.5t58 53.5l25-15q-25-99-90.5-144.5T277-10h-14l-14 1-18-108h-44zm3 452q0-55 12-95.5t34-66.5l59 349q-47-4-76-56.5T190 335z"/><glyph glyph-name="sterling" unicode="£" horiz-adv-x="712" d="M99 347v45h101l2 39q7 138 71.5 209.5T469 712q76 0 136.5-29.5T666 587q0-31-16-53t-38-29H506q6 14 10.5 33t4.5 47q0 29-6 58.5T481 673q-27 0-39.5-26T425 572l-16-180h148v-45H405q-7-64-20.5-111.5T356 161q37-13 91-19t94-6 65 15.5 25 47.5q0 12-2 19.5t-6 16.5l33 11q10-13 20.5-39t10.5-57q0-75-44-117.5T518-10q-74 0-127.5 29.5T303 76q-26-37-70.5-61.5T132-10q-55 0-88.5 29T10 97q0 51 32 79t80 28q14 0 33-2.5t35-9.5l8 155H99zm20-304q31 0 48.5 25.5T186 139q-14 8-30 15t-35 7q-28 0-43-17T63 99q0-26 15.5-41T119 43z"/><glyph glyph-name="currency" unicode="¤" horiz-adv-x="582" d="M65 542l31 31 73-75q25 21 56 32.5t66 11.5q34 0 65.5-11.5T413 498l73 75 31-31-74-74q19-25 29.5-56.5T483 345q0-36-10.5-67T443 222l74-74-31-31-73 74q-25-20-56.5-31.5T291 148q-35 0-66 11.5T169 191l-73-74-31 31 74 74q-19 25-29.5 56T99 345q0 35 10.5 66.5T139 468zm94-197q0-61 38-101t94-40 93.5 40T422 345q0 62-37.5 102T291 487t-94-40-38-102z"/><glyph glyph-name="yen" unicode="¥" horiz-adv-x="701" d="M92 351v48h94L63 620q-11 21-23.5 27T5 657v45h359v-45q-38-1-50.5-10T301 619q0-15 6-29.5t18-36.5l109-204 98 202q9 19 13.5 34.5T550 619q0 19-16 28t-48 10v45h210v-45q-21-4-35-11.5T638 620L528 399h95v-48H504l-38-78h157v-47H465V107q0-38 15-47.5T544 45V0H178v45q49 5 64 14.5t15 47.5v119H92v47h164l-44 78H92z"/><glyph glyph-name="brokenbar" unicode="¦" horiz-adv-x="202" d="M142 770V394H60v376h82zm0-535v-376H60v376h82z"/><glyph glyph-name="section" unicode="§" horiz-adv-x="531" d="M157 630q-31-33-45.5-68T97 473q0-78 33-145.5T211 194q44-63 101.5-147T374-121q31 33 45.5 68T434 36q0 77-33 144.5T320 315q-44 62-101.5 146.5T157 630zm73-833q-71 0-117.5 31.5T66-89q0 27 14 41t31 20h94v-50q0-30 11-60t54-30q31 0 43.5 18t12.5 43q0 64-52 131.5T170 165q-51 72-87 146.5T47 473q0 109 74 174t180 65q71 0 117.5-31.5T465 598q0-27-14-41t-31-20h-94v50q0 30-11 60t-54 30q-31 0-43.5-18T205 616q0-64 52-131.5T361 344q51-72 87-146.5T484 36q0-109-74-174t-180-65z"/><glyph glyph-name="dieresis" unicode="¨" d="M61 691q0 36 26 62t63 26 63.5-26 26.5-62-26.5-62-63.5-26-63 26-26 62zm210 0q0 36 26.5 62t61.5 26q38 0 64.5-26t26.5-62-26.5-62-64.5-26q-35 0-61.5 26T271 691z"/><glyph glyph-name="copyright" unicode="©" horiz-adv-x="776" d="M72 351q0-132 88.5-227T388 29t227.5 95T704 351t-88.5 227T388 673t-227.5-95T72 351zm-42 0q0 149 101 255t257 106 257-106 101-255T645 96 388-10 131 96 30 351zm390-172q37 0 62 30.5t42 85.5h40l-9-115q-27-18-64.5-28.5T407 141q-103 0-159 57.5T192 344q0 101 63.5 160.5T408 564q43 0 80.5-11.5T549 521V415h-39q-9 46-30 78.5T419 526q-51 0-71.5-53.5T327 353q0-79 22.5-126.5T420 179z"/><glyph glyph-name="ordfeminine" unicode="ª" horiz-adv-x="429" d="M197 414q9 0 15 2t13 6v111l-27-12q-19-9-27-22.5t-8-36.5 9-35.5 25-12.5zm158 158V432q0-17 5.5-26t16.5-9q5 0 12 1t14 3l6-20q-17-17-42-28.5T314 341q-33 0-56.5 17.5T227 404q-17-30-43.5-45T122 344q-40 0-66 24.5T30 434q0 43 26.5 63.5T117 529l108 35v54q0 33-5.5 49T196 683t-26-12.5-8-33.5q0-12 2.5-25.5T171 585l-92-13q-13 5-21.5 18.5T49 620q0 46 43 69t111 23q78 0 115-30t37-110z"/><glyph glyph-name="guillemotleft" unicode="«" horiz-adv-x="474" d="M20 273v6l187 202h50l-82-205 82-205h-50zm197 0v6l187 202h50l-82-205 82-205h-50z"/><glyph glyph-name="registered" unicode="®" horiz-adv-x="515" d="M242 584h-6v-97h6q21 0 33 13.5t12 35.5-12 35-33 13zm-98 24h115q54 0 77-21.5t23-49.5-16.5-43.5T307 472l46-62q7-10 14-15t15-6v-19h-70q-8 4-15.5 12.5T282 401l-42 64h-4v-51q0-14 4-19.5t20-5.5v-19H144v19q17 0 21.5 5.5T170 414v150q0 15-4.5 19t-21.5 6v19zM67 484q0-77 54-135t136-58q83 0 137 58t54 135q0 78-54 136t-137 58q-82 0-136-58T67 484zm-37 0q0 94 64 161t163 67 163.5-67T485 484q0-93-64.5-160T257 257 94 324 30 484z"/><glyph glyph-name="macron" unicode="¯" d="M110 625v95h294v-95H110z"/><glyph glyph-name="degree" unicode="°" horiz-adv-x="288" d="M77 590q0-31 18-51.5t50-20.5q31 0 48.5 20.5T211 590t-17.5 51-48.5 20q-32 0-50-20t-18-51zm-57 0q0 51 36.5 86.5T145 712q51 0 87-35.5t36-86.5q0-52-36-87.5T145 467q-52 0-88.5 35.5T20 590z"/><glyph glyph-name="plusminus" unicode="±" horiz-adv-x="576" d="M252 608h71V467h186v-70H323V257h-71v140H68v70h184v141zM68 135v71h441v-71H68z"/><glyph glyph-name="twosuperior" unicode="²" horiz-adv-x="399" d="M160 402h109q22 0 32 8.5t26 30.5h22l-11-139H30v28l117 108q32 30 47.5 57.5T210 554q0 29-16 47t-47 18q-29 0-50.5-13T61 576l-23 20q21 44 63 78t105 34q58 0 92.5-30.5T333 593q0-65-52-109t-121-82z"/><glyph glyph-name="threesuperior" unicode="³" horiz-adv-x="394" d="M224 528q57-1 93.5-28t36.5-77q0-59-51-89.5T181 303q-74 0-107.5 24.5T40 386q0 20 9 31.5T68 433h73q-3-9-4-15.5t-1-14.5q0-31 13-50t37-19q22 0 36.5 17.5T237 406t-19.5 58.5T157 486h-14l-8 23q43 17 58.5 32.5T209 579q0 20-13.5 34.5T155 628t-44.5-13T81 587l-26 20q20 40 60.5 72.5T218 712q51 0 82-24t31-67q0-42-32.5-64.5T224 528z"/><glyph glyph-name="acute" unicode="´" d="M161 766h197v-10L173 603h-59z"/><glyph glyph-name="mu" unicode="µ" horiz-adv-x="669" d="M254-10l13-161v-16L60-197v595q0 21-7 37t-28 23l-15 5v40l224 50h38l-6-132V179q0-34 14.5-53t48.5-19q19 0 32.5 2.5T394 118v280q0 21-7 37t-28 23l-15 5v40l224 50h38l-6-132V119q0-25 5-38t27-13h23V24L430-10h-39l3 98q-16-49-51.5-73.5T261-10h-7z"/><glyph glyph-name="paragraph" unicode="¶" horiz-adv-x="617" d="M313-197v391q-133 0-205.5 76.5T35 448t72.5 177.5T313 702h278v-43q-60 0-81-13.5T489 586v-783h-49v856h-78v-856h-49zm0 432v426q-53-7-80.5-73.5T205 448t27.5-139.5T313 235z"/><glyph glyph-name="periodcentered" unicode="·" horiz-adv-x="275" d="M30 305q0 47 31.5 77.5T137 413q45 0 76.5-30.5T245 305t-31.5-77-76.5-30q-44 0-75.5 30T30 305z"/><glyph glyph-name="cedilla" unicode="¸" d="M148-233l-9 37q54 0 78.5 14t24.5 33q0 20-21 25.5t-56 6.5L215 8h40l-19-46q48 0 77.5-22t29.5-62q0-57-60-84t-135-27z"/><glyph glyph-name="onesuperior" unicode="¹" horiz-adv-x="347" d="M202 712h36V383q0-26 12-32t52-9v-36H40v36q48 3 57 9t9 32v210H40v34l25 5q51 10 82 29.5t55 50.5z"/><glyph glyph-name="ordmasculine" unicode="º" horiz-adv-x="431" d="M221 373q26 0 36 37.5T267 511q0 72-14 120.5T210 680q-26 0-36-37.5T164 542q0-72 14-120.5t43-48.5zm-11-32q-84 0-134.5 50T25 520q0 88 54.5 140T221 712q84 0 134.5-50T406 533q0-88-54.5-140T210 341z"/><glyph glyph-name="guillemotright" unicode="»" horiz-adv-x="474" d="M454 279v-6L267 71h-50l82 205-82 205h50zm-197 0v-6L70 71H20l82 205-82 205h50z"/><glyph glyph-name="onequarter" unicode="¼" horiz-adv-x="808" d="M436 145h129v164zM202 712h36V383q0-26 12-32t52-9v-36H40v36q48 3 57 9t9 32v210H40v34l25 5q51 10 82 29.5t55 50.5zM746 0H514v36q31 2 41 8.5T565 77v27H378v34l199 258h118V145h78v-41h-78V77q0-26 10-32.5t41-8.5V0zM151-10l438 722h58L208-10h-57z"/><glyph glyph-name="onehalf" unicode="½" horiz-adv-x="817" d="M202 712h36V383q0-26 12-32t52-9v-36H40v36q48 3 57 9t9 32v210H40v34l25 5q51 10 82 29.5t55 50.5zm376-612h109q22 0 32 8.5t26 30.5h22L756 0H448v28l117 108q32 30 47.5 57.5T628 252q0 29-16 47t-47 18q-29 0-50.5-13T479 274l-23 20q21 44 63 78t105 34q58 0 92.5-30.5T751 291q0-65-52-109t-121-82zM151-10l438 722h58L208-10h-57z"/><glyph glyph-name="threequarters" unicode="¾" horiz-adv-x="834" d="M224 528q57-1 93.5-28t36.5-77q0-59-51-89.5T181 303q-74 0-107.5 24.5T40 386q0 20 9 31.5T68 433h73q-3-9-4-15.5t-1-14.5q0-31 13-50t37-19q22 0 36.5 17.5T237 406t-19.5 58.5T157 486h-14l-8 23q43 17 58.5 32.5T209 579q0 20-13.5 34.5T155 628t-44.5-13T81 587l-26 20q20 40 60.5 72.5T218 712q51 0 82-24t31-67q0-42-32.5-64.5T224 528zm238-383h129v164zM772 0H540v36q31 2 41 8.5T591 77v27H404v34l199 258h118V145h78v-41h-78V77q0-26 10-32.5t41-8.5V0zM177-10l438 722h58L234-10h-57z"/><glyph glyph-name="questiondown" unicode="¿" horiz-adv-x="477" d="M176 3q0-31 16-50t47-19q40 0 54.5 30T308 31q0 22-2 34t-4 27h119q22-10 33-28t11-41q0-60-61.5-96T241-109q-110 0-169 45T13 62q0 64 34.5 108T151 253q43 25 61 46t18 56v9h29q41-14 64.5-42t23.5-70q0-32-19-64t-58-60q-38-28-66-56.5T176 3zm173 507q0-44-29.5-75T248 404q-43 0-72.5 31T146 510q0 42 29.5 72.5T248 613q42 0 71.5-30.5T349 510z"/><glyph glyph-name="Agrave" unicode="À" horiz-adv-x="773" d="M461 129l-32 82H182l-30-82q-4-10-6-19.5T144 93q0-25 21-35t59-13V0H5v45q20 4 35 10.5T63 82l203 533-35 87h233L709 82q7-19 22-26t37-11V0H393v45q34 1 55 11.5T469 92q0 7-2 16.5t-6 20.5zM302 536l-99-267h203zM168 890h197l47-149h-64L168 880v10z"/><glyph glyph-name="Aacute" unicode="Á" horiz-adv-x="773" d="M461 129l-32 82H182l-30-82q-4-10-6-19.5T144 93q0-25 21-35t59-13V0H5v45q20 4 35 10.5T63 82l203 533-35 87h233L709 82q7-19 22-26t37-11V0H393v45q34 1 55 11.5T469 92q0 7-2 16.5t-6 20.5zM302 536l-99-267h203zm43 354h197v-10L362 741h-64z"/><glyph glyph-name="Acircumflex" unicode="Â" horiz-adv-x="773" d="M461 129l-32 82H182l-30-82q-4-10-6-19.5T144 93q0-25 21-35t59-13V0H5v45q20 4 35 10.5T63 82l203 533-35 87h233L709 82q7-19 22-26t37-11V0H393v45q34 1 55 11.5T469 92q0 7-2 16.5t-6 20.5zM302 536l-99-267h203zm124 357l118-152h-65l-121 65-121-65h-65l118 152h136z"/><glyph glyph-name="Atilde" unicode="Ã" horiz-adv-x="773" d="M461 129l-32 82H182l-30-82q-4-10-6-19.5T144 93q0-25 21-35t59-13V0H5v45q20 4 35 10.5T63 82l203 533-35 87h233L709 82q7-19 22-26t37-11V0H393v45q34 1 55 11.5T469 92q0 7-2 16.5t-6 20.5zM302 536l-99-267h203zm126 205q-49 0-76.5 30T292 801q-21 0-36-16t-29-39l-40 22q25 64 52 101.5t69 37.5q49 0 76.5-30t59.5-30q21 0 36 16t29 39l40-22q-25-64-52-101.5T428 741z"/><glyph glyph-name="Adieresis" unicode="Ä" horiz-adv-x="773" d="M461 129l-32 82H182l-30-82q-4-10-6-19.5T144 93q0-25 21-35t59-13V0H5v45q20 4 35 10.5T63 82l203 533-35 87h233L709 82q7-19 22-26t37-11V0H393v45q34 1 55 11.5T469 92q0 7-2 16.5t-6 20.5zM302 536l-99-267h203zM164 823q0 36 26 62t63 26 63.5-26 26.5-62-26.5-62-63.5-26-63 26-26 62zm210 0q0 36 26.5 62t61.5 26q38 0 64.5-26t26.5-62-26.5-62-64.5-26q-35 0-61.5 26T374 823z"/><glyph glyph-name="Aring" unicode="Å" horiz-adv-x="773" d="M461 129l-32 82H182l-30-82q-4-10-6-19.5T144 93q0-25 21-35t59-13V0H5v45q20 4 35 10.5T63 82l203 533-35 87h233L709 82q7-19 22-26t37-11V0H393v45q34 1 55 11.5T469 92q0 7-2 16.5t-6 20.5zM302 536l-99-267h203zm7 293q0-21 12.5-35t36.5-14 36.5 14 12.5 35q0 22-12.5 36T358 879t-36.5-14-12.5-36zm-59 0q0 44 30.5 74.5T358 934t77-30.5 30-74.5q0-43-30-73.5T358 725t-77.5 30.5T250 829z"/><glyph glyph-name="AE" unicode="Æ" horiz-adv-x="1049" d="M63 82l337 545q-13 13-35.5 20.5T308 657v45h689l5-199h-42q-40 84-71.5 116.5T785 652h-86V392h83q35 0 47.5 20.5T848 485h47V239h-47q-6 52-18.5 72.5T782 332h-83V117q0-40 19-53.5T776 50h22q70 0 101 37t86 140h50L1002 0H411v45q49 5 59 17t10 50v137H243l-74-120q-7-13-11-22t-4-19q0-21 22-31t65-12V0H5v45q20 4 33.5 11T63 82zm417 551L279 307h201v326z"/><glyph glyph-name="Ccedilla" unicode="Ç" horiz-adv-x="695" d="M311-233l-9 37q54 0 78.5 14t24.5 33q0 20-21 25.5t-56 6.5L371-9Q210-2 117.5 88.5T25 331q0 176 115 278.5T413 712q69 0 125.5-15.5T638 653l4-181h-54q-19 90-59 138t-108 48q-89 0-127.5-87T255 359q0-135 44.5-223.5T431 47q58 0 105.5 49.5T615 261h55L652 58Q610 27 546 9T410-10l-11-28q48 0 77.5-22t29.5-62q0-57-60-84t-135-27z"/><glyph glyph-name="Egrave" unicode="È" horiz-adv-x="664" d="M26 0v45q49 5 59 17t10 50v478q0 38-10 50t-59 17v45h586l5-199h-42q-40 84-71.5 116.5T400 652h-86V392h83q35 0 47.5 20.5T463 485h47V239h-47q-6 52-18.5 72.5T397 332h-83V117q0-40 19-53.5T391 50h22q70 0 101 37t86 140h50L617 0H26zm132 890h197l47-149h-64L158 880v10z"/><glyph glyph-name="Eacute" unicode="É" horiz-adv-x="664" d="M26 0v45q49 5 59 17t10 50v478q0 38-10 50t-59 17v45h586l5-199h-42q-40 84-71.5 116.5T400 652h-86V392h83q35 0 47.5 20.5T463 485h47V239h-47q-6 52-18.5 72.5T397 332h-83V117q0-40 19-53.5T391 50h22q70 0 101 37t86 140h50L617 0H26zm309 890h197v-10L352 741h-64z"/><glyph glyph-name="Ecircumflex" unicode="Ê" horiz-adv-x="664" d="M26 0v45q49 5 59 17t10 50v478q0 38-10 50t-59 17v45h586l5-199h-42q-40 84-71.5 116.5T400 652h-86V392h83q35 0 47.5 20.5T463 485h47V239h-47q-6 52-18.5 72.5T397 332h-83V117q0-40 19-53.5T391 50h22q70 0 101 37t86 140h50L617 0H26zm390 893l118-152h-65l-121 65-121-65h-65l118 152h136z"/><glyph glyph-name="Edieresis" unicode="Ë" horiz-adv-x="664" d="M26 0v45q49 5 59 17t10 50v478q0 38-10 50t-59 17v45h586l5-199h-42q-40 84-71.5 116.5T400 652h-86V392h83q35 0 47.5 20.5T463 485h47V239h-47q-6 52-18.5 72.5T397 332h-83V117q0-40 19-53.5T391 50h22q70 0 101 37t86 140h50L617 0H26zm128 823q0 36 26 62t63 26 63.5-26 26.5-62-26.5-62-63.5-26-63 26-26 62zm210 0q0 36 26.5 62t61.5 26q38 0 64.5-26t26.5-62-26.5-62-64.5-26q-35 0-61.5 26T364 823z"/><glyph glyph-name="Igrave" unicode="Ì" horiz-adv-x="409" d="M314 590V112q0-38 10-50t59-17V0H26v45q49 5 59 17t10 50v478q0 38-10 50t-59 17v45h357v-45q-49-5-59-17t-10-50zM14 890h197l47-149h-64L14 880v10z"/><glyph glyph-name="Iacute" unicode="Í" horiz-adv-x="409" d="M314 590V112q0-38 10-50t59-17V0H26v45q49 5 59 17t10 50v478q0 38-10 50t-59 17v45h357v-45q-49-5-59-17t-10-50zM191 890h197v-10L208 741h-64z"/><glyph glyph-name="Icircumflex" unicode="Î" horiz-adv-x="409" d="M314 590V112q0-38 10-50t59-17V0H26v45q49 5 59 17t10 50v478q0 38-10 50t-59 17v45h357v-45q-49-5-59-17t-10-50zm-42 303l118-152h-65l-121 65-121-65H18l118 152h136z"/><glyph glyph-name="Idieresis" unicode="Ï" horiz-adv-x="409" d="M314 590V112q0-38 10-50t59-17V0H26v45q49 5 59 17t10 50v478q0 38-10 50t-59 17v45h357v-45q-49-5-59-17t-10-50zM10 823q0 36 26 62t63 26 63.5-26 26.5-62-26.5-62T99 735t-63 26-26 62zm210 0q0 36 26.5 62t61.5 26q38 0 64.5-26t26.5-62-26.5-62-64.5-26q-35 0-61.5 26T220 823z"/><glyph glyph-name="Eth" unicode="Ð" horiz-adv-x="817" d="M36 320v68h69v202q0 38-10 50t-59 17v45h339q211 0 314-98.5T792 356q0-166-105-261T400 0H36v45q49 5 59 17t10 50v208H36zm301 332h-13V388h126v-68H324V120q0-44 16-57t47-13h6q79 0 126 80t47 208q0 148-62 231t-167 83z"/><glyph glyph-name="Ntilde" unicode="Ñ" horiz-adv-x="757" d="M598 337v253q0 38-21 50.5T496 657v45h244v-45q-49-5-59-17t-10-50V0h-82L168 516V112q0-38 21-50.5T270 45V0H26v45q49 5 59 17t10 50v480q-17 31-31 47t-38 18v45h274zM461 741q-49 0-76.5 30T325 801q-21 0-36-16t-29-39l-40 22q25 64 52 101.5t69 37.5q49 0 76.5-30t59.5-30q21 0 36 16t29 39l40-22q-25-64-52-101.5T461 741z"/><glyph glyph-name="Ograve" unicode="Ò" horiz-adv-x="758" d="M384 42q70 0 94.5 95T503 336q0 137-29 230.5T374 660q-70 0-94.5-95T255 366q0-137 29-230.5T384 42zm-15-52Q200-10 112.5 93.5T25 337q0 172 102.5 273.5T389 712q169 0 256.5-103.5T733 365q0-172-102.5-273.5T369-10zM193 890h197l47-149h-64L193 880v10z"/><glyph glyph-name="Oacute" unicode="Ó" horiz-adv-x="758" d="M384 42q70 0 94.5 95T503 336q0 137-29 230.5T374 660q-70 0-94.5-95T255 366q0-137 29-230.5T384 42zm-15-52Q200-10 112.5 93.5T25 337q0 172 102.5 273.5T389 712q169 0 256.5-103.5T733 365q0-172-102.5-273.5T369-10zm1 900h197v-10L387 741h-64z"/><glyph glyph-name="Ocircumflex" unicode="Ô" horiz-adv-x="758" d="M384 42q70 0 94.5 95T503 336q0 137-29 230.5T374 660q-70 0-94.5-95T255 366q0-137 29-230.5T384 42zm-15-52Q200-10 112.5 93.5T25 337q0 172 102.5 273.5T389 712q169 0 256.5-103.5T733 365q0-172-102.5-273.5T369-10zm82 903l118-152h-65l-121 65-121-65h-65l118 152h136z"/><glyph glyph-name="Otilde" unicode="Õ" horiz-adv-x="758" d="M384 42q70 0 94.5 95T503 336q0 137-29 230.5T374 660q-70 0-94.5-95T255 366q0-137 29-230.5T384 42zm-15-52Q200-10 112.5 93.5T25 337q0 172 102.5 273.5T389 712q169 0 256.5-103.5T733 365q0-172-102.5-273.5T369-10zm93 751q-49 0-76.5 30T326 801q-21 0-36-16t-29-39l-40 22q25 64 52 101.5t69 37.5q49 0 76.5-30t59.5-30q21 0 36 16t29 39l40-22q-25-64-52-101.5T462 741z"/><glyph glyph-name="Odieresis" unicode="Ö" horiz-adv-x="758" d="M384 42q70 0 94.5 95T503 336q0 137-29 230.5T374 660q-70 0-94.5-95T255 366q0-137 29-230.5T384 42zm-15-52Q200-10 112.5 93.5T25 337q0 172 102.5 273.5T389 712q169 0 256.5-103.5T733 365q0-172-102.5-273.5T369-10zM189 823q0 36 26 62t63 26 63.5-26 26.5-62-26.5-62-63.5-26-63 26-26 62zm210 0q0 36 26.5 62t61.5 26q38 0 64.5-26t26.5-62-26.5-62-64.5-26q-35 0-61.5 26T399 823z"/><glyph glyph-name="multiply" unicode="×" horiz-adv-x="499" d="M200 365L64 501l50 50 135-137 136 137 51-50-137-136 137-136-51-49-136 136-135-136-50 49z"/><glyph glyph-name="Oslash" unicode="Ø" horiz-adv-x="758" d="M369-10q-56 0-103 12.5T181 37l-74-97-42 32 73 95q-56 49-84.5 119.5T25 337q0 172 102.5 273.5T389 712q61 0 111.5-15t90.5-42l70 91 42-32-71-92q50-48 75.5-115T733 365q0-172-102.5-273.5T369-10zM255 366q0-37 2-71.5t6-65.5l224 291q-14 63-41.5 101.5T374 660q-70 0-94.5-95T255 366zM384 42q70 0 94.5 95T503 336q0 29-1.5 57.5T498 448L276 160q14-54 41-86t67-32z"/><glyph glyph-name="Ugrave" unicode="Ù" horiz-adv-x="763" d="M303 590V265q0-84 33.5-133.5T451 82q62 0 108.5 41.5T606 269v321q0 38-16 50.5T514 657v45h234v-45q-49-5-59-17t-10-50V249q0-132-83-195.5T394-10q-149 0-229.5 65.5T84 249v341q0 38-10 50t-59 17v45h357v-45q-49-5-59-17t-10-50zm-68 300h197l47-149h-64L235 880v10z"/><glyph glyph-name="Uacute" unicode="Ú" horiz-adv-x="763" d="M303 590V265q0-84 33.5-133.5T451 82q62 0 108.5 41.5T606 269v321q0 38-16 50.5T514 657v45h234v-45q-49-5-59-17t-10-50V249q0-132-83-195.5T394-10q-149 0-229.5 65.5T84 249v341q0 38-10 50t-59 17v45h357v-45q-49-5-59-17t-10-50zm109 300h197v-10L429 741h-64z"/><glyph glyph-name="Ucircumflex" unicode="Û" horiz-adv-x="763" d="M303 590V265q0-84 33.5-133.5T451 82q62 0 108.5 41.5T606 269v321q0 38-16 50.5T514 657v45h234v-45q-49-5-59-17t-10-50V249q0-132-83-195.5T394-10q-149 0-229.5 65.5T84 249v341q0 38-10 50t-59 17v45h357v-45q-49-5-59-17t-10-50zm190 303l118-152h-65l-121 65-121-65h-65l118 152h136z"/><glyph glyph-name="Udieresis" unicode="Ü" horiz-adv-x="763" d="M303 590V265q0-84 33.5-133.5T451 82q62 0 108.5 41.5T606 269v321q0 38-16 50.5T514 657v45h234v-45q-49-5-59-17t-10-50V249q0-132-83-195.5T394-10q-149 0-229.5 65.5T84 249v341q0 38-10 50t-59 17v45h357v-45q-49-5-59-17t-10-50zm-72 233q0 36 26 62t63 26 63.5-26 26.5-62-26.5-62-63.5-26-63 26-26 62zm210 0q0 36 26.5 62t61.5 26q38 0 64.5-26t26.5-62-26.5-62-64.5-26q-35 0-61.5 26T441 823z"/><glyph glyph-name="Yacute" unicode="Ý" horiz-adv-x="727" d="M481 258V107q0-38 15-47.5T560 45V0H188v45q49 5 64 14.5t15 47.5v146L63 620q-11 21-23.5 27T5 657v45h365v-45q-38-1-50.5-9.5T307 621q0-16 6-31t18-37l123-210 103 208q9 19 17 38t8 32q0 18-17 26.5t-49 9.5v45h206v-45q-21-4-35-11.5T664 620zm-79 632h197v-10L419 741h-64z"/><glyph glyph-name="Thorn" unicode="Þ" horiz-adv-x="687" d="M314 590v-14h76q148 0 219-60.5T680 363q0-106-74.5-164T379 141h-65v-29q0-38 25-51t90-16V0H26v45q49 5 59 17t10 50v478q0 38-10 50t-59 17v45h357v-45q-49-5-59-17t-10-50zm0-64V198h13q67 0 103.5 45T467 363q0 78-39.5 120.5T327 526h-13z"/><glyph glyph-name="germandbls" unicode="ß" horiz-adv-x="745" d="M382 783q106 0 168.5-38.5T613 639q0-81-69-106t-69-64q0-16 27.5-33.5T576 391q68-40 111-86t43-127q0-88-62-138T508-10q-52 0-95 13.5T339 42l-6 129h51q14-57 48-96.5T513 35q32 0 51.5 17.5T584 98q0 34-23.5 59T482 215q-64 38-94.5 73.5T357 373q0 84 63.5 128T484 641q0 43-24 70.5T389 739q-57 0-82-40.5T282 588V0H23v42q28 2 40.5 8T76 78v408H5v45l72 17 1 8q13 104 92.5 165.5T382 783z"/><glyph glyph-name="agrave" unicode="à" horiz-adv-x="568" d="M276 98q8 0 15 1.5t14 3.5v185l-40-15q-24-9-39-26t-15-61q0-37 14.5-62.5T276 98zm231 277V110q0-15 4-28t21-13q10 0 18.5 2t12.5 3l7-30q-26-24-60-39t-79-15q-46 0-78 21.5T308 73q-21-32-57-55.5T160-6Q96-6 54.5 29T13 130t39 98 91 50l162 56v110q0 30-9 48.5T262 511q-26 0-37-21.5T214 434q0-18 3-36.5t7-37.5l-124-16q-22 7-37 26t-15 47q0 71 65 103.5T271 553q109 0 172.5-38.5T507 375zM95 766h197l47-163h-59L95 756v10z"/><glyph glyph-name="aacute" unicode="á" horiz-adv-x="568" d="M276 98q8 0 15 1.5t14 3.5v185l-40-15q-24-9-39-26t-15-61q0-37 14.5-62.5T276 98zm231 277V110q0-15 4-28t21-13q10 0 18.5 2t12.5 3l7-30q-26-24-60-39t-79-15q-46 0-78 21.5T308 73q-21-32-57-55.5T160-6Q96-6 54.5 29T13 130t39 98 91 50l162 56v110q0 30-9 48.5T262 511q-26 0-37-21.5T214 434q0-18 3-36.5t7-37.5l-124-16q-22 7-37 26t-15 47q0 71 65 103.5T271 553q109 0 172.5-38.5T507 375zM266 766h197v-10L278 603h-59z"/><glyph glyph-name="acircumflex" unicode="â" horiz-adv-x="568" d="M276 98q8 0 15 1.5t14 3.5v185l-40-15q-24-9-39-26t-15-61q0-37 14.5-62.5T276 98zm231 277V110q0-15 4-28t21-13q10 0 18.5 2t12.5 3l7-30q-26-24-60-39t-79-15q-46 0-78 21.5T308 73q-21-32-57-55.5T160-6Q96-6 54.5 29T13 130t39 98 91 50l162 56v110q0 30-9 48.5T262 511q-26 0-37-21.5T214 434q0-18 3-36.5t7-37.5l-124-16q-22 7-37 26t-15 47q0 71 65 103.5T271 553q109 0 172.5-38.5T507 375zM349 766l118-169h-65l-121 80-121-80H95l118 169h136z"/><glyph glyph-name="atilde" unicode="ã" horiz-adv-x="568" d="M276 98q8 0 15 1.5t14 3.5v185l-40-15q-24-9-39-26t-15-61q0-37 14.5-62.5T276 98zm231 277V110q0-15 4-28t21-13q10 0 18.5 2t12.5 3l7-30q-26-24-60-39t-79-15q-46 0-78 21.5T308 73q-21-32-57-55.5T160-6Q96-6 54.5 29T13 130t39 98 91 50l162 56v110q0 30-9 48.5T262 511q-26 0-37-21.5T214 434q0-18 3-36.5t7-37.5l-124-16q-22 7-37 26t-15 47q0 71 65 103.5T271 553q109 0 172.5-38.5T507 375zM347 602q-49 0-76.5 30T211 662q-21 0-36-16t-29-39l-40 22q25 64 52 101.5t69 37.5q49 0 76.5-30t59.5-30q21 0 36 16t29 39l40-22q-25-64-52-101.5T347 602z"/><glyph glyph-name="adieresis" unicode="ä" horiz-adv-x="568" d="M276 98q8 0 15 1.5t14 3.5v185l-40-15q-24-9-39-26t-15-61q0-37 14.5-62.5T276 98zm231 277V110q0-15 4-28t21-13q10 0 18.5 2t12.5 3l7-30q-26-24-60-39t-79-15q-46 0-78 21.5T308 73q-21-32-57-55.5T160-6Q96-6 54.5 29T13 130t39 98 91 50l162 56v110q0 30-9 48.5T262 511q-26 0-37-21.5T214 434q0-18 3-36.5t7-37.5l-124-16q-22 7-37 26t-15 47q0 71 65 103.5T271 553q109 0 172.5-38.5T507 375zM87 691q0 36 26 62t63 26 63.5-26 26.5-62-26.5-62-63.5-26-63 26-26 62zm210 0q0 36 26.5 62t61.5 26q38 0 64.5-26t26.5-62-26.5-62-64.5-26q-35 0-61.5 26T297 691z"/><glyph glyph-name="aring" unicode="å" horiz-adv-x="568" d="M276 98q8 0 15 1.5t14 3.5v185l-40-15q-24-9-39-26t-15-61q0-37 14.5-62.5T276 98zm231 277V110q0-15 4-28t21-13q10 0 18.5 2t12.5 3l7-30q-26-24-60-39t-79-15q-46 0-78 21.5T308 73q-21-32-57-55.5T160-6Q96-6 54.5 29T13 130t39 98 91 50l162 56v110q0 30-9 48.5T262 511q-26 0-37-21.5T214 434q0-18 3-36.5t7-37.5l-124-16q-22 7-37 26t-15 47q0 71 65 103.5T271 553q109 0 172.5-38.5T507 375zM232 684q0-21 12.5-35t36.5-14 36.5 14 12.5 35q0 22-12.5 36T281 734t-36.5-14-12.5-36zm-59 0q0 44 30.5 74.5T281 789t77-30.5 30-74.5q0-43-30-73.5T281 580t-77.5 30.5T173 684z"/><glyph glyph-name="ae" unicode="æ" horiz-adv-x="808" d="M568 553q109 0 165.5-63T790 329v-25H482q0-78 38.5-129T630 124q42 0 78 16.5t64 53.5l21-13q-21-87-80.5-139T555-10q-63 0-116.5 23T351 80q-36-40-73.5-63T166-6Q97-6 55 29T13 130t39 98 91 50l160 55q2 11 5 21.5t6 20.5q2 68-14 102t-42 34q-23 0-33.5-21.5T214 434q0-18 3-36.5t7-37.5l-124-16q-22 7-37 26t-15 47q0 71 65 103.5T271 553q47 0 84-10t60-35q33 22 71.5 33.5T568 553zm-17-44q-37 0-51-43t-17-113h132q0 74-14 115t-50 41zM289 98q9 0 19.5 3t22.5 8q-16 31-25.5 68.5T296 260v12.5l1 12.5-20-8q-33-12-49.5-29.5T211 186q0-37 16-62.5T289 98z"/><glyph glyph-name="ccedilla" unicode="ç" horiz-adv-x="517" d="M159-233l-9 37q54 0 78.5 14t24.5 33q0 20-21 25.5t-56 6.5L220-5Q133 11 76.5 79T20 255q0 128 77.5 213T302 553q76 0 133-31t57-100q0-31-15-50t-32-26H342q2 18 3 32.5t1 27.5q0 45-13.5 72T286 505q-42 0-65-50t-23-125q0-94 40.5-148.5T353 127q43 0 75 14.5t55 47.5l24-15q-25-96-86-140T273-10h-15l-11-28q48 0 77.5-22t29.5-62q0-57-60-84t-135-27z"/><glyph glyph-name="egrave" unicode="è" horiz-adv-x="541" d="M297 553q112 0 169-63t57-161v-25H206q0-82 42-131t108-49q47 0 84 16.5t65 53.5l21-13q-21-87-80.5-139T288-10Q177-10 98.5 59.5T20 260q0 135 83.5 214T297 553zm-13-44q-37 0-55.5-43T207 353h141q0 74-14 115t-50 41zM111 766h197l47-163h-59L111 756v10z"/><glyph glyph-name="eacute" unicode="é" horiz-adv-x="541" d="M297 553q112 0 169-63t57-161v-25H206q0-82 42-131t108-49q47 0 84 16.5t65 53.5l21-13q-21-87-80.5-139T288-10Q177-10 98.5 59.5T20 260q0 135 83.5 214T297 553zm-13-44q-37 0-55.5-43T207 353h141q0 74-14 115t-50 41zm-2 257h197v-10L294 603h-59z"/><glyph glyph-name="ecircumflex" unicode="ê" horiz-adv-x="541" d="M297 553q112 0 169-63t57-161v-25H206q0-82 42-131t108-49q47 0 84 16.5t65 53.5l21-13q-21-87-80.5-139T288-10Q177-10 98.5 59.5T20 260q0 135 83.5 214T297 553zm-13-44q-37 0-55.5-43T207 353h141q0 74-14 115t-50 41zm81 257l118-169h-65l-121 80-121-80h-65l118 169h136z"/><glyph glyph-name="edieresis" unicode="ë" horiz-adv-x="541" d="M297 553q112 0 169-63t57-161v-25H206q0-82 42-131t108-49q47 0 84 16.5t65 53.5l21-13q-21-87-80.5-139T288-10Q177-10 98.5 59.5T20 260q0 135 83.5 214T297 553zm-13-44q-37 0-55.5-43T207 353h141q0 74-14 115t-50 41zM103 691q0 36 26 62t63 26 63.5-26 26.5-62-26.5-62-63.5-26-63 26-26 62zm210 0q0 36 26.5 62t61.5 26q38 0 64.5-26t26.5-62-26.5-62-64.5-26q-35 0-61.5 26T313 691z"/><glyph glyph-name="igrave" unicode="ì" horiz-adv-x="350" d="M281 553V78q0-22 12.5-28t40.5-8V0H22v42q28 2 40.5 8T75 78v350l-53 34v31l223 60h36zM-4 766h197l47-163h-59L-4 756v10z"/><glyph glyph-name="iacute" unicode="í" horiz-adv-x="350" d="M281 553V78q0-22 12.5-28t40.5-8V0H22v42q28 2 40.5 8T75 78v350l-53 34v31l223 60h36zM167 766h197v-10L179 603h-59z"/><glyph glyph-name="icircumflex" unicode="î" horiz-adv-x="350" d="M238 766l107-167h-59l-110 79-110-79H6l108 167h124zm43-213V78q0-22 12.5-28t40.5-8V0H22v42q28 2 40.5 8T75 78v350l-53 34v31l223 60h36z"/><glyph glyph-name="idieresis" unicode="ï" horiz-adv-x="350" d="M281 553V78q0-22 12.5-28t40.5-8V0H22v42q28 2 40.5 8T75 78v350l-53 34v31l223 60h36zM-19 691q0 36 26 62t63 26 63.5-26 26.5-62-26.5-62T70 603 7 629t-26 62zm210 0q0 36 26.5 62t61.5 26q38 0 64.5-26t26.5-62-26.5-62-64.5-26q-35 0-61.5 26T191 691z"/><glyph glyph-name="eth" unicode="ð" horiz-adv-x="618" d="M122 589l-13 46 152 46q-29 23-66.5 41T109 751l21 37q73-7 134-26t110-46l136 42 13-46-97-30q89-67 130.5-160.5T598 332q0-153-75-247.5T304-10Q176-10 98 70T20 266q0 131 81.5 208.5T287 552q21 0 43-6t34-18q-12 32-27.5 61T299 643zM315 34q40 0 53 53t13 146q0 128-16.5 202T305 509q-40 0-53-53t-13-146q0-128 16.5-202T315 34z"/><glyph glyph-name="ntilde" unicode="ñ" horiz-adv-x="684" d="M417 78v293q0 28-12.5 45T355 433q-21 0-39-3.5t-35-9.5V78q0-22 11-28t39-8V0H22v42q28 2 40.5 8T75 78v350l-53 34v31l223 60h40l-4-101q27 35 72 68t115 33q72 0 113.5-41T623 389V78q0-22 12.5-28t40.5-8V0H367v42q28 2 39 8t11 28zm10 524q-49 0-76.5 30T291 662q-21 0-36-16t-29-39l-40 22q25 64 52 101.5t69 37.5q49 0 76.5-30t59.5-30q21 0 36 16t29 39l40-22q-25-64-52-101.5T427 602z"/><glyph glyph-name="ograve" unicode="ò" horiz-adv-x="620" d="M315 34q40 0 53 53t13 146q0 128-16.5 202T305 509q-40 0-53-53t-13-146q0-128 16.5-202T315 34zm-5-44q-128 0-209 73.5T20 262t81 208 209 83 209-73.5T600 281 519 73 310-10zM128 766h197l47-163h-59L128 756v10z"/><glyph glyph-name="oacute" unicode="ó" horiz-adv-x="620" d="M315 34q40 0 53 53t13 146q0 128-16.5 202T305 509q-40 0-53-53t-13-146q0-128 16.5-202T315 34zm-5-44q-128 0-209 73.5T20 262t81 208 209 83 209-73.5T600 281 519 73 310-10zm-11 776h197v-10L311 603h-59z"/><glyph glyph-name="ocircumflex" unicode="ô" horiz-adv-x="620" d="M315 34q40 0 53 53t13 146q0 128-16.5 202T305 509q-40 0-53-53t-13-146q0-128 16.5-202T315 34zm-5-44q-128 0-209 73.5T20 262t81 208 209 83 209-73.5T600 281 519 73 310-10zm72 776l118-169h-65l-121 80-121-80h-65l118 169h136z"/><glyph glyph-name="otilde" unicode="õ" horiz-adv-x="620" d="M315 34q40 0 53 53t13 146q0 128-16.5 202T305 509q-40 0-53-53t-13-146q0-128 16.5-202T315 34zm-5-44q-128 0-209 73.5T20 262t81 208 209 83 209-73.5T600 281 519 73 310-10zm70 612q-49 0-76.5 30T244 662q-21 0-36-16t-29-39l-40 22q25 64 52 101.5t69 37.5q49 0 76.5-30t59.5-30q21 0 36 16t29 39l40-22q-25-64-52-101.5T380 602z"/><glyph glyph-name="odieresis" unicode="ö" horiz-adv-x="620" d="M315 34q40 0 53 53t13 146q0 128-16.5 202T305 509q-40 0-53-53t-13-146q0-128 16.5-202T315 34zm-5-44q-128 0-209 73.5T20 262t81 208 209 83 209-73.5T600 281 519 73 310-10zM120 691q0 36 26 62t63 26 63.5-26 26.5-62-26.5-62-63.5-26-63 26-26 62zm210 0q0 36 26.5 62t61.5 26q38 0 64.5-26t26.5-62-26.5-62-64.5-26q-35 0-61.5 26T330 691z"/><glyph glyph-name="divide" unicode="÷" horiz-adv-x="576" d="M66 333v72h444v-72H66zm161-138q0 26 17.5 44t42.5 18 43.5-18 18.5-44q0-25-18.5-43T287 134t-42.5 18-17.5 43zm0 348q0 25 17.5 42.5T287 603t43.5-17.5T349 543t-18.5-43.5T287 481t-42.5 18.5T227 543z"/><glyph glyph-name="oslash" unicode="ø" horiz-adv-x="620" d="M310-10q-43 0-81 8.5T159 23L98-60 60-33l59 81q-46 35-72.5 90T20 262q0 125 81 208t209 83q43 0 82-9t71-26l57 78 38-27-56-76q46-35 72-89t26-123q0-125-81-208T310-10zm-71 320q0-26 .5-50t1.5-45l131 179q-8 54-24 84.5T305 509q-40 0-53-53t-13-146zm76-276q40 0 53 53t13 146q0 24-1 47t-2 43L248 145q8-53 24-82t43-29z"/><glyph glyph-name="ugrave" unicode="ù" horiz-adv-x="669" d="M600 421V119q0-25 5-38t27-13h23V24L430-10h-39l3 98q-25-34-68-66T214-10q-67 0-110.5 42T60 161v237q0 21-7 37t-28 23l-15 5v40l224 50h38l-6-132V179q0-34 14.5-53t48.5-19q19 0 32.5 2.5T394 118v280q0 21-7 37t-28 23l-15 5v40l224 50h38zM148 766h197l47-163h-59L148 756v10z"/><glyph glyph-name="uacute" unicode="ú" horiz-adv-x="669" d="M600 421V119q0-25 5-38t27-13h23V24L430-10h-39l3 98q-25-34-68-66T214-10q-67 0-110.5 42T60 161v237q0 21-7 37t-28 23l-15 5v40l224 50h38l-6-132V179q0-34 14.5-53t48.5-19q19 0 32.5 2.5T394 118v280q0 21-7 37t-28 23l-15 5v40l224 50h38zM319 766h197v-10L331 603h-59z"/><glyph glyph-name="ucircumflex" unicode="û" horiz-adv-x="669" d="M600 421V119q0-25 5-38t27-13h23V24L430-10h-39l3 98q-25-34-68-66T214-10q-67 0-110.5 42T60 161v237q0 21-7 37t-28 23l-15 5v40l224 50h38l-6-132V179q0-34 14.5-53t48.5-19q19 0 32.5 2.5T394 118v280q0 21-7 37t-28 23l-15 5v40l224 50h38zM402 766l118-169h-65l-121 80-121-80h-65l118 169h136z"/><glyph glyph-name="udieresis" unicode="ü" horiz-adv-x="669" d="M600 421V119q0-25 5-38t27-13h23V24L430-10h-39l3 98q-25-34-68-66T214-10q-67 0-110.5 42T60 161v237q0 21-7 37t-28 23l-15 5v40l224 50h38l-6-132V179q0-34 14.5-53t48.5-19q19 0 32.5 2.5T394 118v280q0 21-7 37t-28 23l-15 5v40l224 50h38zM140 691q0 36 26 62t63 26 63.5-26 26.5-62-26.5-62-63.5-26-63 26-26 62zm210 0q0 36 26.5 62t61.5 26q38 0 64.5-26t26.5-62-26.5-62-64.5-26q-35 0-61.5 26T350 691z"/><glyph glyph-name="yacute" unicode="ý" horiz-adv-x="616" d="M387 202l94 234q4 10 6 16.5t2 13.5q0 16-12.5 23T424 501v42h187v-42q-25-8-34.5-16T560 461L328-83q-29-68-62.5-103.5T178-222q-31 0-53 11t-33 29v81q20-4 39-7t43-3q43 0 65.5 12.5T275-59l15 32L56 461q-7 16-16.5 24T5 501v42h342v-42q-40-5-52.5-12T282 466q0-7 2-13l5-15zm-48 564h197v-10L351 603h-59z"/><glyph glyph-name="thorn" unicode="þ" horiz-adv-x="655" d="M425 247q0 101-32.5 143.5T310 433q-12 0-23-2t-23-7V141q0-44 12-72t49-28q50 0 75 59.5T425 247zM58-134v811L5 704v34l224 45h35V454q19 33 61 66t107 33q87 0 145-61t58-186q0-157-84-236.5T345-10q-27 0-48.5 4.5T264 7v-136q0-26 16-31.5t58-9.5v-42H5v42q28 2 40.5 8T58-134z"/><glyph glyph-name="ydieresis" unicode="ÿ" horiz-adv-x="616" d="M387 202l94 234q4 10 6 16.5t2 13.5q0 16-12.5 23T424 501v42h187v-42q-25-8-34.5-16T560 461L328-83q-29-68-62.5-103.5T178-222q-31 0-53 11t-33 29v81q20-4 39-7t43-3q43 0 65.5 12.5T275-59l15 32L56 461q-7 16-16.5 24T5 501v42h342v-42q-40-5-52.5-12T282 466q0-7 2-13l5-15zM160 691q0 36 26 62t63 26 63.5-26 26.5-62-26.5-62-63.5-26-63 26-26 62zm210 0q0 36 26.5 62t61.5 26q38 0 64.5-26t26.5-62-26.5-62-64.5-26q-35 0-61.5 26T370 691z"/><glyph glyph-name="Amacron" unicode="Ā" horiz-adv-x="773" d="M461 129l-32 82H182l-30-82q-4-10-6-19.5T144 93q0-25 21-35t59-13V0H5v45q20 4 35 10.5T63 82l203 533-35 87h233L709 82q7-19 22-26t37-11V0H393v45q34 1 55 11.5T469 92q0 7-2 16.5t-6 20.5zM302 536l-99-267h203zm-91 210v95h294v-95H211z"/><glyph glyph-name="amacron" unicode="ā" horiz-adv-x="568" d="M276 98q8 0 15 1.5t14 3.5v185l-40-15q-24-9-39-26t-15-61q0-37 14.5-62.5T276 98zm231 277V110q0-15 4-28t21-13q10 0 18.5 2t12.5 3l7-30q-26-24-60-39t-79-15q-46 0-78 21.5T308 73q-21-32-57-55.5T160-6Q96-6 54.5 29T13 130t39 98 91 50l162 56v110q0 30-9 48.5T262 511q-26 0-37-21.5T214 434q0-18 3-36.5t7-37.5l-124-16q-22 7-37 26t-15 47q0 71 65 103.5T271 553q109 0 172.5-38.5T507 375zM134 625v95h294v-95H134z"/><glyph glyph-name="Abreve" unicode="Ă" horiz-adv-x="773" d="M461 129l-32 82H182l-30-82q-4-10-6-19.5T144 93q0-25 21-35t59-13V0H5v45q20 4 35 10.5T63 82l203 533-35 87h233L709 82q7-19 22-26t37-11V0H393v45q34 1 55 11.5T469 92q0 7-2 16.5t-6 20.5zM302 536l-99-267h203zm56 202q-72 0-111 42t-39 114h51q7-35 36.5-47t62.5-12 62.5 12 36.5 47h51q0-72-39-114t-111-42z"/><glyph glyph-name="abreve" unicode="ă" horiz-adv-x="568" d="M276 98q8 0 15 1.5t14 3.5v185l-40-15q-24-9-39-26t-15-61q0-37 14.5-62.5T276 98zm231 277V110q0-15 4-28t21-13q10 0 18.5 2t12.5 3l7-30q-26-24-60-39t-79-15q-46 0-78 21.5T308 73q-21-32-57-55.5T160-6Q96-6 54.5 29T13 130t39 98 91 50l162 56v110q0 30-9 48.5T262 511q-26 0-37-21.5T214 434q0-18 3-36.5t7-37.5l-124-16q-22 7-37 26t-15 47q0 71 65 103.5T271 553q109 0 172.5-38.5T507 375zM281 598q-72 0-110.5 45.5T132 768h50q6-40 34-55t65-15 65 15 34 55h50q0-79-38.5-124.5T281 598z"/><glyph glyph-name="Aogonek" unicode="Ą" horiz-adv-x="773" d="M302 536l-99-267h203zm92-507q32 13 54.5 23T471 87q0 7-2 16.5t-6 20.5l-34 87H182l-30-82q-4-10-6-19.5T144 93q0-25 21-35t59-13V0H5v45q20 4 35 10.5T63 82l203 533-35 87h233L709 82q7-19 22-26t37-11V0H425q-33-10-46.5-34T365-85q0-25 13-40.5t36-15.5q15 0 27 5.5t28 15.5l17-21q-29-37-60.5-56T354-216t-71 24.5-31 75.5q0 55 41 88.5T394 29z"/><glyph glyph-name="aogonek" unicode="ą" horiz-adv-x="568" d="M507 375V110q0-15 4-28t21-13q10 0 18.5 2t12.5 3l7-30q-38-34-90-56t-52-79q0-21 11.5-35.5T473-141q18 0 30.5 5.5T532-120l17-21q-29-37-61-56t-77-19q-39 0-67.5 22T315-132q0 41 25.5 70.5T409-10q-35 6-62.5 27.5T308 73q-21-32-57-55.5T160-6Q96-6 54.5 29T13 130t39 98 91 50l162 56v110q0 30-9 48.5T262 511q-26 0-37-21.5T214 434q0-18 3-36.5t7-37.5l-124-16q-22 7-37 26t-15 47q0 71 65 103.5T271 553q109 0 172.5-38.5T507 375zM276 98q8 0 15 1.5t14 3.5v185l-40-15q-24-9-39-26t-15-61q0-37 14.5-62.5T276 98z"/><glyph glyph-name="Cacute" unicode="Ć" horiz-adv-x="695" d="M413 712q69 0 125.5-15.5T638 653l4-181h-54q-19 90-59 138t-108 48q-89 0-127.5-87T255 359q0-135 44.5-223.5T431 47q58 0 105.5 49.5T615 261h55L652 58Q609 26 542 8T401-10q-174 0-275 91T25 331q0 176 115 278.5T413 712zm-9 178h197v-10L421 741h-64z"/><glyph glyph-name="cacute" unicode="ć" horiz-adv-x="517" d="M198 330q0-94 40.5-148.5T353 127q43 0 75 14.5t55 47.5l24-15q-25-96-86-140T273-10Q167-10 93.5 60.5T20 255q0 128 77.5 213T302 553q76 0 133-31t57-100q0-31-15-50t-32-26H342q2 18 3 32.5t1 27.5q0 45-13.5 72T286 505q-42 0-65-50t-23-125zm88 436h197v-10L298 603h-59z"/><glyph glyph-name="Ccircumflex" unicode="Ĉ" horiz-adv-x="695" d="M413 712q69 0 125.5-15.5T638 653l4-181h-54q-19 90-59 138t-108 48q-89 0-127.5-87T255 359q0-135 44.5-223.5T431 47q58 0 105.5 49.5T615 261h55L652 58Q609 26 542 8T401-10q-174 0-275 91T25 331q0 176 115 278.5T413 712zm72 181l118-152h-65l-121 65-121-65h-65l118 152h136z"/><glyph glyph-name="ccircumflex" unicode="ĉ" horiz-adv-x="517" d="M198 330q0-94 40.5-148.5T353 127q43 0 75 14.5t55 47.5l24-15q-25-96-86-140T273-10Q167-10 93.5 60.5T20 255q0 128 77.5 213T302 553q76 0 133-31t57-100q0-31-15-50t-32-26H342q2 18 3 32.5t1 27.5q0 45-13.5 72T286 505q-42 0-65-50t-23-125zm161 436l118-169h-65l-121 80-121-80h-65l118 169h136z"/><glyph glyph-name="Cdotaccent" unicode="Ċ" horiz-adv-x="695" d="M413 712q69 0 125.5-15.5T638 653l4-181h-54q-19 90-59 138t-108 48q-89 0-127.5-87T255 359q0-135 44.5-223.5T431 47q58 0 105.5 49.5T615 261h55L652 58Q609 26 542 8T401-10q-174 0-275 91T25 331q0 176 115 278.5T413 712zm4 25q-50 0-78 29.5T311 836t28 69.5 78 29.5q49 0 77.5-29.5T523 836t-28.5-69.5T417 737z"/><glyph glyph-name="cdotaccent" unicode="ċ" horiz-adv-x="517" d="M198 330q0-94 40.5-148.5T353 127q43 0 75 14.5t55 47.5l24-15q-25-96-86-140T273-10Q167-10 93.5 60.5T20 255q0 128 77.5 213T302 553q76 0 133-31t57-100q0-31-15-50t-32-26H342q2 18 3 32.5t1 27.5q0 45-13.5 72T286 505q-42 0-65-50t-23-125zm98 264q-50 0-78 29.5T190 693t28 69.5 78 29.5q49 0 77.5-29.5T402 693t-28.5-69.5T296 594z"/><glyph glyph-name="Ccaron" unicode="Č" horiz-adv-x="695" d="M413 712q69 0 125.5-15.5T638 653l4-181h-54q-19 90-59 138t-108 48q-89 0-127.5-87T255 359q0-135 44.5-223.5T431 47q58 0 105.5 49.5T615 261h55L652 58Q609 26 542 8T401-10q-174 0-275 91T25 331q0 176 115 278.5T413 712zm190 182L485 742H349L231 894h65l121-65 121 65h65z"/><glyph glyph-name="ccaron" unicode="č" horiz-adv-x="517" d="M198 330q0-94 40.5-148.5T353 127q43 0 75 14.5t55 47.5l24-15q-25-96-86-140T273-10Q167-10 93.5 60.5T20 255q0 128 77.5 213T302 553q76 0 133-31t57-100q0-31-15-50t-32-26H342q2 18 3 32.5t1 27.5q0 45-13.5 72T286 505q-42 0-65-50t-23-125zm285 441L365 602H229L111 771h65l121-80 121 80h65z"/><glyph glyph-name="Dcaron" unicode="Ď" horiz-adv-x="807" d="M327 652h-13V120q0-44 16-57t47-13h6q79 0 126 80t47 208q0 148-62 231t-167 83zM390 0H26v45q49 5 59 17t10 50v478q0 38-10 50t-59 17v45h339q211 0 314-98.5T782 356q0-166-105-261T390 0zm168 894L440 742H304L186 894h65l121-65 121 65h65z"/><glyph glyph-name="dcaron" unicode="ď" horiz-adv-x="660" d="M325 486q-49 0-73-49t-24-130q0-92 30-148.5t83-56.5q10 0 21.5 1.5T385 109v284q0 46-12 69.5T325 486zm60 191l-53 27v34l224 45h35V119q0-25 5-38t27-13h23V24L421-10h-39l3 95q-31-48-72-71.5T222-10q-87 0-144.5 66T20 247q0 148 79.5 224.5T290 548q29 0 54-7t41-20v156zm412 94L678 578h-47l11 205h155v-12z"/><glyph glyph-name="Dcroat" unicode="Đ" horiz-adv-x="817" d="M36 320v68h69v202q0 38-10 50t-59 17v45h339q211 0 314-98.5T792 356q0-166-105-261T400 0H36v45q49 5 59 17t10 50v208H36zm301 332h-13V388h126v-68H324V120q0-44 16-57t47-13h6q79 0 126 80t47 208q0 148-62 231t-167 83z"/><glyph glyph-name="dcroat" unicode="đ" horiz-adv-x="660" d="M385 677l-53 27v34l224 45h35V643h55v-56h-55V119q0-25 5-38t27-13h23V24L421-10h-39l3 95q-31-48-72-71.5T222-10q-87 0-144.5 66T20 247q0 148 79.5 224.5T290 548q29 0 54-7t41-20v66H269v56h116v34zm-60-191q-49 0-73-49t-24-130q0-92 30-148.5t83-56.5q10 0 21.5 1.5T385 109v284q0 46-12 69.5T325 486z"/><glyph glyph-name="Emacron" unicode="Ē" horiz-adv-x="664" d="M26 0v45q49 5 59 17t10 50v478q0 38-10 50t-59 17v45h586l5-199h-42q-40 84-71.5 116.5T400 652h-86V392h83q35 0 47.5 20.5T463 485h47V239h-47q-6 52-18.5 72.5T397 332h-83V117q0-40 19-53.5T391 50h22q70 0 101 37t86 140h50L617 0H26zm175 746v95h294v-95H201z"/><glyph glyph-name="emacron" unicode="ē" horiz-adv-x="541" d="M297 553q112 0 169-63t57-161v-25H206q0-82 42-131t108-49q47 0 84 16.5t65 53.5l21-13q-21-87-80.5-139T288-10Q177-10 98.5 59.5T20 260q0 135 83.5 214T297 553zm-13-44q-37 0-55.5-43T207 353h141q0 74-14 115t-50 41zM150 625v95h294v-95H150z"/><glyph glyph-name="Ebreve" unicode="Ĕ" horiz-adv-x="664" d="M26 0v45q49 5 59 17t10 50v478q0 38-10 50t-59 17v45h586l5-199h-42q-40 84-71.5 116.5T400 652h-86V392h83q35 0 47.5 20.5T463 485h47V239h-47q-6 52-18.5 72.5T397 332h-83V117q0-40 19-53.5T391 50h22q70 0 101 37t86 140h50L617 0H26zm322 738q-72 0-111 42t-39 114h51q7-35 36.5-47t62.5-12 62.5 12 36.5 47h51q0-72-39-114t-111-42z"/><glyph glyph-name="ebreve" unicode="ĕ" horiz-adv-x="541" d="M297 553q112 0 169-63t57-161v-25H206q0-82 42-131t108-49q47 0 84 16.5t65 53.5l21-13q-21-87-80.5-139T288-10Q177-10 98.5 59.5T20 260q0 135 83.5 214T297 553zm-13-44q-37 0-55.5-43T207 353h141q0 74-14 115t-50 41zm13 89q-72 0-110.5 45.5T148 768h50q6-40 34-55t65-15 65 15 34 55h50q0-79-38.5-124.5T297 598z"/><glyph glyph-name="Edotaccent" unicode="Ė" horiz-adv-x="664" d="M26 0v45q49 5 59 17t10 50v478q0 38-10 50t-59 17v45h586l5-199h-42q-40 84-71.5 116.5T400 652h-86V392h83q35 0 47.5 20.5T463 485h47V239h-47q-6 52-18.5 72.5T397 332h-83V117q0-40 19-53.5T391 50h22q70 0 101 37t86 140h50L617 0H26zm322 737q-50 0-78 29.5T242 836t28 69.5 78 29.5q49 0 77.5-29.5T454 836t-28.5-69.5T348 737z"/><glyph glyph-name="edotaccent" unicode="ė" horiz-adv-x="541" d="M297 553q112 0 169-63t57-161v-25H206q0-82 42-131t108-49q47 0 84 16.5t65 53.5l21-13q-21-87-80.5-139T288-10Q177-10 98.5 59.5T20 260q0 135 83.5 214T297 553zm-13-44q-37 0-55.5-43T207 353h141q0 74-14 115t-50 41zm13 85q-50 0-78 29.5T191 693t28 69.5 78 29.5q49 0 77.5-29.5T403 693t-28.5-69.5T297 594z"/><glyph glyph-name="Eogonek" unicode="Ę" horiz-adv-x="664" d="M26 0v45q49 5 59 17t10 50v478q0 38-10 50t-59 17v45h586l5-199h-42q-40 84-71.5 116.5T400 652h-86V392h83q35 0 47.5 20.5T463 485h47V239h-47q-6 52-18.5 72.5T397 332h-83V117q0-40 19-53.5T391 50h22q70 0 101 37t86 140h50L617 0H510q-26-19-39-41t-13-50q0-21 11.5-35.5T503-141q18 0 30.5 5.5T562-120l17-21q-29-37-61-56t-77-19q-39 0-67.5 22T345-132q0 45 29.5 77.5T447 0H26z"/><glyph glyph-name="eogonek" unicode="ę" horiz-adv-x="541" d="M301 553q109 0 165.5-63T523 329v-25H206q0-82 42-131t108-49q47 0 84 16.5t65 53.5l21-13q-15-60-47.5-102.5T397 11q-35-18-53.5-41T325-82q0-28 12.5-43.5T372-141q18 0 30.5 5.5T431-120l17-21q-29-37-61-56t-77-19q-39 0-68 22t-29 62 24.5 70T299-10h-11Q177-10 98.5 59.5T20 260q0 135 84 214t197 79zm-17-44q-37 0-55.5-43T207 353h141q0 74-14 115t-50 41z"/><glyph glyph-name="Ecaron" unicode="Ě" horiz-adv-x="664" d="M26 0v45q49 5 59 17t10 50v478q0 38-10 50t-59 17v45h586l5-199h-42q-40 84-71.5 116.5T400 652h-86V392h83q35 0 47.5 20.5T463 485h47V239h-47q-6 52-18.5 72.5T397 332h-83V117q0-40 19-53.5T391 50h22q70 0 101 37t86 140h50L617 0H26zm508 894L416 742H280L162 894h65l121-65 121 65h65z"/><glyph glyph-name="ecaron" unicode="ě" horiz-adv-x="541" d="M297 553q112 0 169-63t57-161v-25H206q0-82 42-131t108-49q47 0 84 16.5t65 53.5l21-13q-21-87-80.5-139T288-10Q177-10 98.5 59.5T20 260q0 135 83.5 214T297 553zm-13-44q-37 0-55.5-43T207 353h141q0 74-14 115t-50 41zm199 262L365 602H229L111 771h65l121-80 121 80h65z"/><glyph glyph-name="Gcircumflex" unicode="Ĝ" horiz-adv-x="752" d="M469 50v172q0 38-10 50t-59 17v45h342v-45q-49-5-59-17t-10-50V56Q621 23 548 6.5T394-10q-183 0-276 98T25 332q0 176 116 278t276 102q69 0 126.5-15.5T644 653l4-181h-54q-19 90-59.5 138T425 658q-90 0-130-87t-40-212 42-219.5T425 45q13 0 23 1t21 4zm26 843l118-152h-65l-121 65-121-65h-65l118 152h136z"/><glyph glyph-name="gcircumflex" unicode="ĝ" horiz-adv-x="571" d="M265 187q-28 0-58 4t-58 13q-10-9-17.5-19.5T124 160q0-11 7-19t20-8h223q107 0 153.5-42.5T574-21q0-98-85.5-150T263-223q-122 0-194 31t-72 90q0 37 30.5 54T89-28Q57-15 39 14.5T21 76q0 51 30 84.5t70 54.5q-42 19-69.5 54.5T24 360q0 91 71 142t179 51q31 0 54.5-4t42.5-9l183 4v-72h-47l-57 2q28-19 44.5-47.5T511 361q0-84-71-129t-175-45zM386-54H112q-3-4-4-11.5T107-81q0-43 44.5-67T266-172q65 0 116.5 17T434-92q0 19-12 28.5T386-54zM272 230q31 0 41 34.5T323 366q0 55-13.5 98.5T265 508q-30 0-40.5-34.5T214 376q0-59 14-102.5t44-43.5zm81 536l118-169h-65l-121 80-121-80H99l118 169h136z"/><glyph glyph-name="Gbreve" unicode="Ğ" horiz-adv-x="752" d="M469 50v172q0 38-10 50t-59 17v45h342v-45q-49-5-59-17t-10-50V56Q621 23 548 6.5T394-10q-183 0-276 98T25 332q0 176 116 278t276 102q69 0 126.5-15.5T644 653l4-181h-54q-19 90-59.5 138T425 658q-90 0-130-87t-40-212 42-219.5T425 45q13 0 23 1t21 4zm-42 688q-72 0-111 42t-39 114h51q7-35 36.5-47t62.5-12 62.5 12 36.5 47h51q0-72-39-114t-111-42z"/><glyph glyph-name="gbreve" unicode="ğ" horiz-adv-x="571" d="M265 187q-28 0-58 4t-58 13q-10-9-17.5-19.5T124 160q0-11 7-19t20-8h223q107 0 153.5-42.5T574-21q0-98-85.5-150T263-223q-122 0-194 31t-72 90q0 37 30.5 54T89-28Q57-15 39 14.5T21 76q0 51 30 84.5t70 54.5q-42 19-69.5 54.5T24 360q0 91 71 142t179 51q31 0 54.5-4t42.5-9l183 4v-72h-47l-57 2q28-19 44.5-47.5T511 361q0-84-71-129t-175-45zM386-54H112q-3-4-4-11.5T107-81q0-43 44.5-67T266-172q65 0 116.5 17T434-92q0 19-12 28.5T386-54zM272 230q31 0 41 34.5T323 366q0 55-13.5 98.5T265 508q-30 0-40.5-34.5T214 376q0-59 14-102.5t44-43.5zm13 368q-72 0-110.5 45.5T136 768h50q6-40 34-55t65-15 65 15 34 55h50q0-79-38.5-124.5T285 598z"/><glyph glyph-name="Gdotaccent" unicode="Ġ" horiz-adv-x="752" d="M469 50v172q0 38-10 50t-59 17v45h342v-45q-49-5-59-17t-10-50V56Q621 23 548 6.5T394-10q-183 0-276 98T25 332q0 176 116 278t276 102q69 0 126.5-15.5T644 653l4-181h-54q-19 90-59.5 138T425 658q-90 0-130-87t-40-212 42-219.5T425 45q13 0 23 1t21 4zm-42 687q-50 0-78 29.5T321 836t28 69.5 78 29.5q49 0 77.5-29.5T533 836t-28.5-69.5T427 737z"/><glyph glyph-name="gdotaccent" unicode="ġ" horiz-adv-x="571" d="M265 187q-28 0-58 4t-58 13q-10-9-17.5-19.5T124 160q0-11 7-19t20-8h223q107 0 153.5-42.5T574-21q0-98-85.5-150T263-223q-122 0-194 31t-72 90q0 37 30.5 54T89-28Q57-15 39 14.5T21 76q0 51 30 84.5t70 54.5q-42 19-69.5 54.5T24 360q0 91 71 142t179 51q31 0 54.5-4t42.5-9l183 4v-72h-47l-57 2q28-19 44.5-47.5T511 361q0-84-71-129t-175-45zM386-54H112q-3-4-4-11.5T107-81q0-43 44.5-67T266-172q65 0 116.5 17T434-92q0 19-12 28.5T386-54zM272 230q31 0 41 34.5T323 366q0 55-13.5 98.5T265 508q-30 0-40.5-34.5T214 376q0-59 14-102.5t44-43.5zm13 364q-50 0-78 29.5T179 693t28 69.5 78 29.5q49 0 77.5-29.5T391 693t-28.5-69.5T285 594z"/><glyph glyph-name="Gcommaaccent" unicode="Ģ" horiz-adv-x="752" d="M469 50v172q0 38-10 50t-59 17v45h342v-45q-49-5-59-17t-10-50V56Q621 23 548 6.5T394-10q-183 0-276 98T25 332q0 176 116 278t276 102q69 0 126.5-15.5T644 653l4-181h-54q-19 90-59.5 138T425 658q-90 0-130-87t-40-212 42-219.5T425 45q13 0 23 1t21 4zm-28-208h-56q-22 6-36 20.5T335-96t22.5 45.5T420-32q46 0 72-27.5t26-68.5q0-51-41.5-86.5T341-250v40q50 0 74.5 16t25.5 36z"/><glyph glyph-name="gcommaaccent" unicode="ģ" horiz-adv-x="571" d="M265 187q-28 0-58 4t-58 13q-10-9-17.5-19.5T124 160q0-11 7-19t20-8h223q107 0 153.5-42.5T574-21q0-98-85.5-150T263-223q-122 0-194 31t-72 90q0 37 30.5 54T89-28Q57-15 39 14.5T21 76q0 51 30 84.5t70 54.5q-42 19-69.5 54.5T24 360q0 91 71 142t179 51q31 0 54.5-4t42.5-9l183 4v-72h-47l-57 2q28-19 44.5-47.5T511 361q0-84-71-129t-175-45zM386-54H112q-3-4-4-11.5T107-81q0-43 44.5-67T266-172q65 0 116.5 17T434-92q0 19-12 28.5T386-54zM272 230q31 0 41 34.5T323 366q0 55-13.5 98.5T265 508q-30 0-40.5-34.5T214 376q0-59 14-102.5t44-43.5zm-1 485h56q22-6 36-20.5t14-41.5-22.5-45.5T292 589q-46 0-72 27.5T194 685q0 51 41.5 86.5T371 807v-40q-50 0-74.5-16T271 715z"/><glyph glyph-name="Hcircumflex" unicode="Ĥ" horiz-adv-x="860" d="M314 590V388h232v202q0 38-10 50t-59 17v45h357v-45q-49-5-59-17t-10-50V112q0-38 10-50t59-17V0H477v45q49 5 59 17t10 50v208H314V112q0-38 10-50t59-17V0H26v45q49 5 59 17t10 50v478q0 38-10 50t-59 17v45h357v-45q-49-5-59-17t-10-50zm184 303l118-152h-65l-121 65-121-65h-65l118 152h136z"/><glyph glyph-name="hcircumflex" unicode="ĥ" horiz-adv-x="680" d="M71 78v599l-53 27v34l224 45h35V452q27 35 72 68t115 33q72 0 113.5-41T619 389V78q0-22 12.5-28t40.5-8V0H363v42q28 2 39 8t11 28v293q0 28-12.5 45T351 433q-21 0-39-3.5t-35-9.5V78q0-22 11-28t39-8V0H18v42q28 2 40.5 8T71 78zm342 877l118-152h-65l-121 65-121-65h-65l118 152h136z"/><glyph glyph-name="Hbar" unicode="Ħ" horiz-adv-x="880" d="M324 590v-35h232v35q0 38-10 50t-59 17v45h357v-45q-49-5-59-17t-10-50v-35h69v-68h-69V112q0-38 10-50t59-17V0H487v45q49 5 59 17t10 50v208H324V112q0-38 10-50t59-17V0H36v45q49 5 59 17t10 50v375H37v68h68v35q0 38-10 50t-59 17v45h357v-45q-49-5-59-17t-10-50zm0-202h232v99H324v-99z"/><glyph glyph-name="hbar" unicode="ħ" horiz-adv-x="680" d="M71 78v509H18v56h53v34l-53 27v34l224 45h35V643h118v-56H277V452q27 35 72 68t115 33q72 0 113.5-41T619 389V78q0-22 12.5-28t40.5-8V0H363v42q28 2 39 8t11 28v293q0 28-12.5 45T351 433q-21 0-39-3.5t-35-9.5V78q0-22 11-28t39-8V0H18v42q28 2 40.5 8T71 78z"/><glyph glyph-name="Itilde" unicode="Ĩ" horiz-adv-x="409" d="M314 590V112q0-38 10-50t59-17V0H26v45q49 5 59 17t10 50v478q0 38-10 50t-59 17v45h357v-45q-49-5-59-17t-10-50zm-40 151q-49 0-76.5 30T138 801q-21 0-36-16t-29-39l-40 22q25 64 52 101.5t69 37.5q49 0 76.5-30t59.5-30q21 0 36 16t29 39l40-22q-25-64-52-101.5T274 741z"/><glyph glyph-name="itilde" unicode="ĩ" horiz-adv-x="350" d="M236 603q-46 0-72 30t-57 30q-20 0-34.5-16T45 608L7 630q24 64 49.5 101t65.5 37q46 0 72-29.5t57-29.5q19 0 33.5 16t27.5 38l38-21q-23-64-48.5-101.5T236 603zm45-50V78q0-22 12.5-28t40.5-8V0H22v42q28 2 40.5 8T75 78v350l-53 34v31l223 60h36z"/><glyph glyph-name="Imacron" unicode="Ī" horiz-adv-x="409" d="M314 590V112q0-38 10-50t59-17V0H26v45q49 5 59 17t10 50v478q0 38-10 50t-59 17v45h357v-45q-49-5-59-17t-10-50zM57 746v95h294v-95H57z"/><glyph glyph-name="imacron" unicode="ī" horiz-adv-x="350" d="M281 553V78q0-22 12.5-28t40.5-8V0H22v42q28 2 40.5 8T75 78v350l-53 34v31l223 60h36zM35 625v95h294v-95H35z"/><glyph glyph-name="Ibreve" unicode="Ĭ" horiz-adv-x="409" d="M314 590V112q0-38 10-50t59-17V0H26v45q49 5 59 17t10 50v478q0 38-10 50t-59 17v45h357v-45q-49-5-59-17t-10-50zM204 738q-72 0-111 42T54 894h51q7-35 36.5-47t62.5-12 62.5 12 36.5 47h51q0-72-39-114t-111-42z"/><glyph glyph-name="ibreve" unicode="ĭ" horiz-adv-x="350" d="M281 553V78q0-22 12.5-28t40.5-8V0H22v42q28 2 40.5 8T75 78v350l-53 34v31l223 60h36zm-99 45q-72 0-110.5 45.5T33 768h50q6-40 34-55t65-15 65 15 34 55h50q0-79-38.5-124.5T182 598z"/><glyph glyph-name="Iogonek" unicode="Į" horiz-adv-x="409" d="M314 590V112q0-38 10-50t59-17V0H252q-26-19-39-41t-13-50q0-21 11.5-35.5T245-141q18 0 30.5 5.5T304-120l17-21q-29-37-61-56t-77-19q-39 0-67.5 22T87-132q0 45 29.5 77.5T189 0H26v45q49 5 59 17t10 50v478q0 38-10 50t-59 17v45h357v-45q-49-5-59-17t-10-50z"/><glyph glyph-name="iogonek" unicode="į" horiz-adv-x="350" d="M281 553V78q0-22 12.5-28t40.5-8V0H226q-26-19-39-41t-13-50q0-21 11.5-35.5T219-141q18 0 30.5 5.5T278-120l17-21q-29-37-61-56t-77-19q-39 0-67.5 22T61-132q0 45 29.5 77.5T163 0H22v42q28 2 40.5 8T75 78v350l-53 34v31l223 60h36zm-100 37q-50 0-78 29.5T75 689t28 69.5 78 29.5q49 0 77.5-29.5T287 689t-28.5-69.5T181 590z"/><glyph glyph-name="Idotaccent" unicode="İ" horiz-adv-x="409" d="M314 590V112q0-38 10-50t59-17V0H26v45q49 5 59 17t10 50v478q0 38-10 50t-59 17v45h357v-45q-49-5-59-17t-10-50zM204 737q-50 0-78 29.5T98 836t28 69.5 78 29.5q49 0 77.5-29.5T310 836t-28.5-69.5T204 737z"/><glyph glyph-name="dotlessi" unicode="ı" horiz-adv-x="350" d="M281 553V78q0-22 12.5-28t40.5-8V0H22v42q28 2 40.5 8T75 78v350l-53 34v31l223 60h36z"/><glyph glyph-name="IJ" unicode="Ĳ" horiz-adv-x="995" d="M314 590V112q0-38 10-50t59-17V0H26v45q49 5 59 17t10 50v478q0 38-10 50t-59 17v45h357v-45q-49-5-59-17t-10-50zm377-422v422q0 38-10 50t-59 17v45h357v-45q-49-5-59-17t-10-50V230q0-125-74.5-182.5T627-10q-119 0-181 40t-62 115q0 32 14.5 56.5T439 240h139q-3-19-5-38t-2-45q0-47 12-84t49-37q42 0 50.5 37.5T691 168z"/><glyph glyph-name="ij" unicode="ĳ" horiz-adv-x="665" d="M281 553V78q0-22 12.5-28t40.5-8V0H22v42q28 2 40.5 8T75 78v350l-53 34v31l223 60h36zm-100 37q-50 0-78 29.5T75 689t28 69.5 78 29.5q49 0 77.5-29.5T287 689t-28.5-69.5T181 590zm228-162l-53 34v31l223 60h36V111q0-89-21-136t-59-81q-46-41-87-62t-96-43l-17 22 41 63q24 37 28.5 85.5T409 66v362zm103 162q-50 0-78 29.5T406 689t28 69.5 78 29.5q49 0 77.5-29.5T618 689t-28.5-69.5T512 590z"/><glyph glyph-name="Jcircumflex" unicode="Ĵ" horiz-adv-x="606" d="M302 168v422q0 38-10 50t-59 17v45h357v-45q-49-5-59-17t-10-50V230q0-125-74.5-182.5T238-10Q119-10 57 30T-5 145q0 32 14.5 56.5T50 240h139q-3-19-5-38t-2-45q0-47 12-84t49-37q42 0 50.5 37.5T302 168zm178 725l118-152h-65l-121 65-121-65h-65l118 152h136z"/><glyph glyph-name="jcircumflex" unicode="ĵ" horiz-adv-x="315" d="M59 428L6 462v31l223 60h36V111q0-89-21-136t-59-81q-46-41-87-62T2-211l-17 22 41 63q24 37 28.5 85.5T59 66v362zm158 338l107-167h-59l-110 79-110-79h-60L93 766h124z"/><glyph glyph-name="Kcommaaccent" unicode="Ķ" horiz-adv-x="792" d="M505 439l205-331q16-26 33.5-42.5T792 45V0H539q-25 22-49 55t-43 67L322 340l230 239q13 13 21 24.5t8 24.5q0 12-14.5 20t-52.5 9v45h244v-45q-31-2-47.5-8.5T675 622zM314 590V112q0-38 10-50t59-17V0H26v45q49 5 59 17t10 50v478q0 38-10 50t-59 17v45h357v-45q-49-5-59-17t-10-50zm110-748h-56q-22 6-36 20.5T318-96t22.5 45.5T403-32q46 0 72-27.5t26-68.5q0-51-41.5-86.5T324-250v40q50 0 74.5 16t25.5 36z"/><glyph glyph-name="kcommaaccent" unicode="ķ" horiz-adv-x="662" d="M283 283l152 137q21 19 27.5 30t6.5 21q0 13-12.5 19.5T410 501v42h233v-42q-25-3-44.5-9.5T559 465L453 363 662 29V0H450zM71 78v599l-53 27v34l224 45h35V78q0-22 12.5-28t40.5-8V0H18v42q28 2 40.5 8T71 78zm284-236h-56q-22 6-36 20.5T249-96t22.5 45.5T334-32q46 0 72-27.5t26-68.5q0-51-41.5-86.5T255-250v40q50 0 74.5 16t25.5 36z"/><glyph glyph-name="kgreenlandic" unicode="ĸ" horiz-adv-x="666" d="M287 283l152 137q21 19 27.5 30t6.5 21q0 13-12.5 19.5T414 501v42h233v-42q-25-3-44.5-9.5T563 465L457 363 666 29V0H454zM75 78v349l-53 36v30l224 60h35V78q0-22 12.5-28t40.5-8V0H22v42q28 2 40.5 8T75 78z"/><glyph glyph-name="Lacute" unicode="Ĺ" horiz-adv-x="658" d="M314 590V117q0-40 17-53.5T387 50h21q46 0 85 38t111 159h47L612 0H26v45q49 5 59 17t10 50v478q0 38-10 50t-59 17v45h357v-45q-49-5-59-17t-10-50zm-91 300h197v-10L240 741h-64z"/><glyph glyph-name="lacute" unicode="ĺ" horiz-adv-x="346" d="M277 783V78q0-22 12.5-28t40.5-8V0H18v42q28 2 40.5 8T71 78v599l-53 27v34l224 45h35zM161 953h197v-10L178 804h-64z"/><glyph glyph-name="Lcommaaccent" unicode="Ļ" horiz-adv-x="658" d="M314 590V117q0-40 17-53.5T387 50h21q46 0 85 38t111 159h47L612 0H26v45q49 5 59 17t10 50v478q0 38-10 50t-59 17v45h357v-45q-49-5-59-17t-10-50zm39-748h-56q-22 6-36 20.5T247-96t22.5 45.5T332-32q46 0 72-27.5t26-68.5q0-51-41.5-86.5T253-250v40q50 0 74.5 16t25.5 36z"/><glyph glyph-name="lcommaaccent" unicode="ļ" horiz-adv-x="346" d="M277 783V78q0-22 12.5-28t40.5-8V0H18v42q28 2 40.5 8T71 78v599l-53 27v34l224 45h35zm-88-941h-56q-22 6-36 20.5T83-96t22.5 45.5T168-32q46 0 72-27.5t26-68.5q0-51-41.5-86.5T89-250v40q50 0 74.5 16t25.5 36z"/><glyph glyph-name="Lcaron" unicode="Ľ" horiz-adv-x="658" d="M314 590V117q0-40 17-53.5T387 50h21q46 0 85 38t111 159h47L612 0H26v45q49 5 59 17t10 50v478q0 38-10 50t-59 17v45h357v-45q-49-5-59-17t-10-50zm289 100L484 497h-47l11 205h155v-12z"/><glyph glyph-name="lcaron" unicode="ľ" horiz-adv-x="346" d="M277 783V78q0-22 12.5-28t40.5-8V0H18v42q28 2 40.5 8T71 78v599l-53 27v34l224 45h35zm206-12L364 578h-47l11 205h155v-12z"/><glyph glyph-name="Ldot" unicode="Ŀ" horiz-adv-x="658" d="M314 590V117q0-40 17-53.5T387 50h21q46 0 85 38t111 159h47L612 0H26v45q49 5 59 17t10 50v478q0 38-10 50t-59 17v45h357v-45q-49-5-59-17t-10-50zm127-181q0 46 30.5 75.5T545 514t73.5-29.5T649 409t-30.5-75-73.5-29-73.5 29-30.5 75z"/><glyph glyph-name="ldot" unicode="ŀ" horiz-adv-x="488" d="M277 783V78q0-22 12.5-28t40.5-8V0H18v42q28 2 40.5 8T71 78v599l-53 27v34l224 45h35zm32-393q0 46 30.5 75.5T413 495t73.5-29.5T517 390t-30.5-75-73.5-29-73.5 29-30.5 75z"/><glyph glyph-name="Lslash" unicode="Ł" horiz-adv-x="658" d="M314 590V404l136 43v-66l-136-44V117q0-40 17-53.5T387 50h21q46 0 85 38t111 159h47L612 0H26v45q49 5 59 17t10 50v162l-69-22v66l69 22v250q0 38-10 50t-59 17v45h357v-45q-49-5-59-17t-10-50z"/><glyph glyph-name="lslash" unicode="ł" horiz-adv-x="367" d="M284 783V509l78 36v-63l-78-37V78q0-22 12.5-28t40.5-8V0H25v42q28 2 40.5 8T78 78v291L5 337v63l73 33v244l-53 27v34l224 45h35z"/><glyph glyph-name="Nacute" unicode="Ń" horiz-adv-x="757" d="M598 337v253q0 38-21 50.5T496 657v45h244v-45q-49-5-59-17t-10-50V0h-82L168 516V112q0-38 21-50.5T270 45V0H26v45q49 5 59 17t10 50v480q-17 31-31 47t-38 18v45h274zM378 890h197v-10L395 741h-64z"/><glyph glyph-name="nacute" unicode="ń" horiz-adv-x="684" d="M417 78v293q0 28-12.5 45T355 433q-21 0-39-3.5t-35-9.5V78q0-22 11-28t39-8V0H22v42q28 2 40.5 8T75 78v350l-53 34v31l223 60h40l-4-101q27 35 72 68t115 33q72 0 113.5-41T623 389V78q0-22 12.5-28t40.5-8V0H367v42q28 2 39 8t11 28zm-71 688h197v-10L358 603h-59z"/><glyph glyph-name="Ncommaaccent" unicode="Ņ" horiz-adv-x="757" d="M598 337v253q0 38-21 50.5T496 657v45h244v-45q-49-5-59-17t-10-50V0h-82L168 516V112q0-38 21-50.5T270 45V0H26v45q49 5 59 17t10 50v480q-17 31-31 47t-38 18v45h274zM406-158h-56q-22 6-36 20.5T300-96t22.5 45.5T385-32q46 0 72-27.5t26-68.5q0-51-41.5-86.5T306-250v40q50 0 74.5 16t25.5 36z"/><glyph glyph-name="ncommaaccent" unicode="ņ" horiz-adv-x="684" d="M417 78v293q0 28-12.5 45T355 433q-21 0-39-3.5t-35-9.5V78q0-22 11-28t39-8V0H22v42q28 2 40.5 8T75 78v350l-53 34v31l223 60h40l-4-101q27 35 72 68t115 33q72 0 113.5-41T623 389V78q0-22 12.5-28t40.5-8V0H367v42q28 2 39 8t11 28zm-41-236h-56q-22 6-36 20.5T270-96t22.5 45.5T355-32q46 0 72-27.5t26-68.5q0-51-41.5-86.5T276-250v40q50 0 74.5 16t25.5 36z"/><glyph glyph-name="Ncaron" unicode="Ň" horiz-adv-x="757" d="M598 337v253q0 38-21 50.5T496 657v45h244v-45q-49-5-59-17t-10-50V0h-82L168 516V112q0-38 21-50.5T270 45V0H26v45q49 5 59 17t10 50v480q-17 31-31 47t-38 18v45h274zm-21 557L459 742H323L205 894h65l121-65 121 65h65z"/><glyph glyph-name="ncaron" unicode="ň" horiz-adv-x="684" d="M417 78v293q0 28-12.5 45T355 433q-21 0-39-3.5t-35-9.5V78q0-22 11-28t39-8V0H22v42q28 2 40.5 8T75 78v350l-53 34v31l223 60h40l-4-101q27 35 72 68t115 33q72 0 113.5-41T623 389V78q0-22 12.5-28t40.5-8V0H367v42q28 2 39 8t11 28zm130 693L429 602H293L175 771h65l121-80 121 80h65z"/><glyph glyph-name="Eng" unicode="Ŋ" horiz-adv-x="757" d="M519 88L168 516V112q0-38 21-50.5T270 45V0H26v45q49 5 59 17t10 50v480q-17 31-31 47t-38 18v45h274l298-365v253q0 38-21 50.5T496 657v45h244v-45q-49-5-59-17t-10-50V111q0-84-16.5-130.5T601-103q-44-43-81-64.5T428-211l-17 22 48 62q37 48 48.5 100T519 88z"/><glyph glyph-name="eng" unicode="ŋ" horiz-adv-x="673" d="M417 66v305q0 28-12.5 45T355 433q-21 0-39-3.5t-35-9.5V78q0-22 11-28t39-8V0H22v42q28 2 40.5 8T75 78v350l-53 34v31l223 60h40l-4-101q27 35 72 68t115 33q72 0 113.5-41T623 389V111q0-89-21-136t-59-81q-46-41-87-62t-96-43l-17 22 41 63q24 37 28.5 85.5T417 66z"/><glyph glyph-name="Omacron" unicode="Ō" horiz-adv-x="758" d="M384 42q70 0 94.5 95T503 336q0 137-29 230.5T374 660q-70 0-94.5-95T255 366q0-137 29-230.5T384 42zm-15-52Q200-10 112.5 93.5T25 337q0 172 102.5 273.5T389 712q169 0 256.5-103.5T733 365q0-172-102.5-273.5T369-10zM236 746v95h294v-95H236z"/><glyph glyph-name="omacron" unicode="ō" horiz-adv-x="620" d="M315 34q40 0 53 53t13 146q0 128-16.5 202T305 509q-40 0-53-53t-13-146q0-128 16.5-202T315 34zm-5-44q-128 0-209 73.5T20 262t81 208 209 83 209-73.5T600 281 519 73 310-10zM167 625v95h294v-95H167z"/><glyph glyph-name="Obreve" unicode="Ŏ" horiz-adv-x="758" d="M384 42q70 0 94.5 95T503 336q0 137-29 230.5T374 660q-70 0-94.5-95T255 366q0-137 29-230.5T384 42zm-15-52Q200-10 112.5 93.5T25 337q0 172 102.5 273.5T389 712q169 0 256.5-103.5T733 365q0-172-102.5-273.5T369-10zm14 748q-72 0-111 42t-39 114h51q7-35 36.5-47t62.5-12 62.5 12 36.5 47h51q0-72-39-114t-111-42z"/><glyph glyph-name="obreve" unicode="ŏ" horiz-adv-x="620" d="M315 34q40 0 53 53t13 146q0 128-16.5 202T305 509q-40 0-53-53t-13-146q0-128 16.5-202T315 34zm-5-44q-128 0-209 73.5T20 262t81 208 209 83 209-73.5T600 281 519 73 310-10zm4 608q-72 0-110.5 45.5T165 768h50q6-40 34-55t65-15 65 15 34 55h50q0-79-38.5-124.5T314 598z"/><glyph glyph-name="Ohungarumlaut" unicode="Ő" horiz-adv-x="758" d="M384 42q70 0 94.5 95T503 336q0 137-29 230.5T374 660q-70 0-94.5-95T255 366q0-137 29-230.5T384 42zm-15-52Q200-10 112.5 93.5T25 337q0 172 102.5 273.5T389 712q169 0 256.5-103.5T733 365q0-172-102.5-273.5T369-10zm-63 900h162v-10L319 741h-61zm188 0h162v-10L507 741h-61z"/><glyph glyph-name="ohungarumlaut" unicode="ő" horiz-adv-x="620" d="M315 34q40 0 53 53t13 146q0 128-16.5 202T305 509q-40 0-53-53t-13-146q0-128 16.5-202T315 34zm-5-44q-128 0-209 73.5T20 262t81 208 209 83 209-73.5T600 281 519 73 310-10zm-85 776h162v-10L238 603h-61zm188 0h162v-10L426 603h-61z"/><glyph glyph-name="OE" unicode="Œ" horiz-adv-x="1063" d="M494 652h-33q-99 0-154.5-80T251 364q0-148 62-231t167-83h14v602zM1016 0H442Q231 0 128 98.5T25 346q0 166 112 261t308 95h571V503h-42q-40 84-71.5 116.5T799 652h-86V392h83q35 0 47.5 20.5T862 485h47V239h-47q-6 52-18.5 72.5T796 332h-83V117q0-40 19-53.5T790 50h22q70 0 101 37t86 140h50z"/><glyph glyph-name="oe" unicode="œ" horiz-adv-x="908" d="M310 553q54 0 103-19t84-50q34 31 77 50t94 19q109 0 165.5-63T890 329v-25H573q0-82 42-131t108-49q47 0 84 16.5t65 53.5l21-13q-21-87-80.5-139T655-10q-49 0-93.5 18.5T483 57q-34-29-79-48t-94-19q-128 0-209 73.5T20 262t81 208 209 83zm5-519q40 0 53 53t13 146q0 128-16.5 202T305 509q-40 0-53-53t-13-146q0-128 16.5-202T315 34zm336 475q-37 0-55.5-43T574 353h141q0 74-14 115t-50 41z"/><glyph glyph-name="Racute" unicode="Ŕ" horiz-adv-x="778" d="M335 649h-21V344h22q63 0 99.5 41T472 500q0 71-36 110t-101 39zm-21-359V112q0-38 10-50t59-17V0H26v45q49 5 59 17t10 50v478q0 38-10 50t-59 17v45h389q120 0 196.5-53.5T688 501q0-73-44.5-116.5T545 322l133-196q30-45 48-62t52-19V0H531q-21 16-41.5 43.5T447 110L344 290h-30zm47 600h197v-10L378 741h-64z"/><glyph glyph-name="racute" unicode="ŕ" horiz-adv-x="478" d="M281 355V97q0-33 18-41t60-14V0H22v42q28 2 40.5 8T75 78v350l-53 34v31l223 60h40l-4-156q28 90 59.5 123t79.5 33q19 0 32-5t21-12V383h-26q-48 0-91-4.5T281 355zm-27 411h197v-10L266 603h-59z"/><glyph glyph-name="Rcommaaccent" unicode="Ŗ" horiz-adv-x="778" d="M335 649h-21V344h22q63 0 99.5 41T472 500q0 71-36 110t-101 39zm-21-359V112q0-38 10-50t59-17V0H26v45q49 5 59 17t10 50v478q0 38-10 50t-59 17v45h389q120 0 196.5-53.5T688 501q0-73-44.5-116.5T545 322l133-196q30-45 48-62t52-19V0H531q-21 16-41.5 43.5T447 110L344 290h-30zm93-448h-56q-22 6-36 20.5T301-96t22.5 45.5T386-32q46 0 72-27.5t26-68.5q0-51-41.5-86.5T307-250v40q50 0 74.5 16t25.5 36z"/><glyph glyph-name="rcommaaccent" unicode="ŗ" horiz-adv-x="478" d="M281 355V97q0-33 18-41t60-14V0H22v42q28 2 40.5 8T75 78v350l-53 34v31l223 60h40l-4-156q28 90 59.5 123t79.5 33q19 0 32-5t21-12V383h-26q-48 0-91-4.5T281 355zm-79-513h-56q-22 6-36 20.5T96-96t22.5 45.5T181-32q46 0 72-27.5t26-68.5q0-51-41.5-86.5T102-250v40q50 0 74.5 16t25.5 36z"/><glyph glyph-name="Rcaron" unicode="Ř" horiz-adv-x="778" d="M335 649h-21V344h22q63 0 99.5 41T472 500q0 71-36 110t-101 39zm-21-359V112q0-38 10-50t59-17V0H26v45q49 5 59 17t10 50v478q0 38-10 50t-59 17v45h389q120 0 196.5-53.5T688 501q0-73-44.5-116.5T545 322l133-196q30-45 48-62t52-19V0H531q-21 16-41.5 43.5T447 110L344 290h-30zm246 604L442 742H306L188 894h65l121-65 121 65h65z"/><glyph glyph-name="rcaron" unicode="ř" horiz-adv-x="478" d="M281 355V97q0-33 18-41t60-14V0H22v42q28 2 40.5 8T75 78v350l-53 34v31l223 60h40l-4-156q28 90 59.5 123t79.5 33q19 0 32-5t21-12V383h-26q-48 0-91-4.5T281 355zm174 416L337 602H201L83 771h65l121-80 121 80h65z"/><glyph glyph-name="Sacute" unicode="Ś" horiz-adv-x="592" d="M281-10q-76 0-140 19.5T40 57L28 232h59q19-81 69-135.5T281 42q49 0 80 22t31 66q0 45-34.5 70T243 247q-104 28-158 83T31 477q0 110 75.5 172.5T295 712q71 0 127.5-16.5T515 652V499h-49q-19 72-60.5 117T295 661q-43 0-70.5-23T197 574q0-46 34-70.5T340 458q99-28 161.5-77.5T564 221q0-120-83.5-175.5T281-10zm20 900h197v-10L318 741h-64z"/><glyph glyph-name="sacute" unicode="ś" horiz-adv-x="487" d="M231-10q-65 0-113.5 14T35 41l-6 135h51q13-60 52.5-100.5T229 35q34 0 57.5 16T310 98q0 37-27.5 53T207 181q-87 25-133 68T28 370q0 89 61 136t154 47q51 0 97.5-12.5T419 507V387h-47q-7 47-40 84t-84 37q-30 0-49-15t-19-42q0-30 22-45t68-30q93-31 142.5-71T462 179q0-90-63.5-139.5T231-10zm7 776h197v-10L250 603h-59z"/><glyph glyph-name="Scircumflex" unicode="Ŝ" horiz-adv-x="592" d="M281-10q-76 0-140 19.5T40 57L28 232h59q19-81 69-135.5T281 42q49 0 80 22t31 66q0 45-34.5 70T243 247q-104 28-158 83T31 477q0 110 75.5 172.5T295 712q71 0 127.5-16.5T515 652V499h-49q-19 72-60.5 117T295 661q-43 0-70.5-23T197 574q0-46 34-70.5T340 458q99-28 161.5-77.5T564 221q0-120-83.5-175.5T281-10zm92 903l118-152h-65l-121 65-121-65h-65l118 152h136z"/><glyph glyph-name="scircumflex" unicode="ŝ" horiz-adv-x="487" d="M231-10q-65 0-113.5 14T35 41l-6 135h51q13-60 52.5-100.5T229 35q34 0 57.5 16T310 98q0 37-27.5 53T207 181q-87 25-133 68T28 370q0 89 61 136t154 47q51 0 97.5-12.5T419 507V387h-47q-7 47-40 84t-84 37q-30 0-49-15t-19-42q0-30 22-45t68-30q93-31 142.5-71T462 179q0-90-63.5-139.5T231-10zm90 776l118-169h-65l-121 80-121-80H67l118 169h136z"/><glyph glyph-name="Scedilla" unicode="Ş" horiz-adv-x="592" d="M180-233l-9 37q54 0 78.5 14t24.5 33q0 20-21 25.5t-56 6.5L240-8q-63 4-116 22.5T40 57L28 232h59q19-81 69-135.5T281 42q49 0 80 22t31 66q0 45-34.5 70T243 247q-104 28-158 83T31 477q0 110 75.5 172.5T295 712q71 0 127.5-16.5T515 652V499h-49q-19 72-60.5 117T295 661q-43 0-70.5-23T197 574q0-46 34-70.5T340 458q99-28 161.5-77.5T564 221q0-120-83.5-175.5T281-10h-2l-11-28q48 0 77.5-22t29.5-62q0-57-60-84t-135-27z"/><glyph glyph-name="scedilla" unicode="ş" horiz-adv-x="487" d="M127-233l-9 37q54 0 78.5 14t24.5 33q0 20-21 25.5t-56 6.5L187-8q-49 4-86.5 17T35 41l-6 135h51q13-60 52.5-100.5T229 35q34 0 57.5 16T310 98q0 37-27.5 53T207 181q-87 25-133 68T28 370q0 89 61 136t154 47q51 0 97.5-12.5T419 507V387h-47q-7 47-40 84t-84 37q-30 0-49-15t-19-42q0-30 22-45t68-30q93-31 142.5-71T462 179q0-90-63.5-139.5T231-10h-5l-11-28q48 0 77.5-22t29.5-62q0-57-60-84t-135-27z"/><glyph glyph-name="Scaron" unicode="Š" horiz-adv-x="592" d="M281-10q-76 0-140 19.5T40 57L28 232h59q19-81 69-135.5T281 42q49 0 80 22t31 66q0 45-34.5 70T243 247q-104 28-158 83T31 477q0 110 75.5 172.5T295 712q71 0 127.5-16.5T515 652V499h-49q-19 72-60.5 117T295 661q-43 0-70.5-23T197 574q0-46 34-70.5T340 458q99-28 161.5-77.5T564 221q0-120-83.5-175.5T281-10zm209 904L372 742H236L118 894h65l121-65 121 65h65z"/><glyph glyph-name="scaron" unicode="š" horiz-adv-x="487" d="M231-10q-65 0-113.5 14T35 41l-6 135h51q13-60 52.5-100.5T229 35q34 0 57.5 16T310 98q0 37-27.5 53T207 181q-87 25-133 68T28 370q0 89 61 136t154 47q51 0 97.5-12.5T419 507V387h-47q-7 47-40 84t-84 37q-30 0-49-15t-19-42q0-30 22-45t68-30q93-31 142.5-71T462 179q0-90-63.5-139.5T231-10zm208 781L321 602H185L67 771h65l121-80 121 80h65z"/><glyph glyph-name="Tcedilla" unicode="Ţ" horiz-adv-x="723" d="M30 702h663l15-261h-45q-57 121-89.5 169.5T495 659h-24V107q0-38 15-47.5T550 45V0H173v45q49 5 64 14.5t15 47.5v552h-24q-46 0-78.5-48.5T60 441H15zm346-860h-56q-22 6-36 20.5T270-96t22.5 45.5T355-32q46 0 72-27.5t26-68.5q0-51-41.5-86.5T276-250v40q50 0 74.5 16t25.5 36z"/><glyph glyph-name="tcedilla" unicode="ţ" horiz-adv-x="405" d="M268 682V543h111v-57H268V155q0-32 13-47t38-15q18 0 35.5 6.5T389 118l16-25q-30-50-75-76.5T222-10q-72 0-117.5 39T59 158v328H5v37q63 22 120 64.5t99 94.5h44zm-42-840h-56q-22 6-36 20.5T120-96t22.5 45.5T205-32q46 0 72-27.5t26-68.5q0-51-41.5-86.5T126-250v40q50 0 74.5 16t25.5 36z"/><glyph glyph-name="Tcaron" unicode="Ť" horiz-adv-x="723" d="M30 702h663l15-261h-45q-57 121-89.5 169.5T495 659h-24V107q0-38 15-47.5T550 45V0H173v45q49 5 64 14.5t15 47.5v552h-24q-46 0-78.5-48.5T60 441H15zm517 192L429 742H293L175 894h65l121-65 121 65h65z"/><glyph glyph-name="tcaron" unicode="ť" horiz-adv-x="405" d="M268 682V543h111v-57H268V155q0-32 13-47t38-15q18 0 35.5 6.5T389 118l16-25q-30-50-75-76.5T222-10q-72 0-117.5 39T59 158v328H5v37q63 22 120 64.5t99 94.5h44zm200 89L349 578h-47l11 205h155v-12z"/><glyph glyph-name="Tbar" unicode="Ŧ" horiz-adv-x="723" d="M30 702h663l15-261h-45q-57 121-89.5 169.5T495 659h-24V388h102v-68H471V107q0-38 15-47.5T550 45V0H173v45q49 5 64 14.5t15 47.5v213H150v68h102v271h-24q-46 0-78.5-48.5T60 441H15z"/><glyph glyph-name="tbar" unicode="ŧ" horiz-adv-x="415" d="M273 682V543h111v-57H273V383h111v-57H273V155q0-32 13-47t38-15q18 0 35.5 6.5T394 118l16-25q-30-50-75-76.5T227-10q-72 0-117.5 39T64 158v168H10v57h54v103H10v37q63 22 120 64.5t99 94.5h44z"/><glyph glyph-name="Utilde" unicode="Ũ" horiz-adv-x="763" d="M303 590V265q0-84 33.5-133.5T451 82q62 0 108.5 41.5T606 269v321q0 38-16 50.5T514 657v45h234v-45q-49-5-59-17t-10-50V249q0-132-83-195.5T394-10q-149 0-229.5 65.5T84 249v341q0 38-10 50t-59 17v45h357v-45q-49-5-59-17t-10-50zm192 151q-49 0-76.5 30T359 801q-21 0-36-16t-29-39l-40 22q25 64 52 101.5t69 37.5q49 0 76.5-30t59.5-30q21 0 36 16t29 39l40-22q-25-64-52-101.5T495 741z"/><glyph glyph-name="utilde" unicode="ũ" horiz-adv-x="669" d="M600 421V119q0-25 5-38t27-13h23V24L430-10h-39l3 98q-25-34-68-66T214-10q-67 0-110.5 42T60 161v237q0 21-7 37t-28 23l-15 5v40l224 50h38l-6-132V179q0-34 14.5-53t48.5-19q19 0 32.5 2.5T394 118v280q0 21-7 37t-28 23l-15 5v40l224 50h38zM400 602q-49 0-76.5 30T264 662q-21 0-36-16t-29-39l-40 22q25 64 52 101.5t69 37.5q49 0 76.5-30t59.5-30q21 0 36 16t29 39l40-22q-25-64-52-101.5T400 602z"/><glyph glyph-name="Umacron" unicode="Ū" horiz-adv-x="763" d="M303 590V265q0-84 33.5-133.5T451 82q62 0 108.5 41.5T606 269v321q0 38-16 50.5T514 657v45h234v-45q-49-5-59-17t-10-50V249q0-132-83-195.5T394-10q-149 0-229.5 65.5T84 249v341q0 38-10 50t-59 17v45h357v-45q-49-5-59-17t-10-50zm-25 156v95h294v-95H278z"/><glyph glyph-name="umacron" unicode="ū" horiz-adv-x="669" d="M600 421V119q0-25 5-38t27-13h23V24L430-10h-39l3 98q-25-34-68-66T214-10q-67 0-110.5 42T60 161v237q0 21-7 37t-28 23l-15 5v40l224 50h38l-6-132V179q0-34 14.5-53t48.5-19q19 0 32.5 2.5T394 118v280q0 21-7 37t-28 23l-15 5v40l224 50h38zM187 625v95h294v-95H187z"/><glyph glyph-name="Ubreve" unicode="Ŭ" horiz-adv-x="763" d="M303 590V265q0-84 33.5-133.5T451 82q62 0 108.5 41.5T606 269v321q0 38-16 50.5T514 657v45h234v-45q-49-5-59-17t-10-50V249q0-132-83-195.5T394-10q-149 0-229.5 65.5T84 249v341q0 38-10 50t-59 17v45h357v-45q-49-5-59-17t-10-50zm122 148q-72 0-111 42t-39 114h51q7-35 36.5-47t62.5-12 62.5 12 36.5 47h51q0-72-39-114t-111-42z"/><glyph glyph-name="ubreve" unicode="ŭ" horiz-adv-x="669" d="M600 421V119q0-25 5-38t27-13h23V24L430-10h-39l3 98q-25-34-68-66T214-10q-67 0-110.5 42T60 161v237q0 21-7 37t-28 23l-15 5v40l224 50h38l-6-132V179q0-34 14.5-53t48.5-19q19 0 32.5 2.5T394 118v280q0 21-7 37t-28 23l-15 5v40l224 50h38zM334 598q-72 0-110.5 45.5T185 768h50q6-40 34-55t65-15 65 15 34 55h50q0-79-38.5-124.5T334 598z"/><glyph glyph-name="Uring" unicode="Ů" horiz-adv-x="763" d="M303 590V265q0-84 33.5-133.5T451 82q62 0 108.5 41.5T606 269v321q0 38-16 50.5T514 657v45h234v-45q-49-5-59-17t-10-50V249q0-132-83-195.5T394-10q-149 0-229.5 65.5T84 249v341q0 38-10 50t-59 17v45h357v-45q-49-5-59-17t-10-50zm73 239q0-21 12.5-35t36.5-14 36.5 14 12.5 35q0 22-12.5 36T425 879t-36.5-14-12.5-36zm-59 0q0 44 30.5 74.5T425 934t77-30.5 30-74.5q0-43-30-73.5T425 725t-77.5 30.5T317 829z"/><glyph glyph-name="uring" unicode="ů" horiz-adv-x="669" d="M600 421V119q0-25 5-38t27-13h23V24L430-10h-39l3 98q-25-34-68-66T214-10q-67 0-110.5 42T60 161v237q0 21-7 37t-28 23l-15 5v40l224 50h38l-6-132V179q0-34 14.5-53t48.5-19q19 0 32.5 2.5T394 118v280q0 21-7 37t-28 23l-15 5v40l224 50h38zM285 684q0-21 12.5-35t36.5-14 36.5 14 12.5 35q0 22-12.5 36T334 734t-36.5-14-12.5-36zm-59 0q0 44 30.5 74.5T334 789t77-30.5 30-74.5q0-43-30-73.5T334 580t-77.5 30.5T226 684z"/><glyph glyph-name="Uhungarumlaut" unicode="Ű" horiz-adv-x="763" d="M303 590V265q0-84 33.5-133.5T451 82q62 0 108.5 41.5T606 269v321q0 38-16 50.5T514 657v45h234v-45q-49-5-59-17t-10-50V249q0-132-83-195.5T394-10q-149 0-229.5 65.5T84 249v341q0 38-10 50t-59 17v45h357v-45q-49-5-59-17t-10-50zm45 300h162v-10L361 741h-61zm188 0h162v-10L549 741h-61z"/><glyph glyph-name="uhungarumlaut" unicode="ű" horiz-adv-x="669" d="M600 421V119q0-25 5-38t27-13h23V24L430-10h-39l3 98q-25-34-68-66T214-10q-67 0-110.5 42T60 161v237q0 21-7 37t-28 23l-15 5v40l224 50h38l-6-132V179q0-34 14.5-53t48.5-19q19 0 32.5 2.5T394 118v280q0 21-7 37t-28 23l-15 5v40l224 50h38zM245 766h162v-10L258 603h-61zm188 0h162v-10L446 603h-61z"/><glyph glyph-name="Uogonek" unicode="Ų" horiz-adv-x="763" d="M303 590V265q0-84 33.5-133.5T451 82q62 0 108.5 41.5T606 269v321q0 38-16 50.5T514 657v45h234v-45q-49-5-59-17t-10-50V249q0-96-46-156T514 8q-31-19-47.5-43.5T450-91q0-21 11.5-35.5T495-141q18 0 30.5 5.5T554-120l17-21q-29-37-61-56t-77-19q-39 0-67.5 22T337-132q0 41 25 71t62 52q-7 0-15-.5t-15-.5q-149 0-229.5 65.5T84 249v341q0 38-10 50t-59 17v45h357v-45q-49-5-59-17t-10-50z"/><glyph glyph-name="uogonek" unicode="ų" horiz-adv-x="669" d="M600 421V119q0-25 5-38t27-13h23V24Q512 5 462-17t-50-76q0-19 11.5-33.5T457-141q18 0 30.5 5.5T516-120l17-21q-29-37-61-56t-75-19q-40 0-69 23t-29 66q0 40 24 67.5T391-10l3 98q-25-34-68-66T214-10q-67 0-110.5 42T60 161v237q0 21-7 37t-28 23l-15 5v40l224 50h38l-6-132V179q0-34 14.5-53t48.5-19q19 0 32.5 2.5T394 118v280q0 21-7 37t-28 23l-15 5v40l224 50h38z"/><glyph glyph-name="Wcircumflex" unicode="Ŵ" horiz-adv-x="1028" d="M661-3L528 382 385-3h-81L63 620q-7 16-22 24.5T5 657v45h345v-45q-25-3-35.5-12.5T304 619q0-12 4.5-27t10.5-31l108-287 71 193-52 153q-6 16-17 24.5T397 657v45h345v-45q-37-1-51-11.5T677 614q0-13 4-29.5t10-36.5l86-269 93 273q5 16 9 31t4 27q0 20-14 32.5T819 657v45h204v-45q-21-4-36.5-12.5T965 620L743-3h-82zm-33 896l118-152h-65l-121 65-121-65h-65l118 152h136z"/><glyph glyph-name="wcircumflex" unicode="ŵ" horiz-adv-x="923" d="M708 236l82 202q4 10 6 18t2 14q0 15-13.5 21.5T743 501v42h175v-42q-25-8-34.5-16T867 461L667-3h-68L481 299 339-3h-68L56 461q-7 16-16.5 24T5 501v42h318v-42q-22-3-32-10t-10-19q0-7 2.5-15.5T290 438l90-214 70 145-36 92q-6 16-16 25t-29 15v42h316v-42q-31-4-45.5-9.5T625 468q0-6 1.5-13.5T631 438zM561 766l118-169h-65l-121 80-121-80h-65l118 169h136z"/><glyph glyph-name="Ycircumflex" unicode="Ŷ" horiz-adv-x="727" d="M481 258V107q0-38 15-47.5T560 45V0H188v45q49 5 64 14.5t15 47.5v146L63 620q-11 21-23.5 27T5 657v45h365v-45q-38-1-50.5-9.5T307 621q0-16 6-31t18-37l123-210 103 208q9 19 17 38t8 32q0 18-17 26.5t-49 9.5v45h206v-45q-21-4-35-11.5T664 620zm2 635l118-152h-65l-121 65-121-65h-65l118 152h136z"/><glyph glyph-name="ycircumflex" unicode="ŷ" horiz-adv-x="616" d="M387 202l94 234q4 10 6 16.5t2 13.5q0 16-12.5 23T424 501v42h187v-42q-25-8-34.5-16T560 461L328-83q-29-68-62.5-103.5T178-222q-31 0-53 11t-33 29v81q20-4 39-7t43-3q43 0 65.5 12.5T275-59l15 32L56 461q-7 16-16.5 24T5 501v42h342v-42q-40-5-52.5-12T282 466q0-7 2-13l5-15zm35 564l118-169h-65l-121 80-121-80h-65l118 169h136z"/><glyph glyph-name="Ydieresis" unicode="Ÿ" horiz-adv-x="727" d="M481 258V107q0-38 15-47.5T560 45V0H188v45q49 5 64 14.5t15 47.5v146L63 620q-11 21-23.5 27T5 657v45h365v-45q-38-1-50.5-9.5T307 621q0-16 6-31t18-37l123-210 103 208q9 19 17 38t8 32q0 18-17 26.5t-49 9.5v45h206v-45q-21-4-35-11.5T664 620zM221 823q0 36 26 62t63 26 63.5-26 26.5-62-26.5-62-63.5-26-63 26-26 62zm210 0q0 36 26.5 62t61.5 26q38 0 64.5-26t26.5-62-26.5-62-64.5-26q-35 0-61.5 26T431 823z"/><glyph glyph-name="Zacute" unicode="Ź" horiz-adv-x="643" d="M266 50h105q63 0 103 36.5T580 239h48L591 0H15v39l339 613h-97q-72 0-100.5-38T83 478H38l10 224h559v-39zm54 840h197v-10L337 741h-64z"/><glyph glyph-name="zacute" unicode="ź" horiz-adv-x="550" d="M15 0v38l280 457h-80q-38 0-68.5-38T78 339H36l14 236h40l22-32h415v-37L253 49h90q51 0 82.5 36T499 203h41L516 0H15zm271 766h197v-10L298 603h-59z"/><glyph glyph-name="Zdotaccent" unicode="Ż" horiz-adv-x="643" d="M266 50h105q63 0 103 36.5T580 239h48L591 0H15v39l339 613h-97q-72 0-100.5-38T83 478H38l10 224h559v-39zm67 687q-50 0-78 29.5T227 836t28 69.5 78 29.5q49 0 77.5-29.5T439 836t-28.5-69.5T333 737z"/><glyph glyph-name="zdotaccent" unicode="ż" horiz-adv-x="550" d="M15 0v38l280 457h-80q-38 0-68.5-38T78 339H36l14 236h40l22-32h415v-37L253 49h90q51 0 82.5 36T499 203h41L516 0H15zm286 594q-50 0-78 29.5T195 693t28 69.5 78 29.5q49 0 77.5-29.5T407 693t-28.5-69.5T301 594z"/><glyph glyph-name="Zcaron" unicode="Ž" horiz-adv-x="643" d="M266 50h105q63 0 103 36.5T580 239h48L591 0H15v39l339 613h-97q-72 0-100.5-38T83 478H38l10 224h559v-39zm253 844L401 742H265L147 894h65l121-65 121 65h65z"/><glyph glyph-name="zcaron" unicode="ž" horiz-adv-x="550" d="M15 0v38l280 457h-80q-38 0-68.5-38T78 339H36l14 236h40l22-32h415v-37L253 49h90q51 0 82.5 36T499 203h41L516 0H15zm472 771L369 602H233L115 771h65l121-80 121 80h65z"/><glyph glyph-name="florin" unicode="ƒ" horiz-adv-x="554" d="M59 347l4 45h88v1q17 157 79 238t181 81q54 0 98.5-20t44.5-73q0-22-13.5-40.5T502 552h-59q0 43-5.5 84T401 677q-17 0-26-12t-12-39l-26-234h115l-4-45H332l-22-207Q293-17 231-98T50-179q-54 0-98.5 20T-93-86q0 22 13.5 40.5T-41-19h59q0-43 5.5-84T60-144q17 0 26 12t12 39l48 440H59z"/><glyph glyph-name="Aringacute" unicode="Ǻ" horiz-adv-x="773" d="M242 816q0 40 32 67t81 27 81-27 32-67q0-39-32-66t-81-27-81 27-32 66zm116 234h197v-10L381 930h-64zm-59-234q0-19 15.5-32.5T355 770t40.5 13.5T411 816q0 20-15.5 33.5T355 863t-40.5-13.5T299 816zm162-687l-32 82H182l-30-82q-4-10-6-19.5T144 93q0-25 21-35t59-13V0H5v45q20 4 35 10.5T63 82l203 533-35 87h233L709 82q7-19 22-26t37-11V0H393v45q34 1 55 11.5T469 92q0 7-2 16.5t-6 20.5zM302 536l-99-267h203z"/><glyph glyph-name="aringacute" unicode="ǻ" horiz-adv-x="568" d="M170 664q0 40 32 67t81 27 81-27 32-67q0-39-32-66t-81-27-81 27-32 66zm114 237h197v-10L307 781h-64zm-57-237q0-19 15.5-32.5T283 618t40.5 13.5T339 664q0 20-15.5 33.5T283 711t-40.5-13.5T227 664zm49-566q8 0 15 1.5t14 3.5v185l-40-15q-24-9-39-26t-15-61q0-37 14.5-62.5T276 98zm231 277V110q0-15 4-28t21-13q10 0 18.5 2t12.5 3l7-30q-26-24-60-39t-79-15q-46 0-78 21.5T308 73q-21-32-57-55.5T160-6Q96-6 54.5 29T13 130t39 98 91 50l162 56v110q0 30-9 48.5T262 511q-26 0-37-21.5T214 434q0-18 3-36.5t7-37.5l-124-16q-22 7-37 26t-15 47q0 71 65 103.5T271 553q109 0 172.5-38.5T507 375z"/><glyph glyph-name="AEacute" unicode="Ǽ" horiz-adv-x="1049" d="M63 82l337 545q-13 13-35.5 20.5T308 657v45h689l5-199h-42q-40 84-71.5 116.5T785 652h-86V392h83q35 0 47.5 20.5T848 485h47V239h-47q-6 52-18.5 72.5T782 332h-83V117q0-40 19-53.5T776 50h22q70 0 101 37t86 140h50L1002 0H411v45q49 5 59 17t10 50v137H243l-74-120q-7-13-11-22t-4-19q0-21 22-31t65-12V0H5v45q20 4 33.5 11T63 82zm417 551L279 307h201v326zm147 257h197v-10L644 741h-64z"/><glyph glyph-name="aeacute" unicode="ǽ" horiz-adv-x="808" d="M568 553q109 0 165.5-63T790 329v-25H482q0-78 38.5-129T630 124q42 0 78 16.5t64 53.5l21-13q-21-87-80.5-139T555-10q-63 0-116.5 23T351 80q-36-40-73.5-63T166-6Q97-6 55 29T13 130t39 98 91 50l160 55q2 11 5 21.5t6 20.5q2 68-14 102t-42 34q-23 0-33.5-21.5T214 434q0-18 3-36.5t7-37.5l-124-16q-22 7-37 26t-15 47q0 71 65 103.5T271 553q47 0 84-10t60-35q33 22 71.5 33.5T568 553zm-17-44q-37 0-51-43t-17-113h132q0 74-14 115t-50 41zM289 98q9 0 19.5 3t22.5 8q-16 31-25.5 68.5T296 260v12.5l1 12.5-20-8q-33-12-49.5-29.5T211 186q0-37 16-62.5T289 98zm115 668h197v-10L416 603h-59z"/><glyph glyph-name="Oslashacute" unicode="Ǿ" horiz-adv-x="758" d="M369-10q-56 0-103 12.5T181 37l-74-97-42 32 73 95q-56 49-84.5 119.5T25 337q0 172 102.5 273.5T389 712q61 0 111.5-15t90.5-42l70 91 42-32-71-92q50-48 75.5-115T733 365q0-172-102.5-273.5T369-10zM255 366q0-37 2-71.5t6-65.5l224 291q-14 63-41.5 101.5T374 660q-70 0-94.5-95T255 366zM384 42q70 0 94.5 95T503 336q0 29-1.5 57.5T498 448L276 160q14-54 41-86t67-32zm-8 848h197v-10L393 741h-64z"/><glyph glyph-name="oslashacute" unicode="ǿ" horiz-adv-x="620" d="M310-10q-43 0-81 8.5T159 23L98-60 60-33l59 81q-46 35-72.5 90T20 262q0 125 81 208t209 83q43 0 82-9t71-26l57 78 38-27-56-76q46-35 72-89t26-123q0-125-81-208T310-10zm-71 320q0-26 .5-50t1.5-45l131 179q-8 54-24 84.5T305 509q-40 0-53-53t-13-146zm76-276q40 0 53 53t13 146q0 24-1 47t-2 43L248 145q8-53 24-82t43-29zm-20 732h197v-10L307 603h-59z"/><glyph glyph-name="Scommaaccent" unicode="Ș" horiz-adv-x="592" d="M281-10q-76 0-140 19.5T40 57L28 232h59q19-81 69-135.5T281 42q49 0 80 22t31 66q0 45-34.5 70T243 247q-104 28-158 83T31 477q0 110 75.5 172.5T295 712q71 0 127.5-16.5T515 652V499h-49q-19 72-60.5 117T295 661q-43 0-70.5-23T197 574q0-46 34-70.5T340 458q99-28 161.5-77.5T564 221q0-120-83.5-175.5T281-10zm24-148h-56q-22 6-36 20.5T199-96t22.5 45.5T284-32q46 0 72-27.5t26-68.5q0-51-41.5-86.5T205-250v40q50 0 74.5 16t25.5 36z"/><glyph glyph-name="scommaaccent" unicode="ș" horiz-adv-x="487" d="M231-10q-65 0-113.5 14T35 41l-6 135h51q13-60 52.5-100.5T229 35q34 0 57.5 16T310 98q0 37-27.5 53T207 181q-87 25-133 68T28 370q0 89 61 136t154 47q51 0 97.5-12.5T419 507V387h-47q-7 47-40 84t-84 37q-30 0-49-15t-19-42q0-30 22-45t68-30q93-31 142.5-71T462 179q0-90-63.5-139.5T231-10zm25-148h-56q-22 6-36 20.5T150-96t22.5 45.5T235-32q46 0 72-27.5t26-68.5q0-51-41.5-86.5T156-250v40q50 0 74.5 16t25.5 36z"/><glyph glyph-name="uni0237" unicode="ȷ" horiz-adv-x="315" d="M59 428L6 462v31l223 60h36V111q0-89-21-136t-59-81q-46-41-87-62T2-211l-17 22 41 63q24 37 28.5 85.5T59 66v362z"/><glyph glyph-name="circumflex" unicode="ˆ" d="M318 766l118-169h-65l-121 80-121-80H64l118 169h136z"/><glyph glyph-name="caron" unicode="ˇ" d="M436 771L318 602H182L64 771h65l121-80 121 80h65z"/><glyph glyph-name="breve" unicode="˘" d="M258 598q-72 0-110.5 45.5T109 768h50q6-40 34-55t65-15 65 15 34 55h50q0-79-38.5-124.5T258 598z"/><glyph glyph-name="dotaccent" unicode="˙" d="M251 594q-50 0-78 29.5T145 693t28 69.5 78 29.5q49 0 77.5-29.5T357 693t-28.5-69.5T251 594z"/><glyph glyph-name="ring" unicode="˚" d="M212 684q0-21 12.5-35t36.5-14 36.5 14 12.5 35q0 22-12.5 36T261 734t-36.5-14-12.5-36zm-59 0q0 44 30.5 74.5T261 789t77-30.5 30-74.5q0-43-30-73.5T261 580t-77.5 30.5T153 684z"/><glyph glyph-name="ogonek" unicode="˛" d="M327 38l9-17q-43-22-65-49t-22-63q0-21 11.5-35.5T294-141q18 0 30.5 5.5T353-120l17-21q-29-37-61-56t-77-19q-39 0-67.5 22T136-132q0 66 61 105.5T327 38z"/><glyph glyph-name="tilde" unicode="˜" d="M310 602q-49 0-76.5 30T174 662q-21 0-36-16t-29-39l-40 22q25 64 52 101.5t69 37.5q49 0 76.5-30t59.5-30q21 0 36 16t29 39l40-22q-25-64-52-101.5T310 602z"/><glyph glyph-name="hungarumlaut" unicode="˝" d="M112 766h162v-10L125 603H64zm188 0h162v-10L313 603h-61z"/><glyph glyph-name="pi" unicode="π" horiz-adv-x="650" d="M351 179l31 243H262q0-152-9-238T222 0H31v47q42 62 81 148t39 227H30v128h590l-17-128h-80V127q0-25 11.5-38.5T565 75q9 0 20.5 1.5T607 81l8-31q-25-24-64-42t-81-18q-57 0-90 30.5T347 117q0 15 1 29t3 33z"/><glyph glyph-name="Wgrave" unicode="Ẁ" horiz-adv-x="1028" d="M661-3L528 382 385-3h-81L63 620q-7 16-22 24.5T5 657v45h345v-45q-25-3-35.5-12.5T304 619q0-12 4.5-27t10.5-31l108-287 71 193-52 153q-6 16-17 24.5T397 657v45h345v-45q-37-1-51-11.5T677 614q0-13 4-29.5t10-36.5l86-269 93 273q5 16 9 31t4 27q0 20-14 32.5T819 657v45h204v-45q-21-4-36.5-12.5T965 620L743-3h-82zM370 890h197l47-149h-64L370 880v10z"/><glyph glyph-name="wgrave" unicode="ẁ" horiz-adv-x="923" d="M708 236l82 202q4 10 6 18t2 14q0 15-13.5 21.5T743 501v42h175v-42q-25-8-34.5-16T867 461L667-3h-68L481 299 339-3h-68L56 461q-7 16-16.5 24T5 501v42h318v-42q-22-3-32-10t-10-19q0-7 2.5-15.5T290 438l90-214 70 145-36 92q-6 16-16 25t-29 15v42h316v-42q-31-4-45.5-9.5T625 468q0-6 1.5-13.5T631 438zM307 766h197l47-163h-59L307 756v10z"/><glyph glyph-name="Wacute" unicode="Ẃ" horiz-adv-x="1028" d="M661-3L528 382 385-3h-81L63 620q-7 16-22 24.5T5 657v45h345v-45q-25-3-35.5-12.5T304 619q0-12 4.5-27t10.5-31l108-287 71 193-52 153q-6 16-17 24.5T397 657v45h345v-45q-37-1-51-11.5T677 614q0-13 4-29.5t10-36.5l86-269 93 273q5 16 9 31t4 27q0 20-14 32.5T819 657v45h204v-45q-21-4-36.5-12.5T965 620L743-3h-82zM547 890h197v-10L564 741h-64z"/><glyph glyph-name="wacute" unicode="ẃ" horiz-adv-x="923" d="M708 236l82 202q4 10 6 18t2 14q0 15-13.5 21.5T743 501v42h175v-42q-25-8-34.5-16T867 461L667-3h-68L481 299 339-3h-68L56 461q-7 16-16.5 24T5 501v42h318v-42q-22-3-32-10t-10-19q0-7 2.5-15.5T290 438l90-214 70 145-36 92q-6 16-16 25t-29 15v42h316v-42q-31-4-45.5-9.5T625 468q0-6 1.5-13.5T631 438zM478 766h197v-10L490 603h-59z"/><glyph glyph-name="Wdieresis" unicode="Ẅ" horiz-adv-x="1028" d="M661-3L528 382 385-3h-81L63 620q-7 16-22 24.5T5 657v45h345v-45q-25-3-35.5-12.5T304 619q0-12 4.5-27t10.5-31l108-287 71 193-52 153q-6 16-17 24.5T397 657v45h345v-45q-37-1-51-11.5T677 614q0-13 4-29.5t10-36.5l86-269 93 273q5 16 9 31t4 27q0 20-14 32.5T819 657v45h204v-45q-21-4-36.5-12.5T965 620L743-3h-82zM366 823q0 36 26 62t63 26 63.5-26 26.5-62-26.5-62-63.5-26-63 26-26 62zm210 0q0 36 26.5 62t61.5 26q38 0 64.5-26t26.5-62-26.5-62-64.5-26q-35 0-61.5 26T576 823z"/><glyph glyph-name="wdieresis" unicode="ẅ" horiz-adv-x="923" d="M708 236l82 202q4 10 6 18t2 14q0 15-13.5 21.5T743 501v42h175v-42q-25-8-34.5-16T867 461L667-3h-68L481 299 339-3h-68L56 461q-7 16-16.5 24T5 501v42h318v-42q-22-3-32-10t-10-19q0-7 2.5-15.5T290 438l90-214 70 145-36 92q-6 16-16 25t-29 15v42h316v-42q-31-4-45.5-9.5T625 468q0-6 1.5-13.5T631 438zM299 691q0 36 26 62t63 26 63.5-26 26.5-62-26.5-62-63.5-26-63 26-26 62zm210 0q0 36 26.5 62t61.5 26q38 0 64.5-26t26.5-62-26.5-62-64.5-26q-35 0-61.5 26T509 691z"/><glyph glyph-name="Ygrave" unicode="Ỳ" horiz-adv-x="727" d="M481 258V107q0-38 15-47.5T560 45V0H188v45q49 5 64 14.5t15 47.5v146L63 620q-11 21-23.5 27T5 657v45h365v-45q-38-1-50.5-9.5T307 621q0-16 6-31t18-37l123-210 103 208q9 19 17 38t8 32q0 18-17 26.5t-49 9.5v45h206v-45q-21-4-35-11.5T664 620zM225 890h197l47-149h-64L225 880v10z"/><glyph glyph-name="ygrave" unicode="ỳ" horiz-adv-x="616" d="M387 202l94 234q4 10 6 16.5t2 13.5q0 16-12.5 23T424 501v42h187v-42q-25-8-34.5-16T560 461L328-83q-29-68-62.5-103.5T178-222q-31 0-53 11t-33 29v81q20-4 39-7t43-3q43 0 65.5 12.5T275-59l15 32L56 461q-7 16-16.5 24T5 501v42h342v-42q-40-5-52.5-12T282 466q0-7 2-13l5-15zM168 766h197l47-163h-59L168 756v10z"/><glyph glyph-name="endash" unicode="–" horiz-adv-x="540" d="M510 272H30v66h480v-66z"/><glyph glyph-name="emdash" unicode="—" horiz-adv-x="960" d="M930 338v-66H30v66h900z"/><glyph glyph-name="quoteleft" unicode="‘" horiz-adv-x="299" d="M138 629h42q34-8 56.5-30.5T259 535q0-45-30.5-71T155 438q-52 0-83.5 37T40 571q0 86 56.5 134.5T259 757v-45q-53-7-84.5-24.5T138 629z"/><glyph glyph-name="quoteright" unicode="’" horiz-adv-x="299" d="M161 561h-42q-34 8-56.5 30.5T40 655q0 45 30.5 71t73.5 26q52 0 83.5-37t31.5-96q0-86-56.5-134.5T40 433v45q53 7 84.5 24.5T161 561z"/><glyph glyph-name="quotesinglbase" unicode="‚" horiz-adv-x="299" d="M161 0h-42Q85 8 62.5 30.5T40 94q0 45 30.5 71t73.5 26q52 0 83.5-37T259 58q0-86-56.5-134.5T40-128v45q53 7 84.5 24.5T161 0z"/><glyph glyph-name="quotedblleft" unicode="“" horiz-adv-x="546" d="M385 629h42q34-8 56.5-30.5T506 535q0-45-30.5-71T402 438q-52 0-83.5 37T287 571q0 86 56.5 134.5T506 757v-45q-53-7-84.5-24.5T385 629zm-247 0h42q34-8 56.5-30.5T259 535q0-45-30.5-71T155 438q-52 0-83.5 37T40 571q0 86 56.5 134.5T259 757v-45q-53-7-84.5-24.5T138 629z"/><glyph glyph-name="quotedblright" unicode="”" horiz-adv-x="546" d="M161 561h-42q-34 8-56.5 30.5T40 655q0 45 30.5 71t73.5 26q52 0 83.5-37t31.5-96q0-86-56.5-134.5T40 433v45q53 7 84.5 24.5T161 561zm247 0h-42q-34 8-56.5 30.5T287 655q0 45 30.5 71t73.5 26q52 0 83.5-37t31.5-96q0-86-56.5-134.5T287 433v45q53 7 84.5 24.5T408 561z"/><glyph glyph-name="quotedblbase" unicode="„" horiz-adv-x="546" d="M161 0h-42Q85 8 62.5 30.5T40 94q0 45 30.5 71t73.5 26q52 0 83.5-37T259 58q0-86-56.5-134.5T40-128v45q53 7 84.5 24.5T161 0zm247 0h-42q-34 8-56.5 30.5T287 94q0 45 30.5 71t73.5 26q52 0 83.5-37T506 58q0-86-56.5-134.5T287-128v45q53 7 84.5 24.5T408 0z"/><glyph glyph-name="dagger" unicode="†" horiz-adv-x="384" d="M204 575q0-34 20-59.5t40-36.5v-9q-20-29-41-124t-24-208h-14q-3 113-24 208t-41 124v9q20 11 40 36.5t20 59.5q-37 0-59-22.5T68 530q-18 0-33 14t-15 42 15 42 33 14q31 0 53-22.5t59-22.5q0 37-22 59.5T136 710q0 18 14 33t42 15 42-15 14-33q0-31-22-53.5T204 597q37 0 59 22.5t53 22.5q18 0 33-14t15-42-15-42-33-14q-31 0-53 22.5T204 575z"/><glyph glyph-name="daggerdbl" unicode="‡" horiz-adv-x="404" d="M191 450q0 22-15.5 36.5T130 503v9q20 11 40 31.5t20 54.5q-37 0-59-22.5T78 553q-18 0-33 14t-15 42 15 42 33 14q31 0 53-22.5t59-22.5q0 37-22 48t-22 42q0 18 14 33t42 15 42-15 14-33q0-31-22-42t-22-48q37 0 59 22.5t53 22.5q18 0 33-14t15-42-15-42-33-14q-31 0-53 22.5T214 598q0-34 20-54.5t40-31.5v-9q-30-2-45.5-16.5T213 450t15.5-36.5T274 397v-9q-20-11-40-31.5T214 302q37 0 59 22.5t53 22.5q18 0 33-14t15-42-15-42-33-14q-31 0-53 22.5T214 280q0-37 22-48t22-42q0-18-14-33t-42-15-42 15-14 33q0 31 22 42t22 48q-37 0-59-22.5T78 235q-18 0-33 14t-15 42 15 42 33 14q31 0 53-22.5t59-22.5q0 34-20 54.5T130 388v9q30 2 45.5 16.5T191 450z"/><glyph glyph-name="bullet" unicode="•" horiz-adv-x="382" d="M30 309q0 68 47.5 116.5T191 474t113.5-48.5T352 309q0-66-47.5-115T191 145 77.5 194 30 309z"/><glyph glyph-name="ellipsis" unicode="…" horiz-adv-x="846" d="M30 101q0 49 32.5 80.5T141 213t78.5-31.5T252 101t-32.5-80T141-10 62.5 21 30 101zm282 0q0 49 32.5 80.5T423 213t78.5-31.5T534 101t-32.5-80T423-10t-78.5 31-32.5 80zm282 0q0 49 32.5 80.5T705 213t78.5-31.5T816 101t-32.5-80T705-10t-78.5 31-32.5 80z"/><glyph glyph-name="perthousand" unicode="‰" horiz-adv-x="1182" d="M767 165q0-87-53-131T592-10 470 34t-53 131 53 131 122 44 122-44 53-131zM153-10l439 722h57L210-10h-57zM35 537q0 87 53 131t122 44 122-44 53-131-53-131-122-44-122 44-53 131zm611-372q0 57-11.5 97.5T592 303t-42.5-40.5T538 165t11.5-97.5T592 27t42.5 40.5T646 165zM156 537q0-57 11.5-97.5T210 399t42.5 40.5T264 537t-11.5 97.5T210 675t-42.5-40.5T156 537zm870-372q0 57-11.5 97.5T972 303t-42.5-40.5T918 165t11.5-97.5T972 27t42.5 40.5T1026 165zm121 0q0-87-53-131T972-10 850 34t-53 131 53 131 122 44 122-44 53-131z"/><glyph glyph-name="guilsinglleft" unicode="‹" horiz-adv-x="277" d="M20 273v6l187 202h50l-82-205 82-205h-50z"/><glyph glyph-name="guilsinglright" unicode="›" horiz-adv-x="277" d="M257 279v-6L70 71H20l82 205-82 205h50z"/><glyph glyph-name="fraction" unicode="⁄" horiz-adv-x="283" d="M-109-10l438 722h58L-52-10h-57z"/><glyph glyph-name="Euro" unicode="€" horiz-adv-x="689" d="M24 393v48h85q28 124 116.5 197.5T436 712q66 0 116.5-15.5T641 649V483h-56q-11 74-43 127.5T449 664q-63 0-94-68t-39-155h171l-8-48H313v-51l1-23h148l-8-49H316q8-97 38.5-162T454 43q61 0 95.5 47.5T616 237h52L655 45Q615 17 553 3.5T437-10q-143 0-230 75.5T102 270H24v49h74v18q0 14 1 28.5t2 27.5H24z"/><glyph glyph-name="uni2117" unicode="℗" horiz-adv-x="776" d="M436 304h-52v-77q0-22 10.5-29.5T441 189v-35H225v35q28 1 34.5 8.5T266 227v253q0 22-6.5 28.5T225 516v35h209q83 0 121-38t38-83q0-57-39-91.5T436 304zm-52 209V337h15q42 0 60.5 26t18.5 65q0 34-19.5 59.5T399 513h-15zM72 351q0-132 88.5-227T388 29t227.5 95T704 351t-88.5 227T388 673t-227.5-95T72 351zm-42 0q0 149 101 255t257 106 257-106 101-255T645 96 388-10 131 96 30 351z"/><glyph glyph-name="trademark" unicode="™" horiz-adv-x="895" d="M361 702l6-116h-30q-15 39-29.5 64T262 675h-7V433q0-20 9.5-26.5T297 399v-29H110v29q23 1 31.5 7.5T150 433v242h-6q-31 0-46-25t-30-64H38l7 116h316zm249-195l56 161q4 11 5.5 19t1.5 15h143v-32q-24 0-32.5-10t-8.5-30l30-200q3-18 12-24t29-7v-29H660v29q25 1 35.5 7t10.5 25q0 3-1 15t-2 25l-23 135-79-236h-49l-81 236-20-135q-2-13-3-25t-1-15q0-19 10-25t36-7v-29H365v29q22 1 30 6.5t11 24.5l30 200q0 20-8.5 30T397 670v32h147q1-7 2.5-14.5T552 669z"/><glyph glyph-name="Omega" unicode="Ω" horiz-adv-x="736" d="M368 668q-64 0-90.5-75T251 400q0-113 26.5-186T336 90V0H65L40 198h34q33-59 54-73.5t88-14.5h73q-90 26-162 104.5T55 400q0 128 84 220t229 92 229-92 84-220q0-107-72-185.5T447 110h73q67 0 88 14.5t54 73.5h34L671 0H400v90q32 51 58.5 124T485 400q0 118-26.5 193T368 668z"/><glyph glyph-name="uni2153" unicode="⅓" horiz-adv-x="798" d="M202 712h36V383q0-26 12-32t52-9v-36H40v36q48 3 57 9t9 32v210H40v34l25 5q51 10 82 29.5t55 50.5zM151-10l438 722h58L208-10h-57zm477 227q57-1 93.5-28t36.5-77q0-59-51-89.5T585-8q-74 0-107.5 24.5T444 75q0 20 9.5 31.5T473 122h72q-3-9-4-15.5T540 92q0-31 13-50t37-19q22 0 34.5 19T637 95q0 37-17.5 58.5T561 175h-14l-8 23q43 17 56 33t13 39q0 19-11 33t-38 14-44.5-13-29.5-28l-26 20q20 40 60.5 72.5T622 401q51 0 82-24t31-67q0-42-32.5-64.5T628 217z"/><glyph glyph-name="uni2154" unicode="⅔" horiz-adv-x="853" d="M206-10l438 722h58L263-10h-57zm477 227q57-1 93.5-28t36.5-77q0-59-51-89.5T640-8q-74 0-107.5 24.5T499 75q0 20 9.5 31.5T528 122h72q-3-9-4-15.5T595 92q0-31 13-50t37-19q22 0 34.5 19T692 95q0 37-17.5 58.5T616 175h-14l-8 23q43 17 56 33t13 39q0 19-11 33t-38 14-44.5-13-29.5-28l-26 20q20 40 60.5 72.5T677 401q51 0 82-24t31-67q0-42-32.5-64.5T683 217zM160 402h109q22 0 32 8.5t26 30.5h22l-11-139H30v28l117 108q32 30 47.5 57.5T210 554q0 29-16 47t-47 18q-29 0-50.5-13T61 576l-23 20q21 44 63 78t105 34q58 0 92.5-30.5T333 593q0-65-52-109t-121-82z"/><glyph glyph-name="uni215B" unicode="⅛" horiz-adv-x="841" d="M202 712h41V383q0-26 12-32t52-9v-36H40v36q48 3 57 9t9 32v210H40v34l25 5q51 10 82 29.5t55 50.5zM151-10l438 722h58L208-10h-57zm633 324q0-34-27-52t-64-19q51-17 79.5-50.5T801 119q0-68-52-98.5T633-10q-67 0-119.5 24T461 87q0 34 26 53t66 24q-34 15-57 42.5T473 274q0 63 45.5 97.5T633 406t110-25.5 41-66.5zM653 126l-79 29q-8-12-13.5-26T555 98q0-36 23.5-54.5T636 25q28 0 46 13.5T700 74t-12 32-35 20zm-38 146l54-19q11 10 16.5 22.5T691 306q0 29-16.5 47T629 371q-26 0-41-15t-15-36q0-19 11.5-30t30.5-18z"/><glyph glyph-name="uni215C" unicode="⅜" horiz-adv-x="867" d="M810 314q0-34-27-52t-64-19q51-17 79.5-50.5T827 119q0-68-52-98.5T659-10q-67 0-119.5 24T487 87q0 34 26 53t66 24q-34 15-57 42.5T499 274q0 63 45.5 97.5T659 406t110-25.5 41-66.5zM679 126l-79 29q-8-12-13.5-26T581 98q0-36 23.5-54.5T662 25q28 0 46 13.5T726 74t-12 32-35 20zm-38 146l54-19q11 10 16.5 22.5T717 306q0 29-16.5 47T655 371q-26 0-41-15t-15-36q0-19 11.5-30t30.5-18zM177-10l438 722h58L234-10h-57zm47 538q57-1 93.5-28t36.5-77q0-59-51-89.5T181 303q-74 0-107.5 24.5T40 386q0 20 9 31.5T68 433h73q-3-9-4-15.5t-1-14.5q0-31 13-50t37-19q22 0 36.5 17.5T237 406t-19.5 58.5T157 486h-14l-8 23q43 17 58.5 32.5T209 579q0 20-13.5 34.5T155 628t-44.5-13T81 587l-26 20q20 40 60.5 72.5T218 712q51 0 82-24t31-67q0-42-32.5-64.5T224 528z"/><glyph glyph-name="uni215D" unicode="⅝" horiz-adv-x="862" d="M172-10l438 722h58L229-10h-57zm169 737l-22-131H134l-6-35q98 0 158.5-26.5T347 427q0-57-41-91t-107-34q-69 0-111.5 23T45 384q0 18 11.5 31.5T79 433h67q-3-9-4-15.5t-1-15.5q0-31 14-49.5t44-18.5q25 0 40 14.5t15 39.5q0 44-42.5 64T79 472l39 230h155q18 0 24.5 4.5T312 727h29zm464-413q0-34-27-52t-64-19q51-17 79.5-50.5T822 119q0-68-52-98.5T654-10q-67 0-119.5 24T482 87q0 34 26 53t66 24q-34 15-57 42.5T494 274q0 63 45.5 97.5T654 406t110-25.5 41-66.5zM674 126l-79 29q-8-12-13.5-26T576 98q0-36 23.5-54.5T657 25q28 0 46 13.5T721 74t-12 32-35 20zm-38 146l54-19q11 10 16.5 22.5T712 306q0 29-16.5 47T650 371q-26 0-41-15t-15-36q0-19 11.5-30t30.5-18z"/><glyph glyph-name="uni215E" unicode="⅞" horiz-adv-x="776" d="M269 585H132q-22 0-37-14t-26-47H30l33 178h301v-34L164 306H83zM86-10l438 722h58L143-10H86zm633 324q0-34-27-52t-64-19q51-17 79.5-50.5T736 119q0-68-52-98.5T568-10q-67 0-119.5 24T396 87q0 34 26 53t66 24q-34 15-57 42.5T408 274q0 63 45.5 97.5T568 406t110-25.5 41-66.5zM588 126l-79 29q-8-12-13.5-26T490 98q0-36 23.5-54.5T571 25q28 0 46 13.5T635 74t-12 32-35 20zm-38 146l54-19q11 10 16.5 22.5T626 306q0 29-16.5 47T564 371q-26 0-41-15t-15-36q0-19 11.5-30t30.5-18z"/><glyph glyph-name="partialdiff" unicode="∂" horiz-adv-x="618" d="M287 552q21 0 43-6t34-18q-29 81-87 139t-168 84l21 37q263-25 365.5-161T598 332q0-153-75-247.5T304-10Q176-10 98 70T20 266q0 131 81.5 208.5T287 552zm28-518q40 0 53 53t13 146q0 128-16.5 202T305 509q-40 0-53-53t-13-146q0-128 16.5-202T315 34z"/><glyph glyph-name="Delta" unicode="∆" horiz-adv-x="682" d="M662 0H20v41l295 661h45L662 41V0zM265 442L92 58h346z"/><glyph glyph-name="product" unicode="∏" horiz-adv-x="828" d="M514 650H314V-85q0-38 10-50t59-17v-45H26v45q49 5 59 17t10 50v675q0 38-10 50t-59 17v45h776v-45q-49-5-59-17t-10-50V-85q0-38 10-50t59-17v-45H445v45q49 5 59 17t10 50v735z"/><glyph glyph-name="summation" unicode="∑" horiz-adv-x="625" d="M156-33h224q60 0 98.5 12.5T559 61h46l-47-258H10v52l266 365L23 642v60h555V510h-45q-36 73-64.5 107.5T369 652H241l185-310v-14z"/><glyph glyph-name="minus" unicode="−" horiz-adv-x="576" d="M66 333v72h444v-72H66z"/><glyph glyph-name="radical" unicode="√" horiz-adv-x="607" d="M374 267l173 445h60L327 0h-77L105 444q-10 30-22.5 42T45 501l-25 3v46h270z"/><glyph glyph-name="infinity" unicode="∞" horiz-adv-x="762" d="M350 348l-46 54q-22 25-45 37t-51 12q-38 0-67-27t-29-76 29-76.5 67-27.5q28 0 51.5 11.5T304 292zm31-59l-32-38q-29-34-64-53.5T202 178q-66 0-114 45.5T40 348t48 124.5T202 518q48 0 83.5-19.5T349 445l32-38 32 38q28 34 63.5 53.5T560 518q66 0 114-45.5T722 348t-48-124.5T560 178q-48 0-83.5 19.5T413 251zm83 113l-46-54 46-56q21-25 44.5-36.5T560 244q38 0 67 27.5t29 76.5-29 76-67 27q-28 0-51-12t-45-37z"/><glyph glyph-name="integral" unicode="∫" horiz-adv-x="457" d="M293 622V57q0-140-64.5-196.5T64-196q-66 0-108 25t-42 71q0 23 10.5 38.5T-51-36h92v-64q0-20 5-37.5T70-155q18 0 23 16t5 33v565q0 140 64.5 196.5T327 712q66 0 108-25t42-71q0-23-10.5-38.5T442 552h-92v64q0 20-5 37.5T321 671q-18 0-23-16t-5-33z"/><glyph glyph-name="approxequal" unicode="≈" horiz-adv-x="586" d="M71 383v73q33 22 63 31.5t57 9.5q57 0 101.5-20T394 457q28 0 58 9.5t64 31.5v-73q-34-22-64-31.5t-58-9.5q-57 0-101.5 20T191 424q-27 0-57-9.5T71 383zm0-137v72q33 22 63 31.5t57 9.5q57 0 101.5-19.5T394 320q28 0 58 9t64 31v-73q-34-22-64-31t-58-9q-57 0-101.5 19T191 285q-27 0-57-9t-63-30z"/><glyph glyph-name="notequal" unicode="≠" horiz-adv-x="586" d="M71 408v69h263l74 104h75l-74-104h107v-69H359l-56-79h213v-68H254l-74-104h-75l74 104H71v68h157l56 79H71z"/><glyph glyph-name="lessequal" unicode="≤" horiz-adv-x="448" d="M54 401v9l318 172v-82l-182-94 182-95v-82zm0-273v71h318v-71H54z"/><glyph glyph-name="greaterequal" unicode="≥" horiz-adv-x="448" d="M394 410v-9L76 229v82l183 95-183 94v82zm0-211v-71H76v71h318z"/><glyph glyph-name="lozenge" unicode="◊" horiz-adv-x="578" d="M36 351l205 351h95l206-351L336 0h-95zm421 0L289 644 120 351 289 59z"/><glyph glyph-name="i.dot" horiz-adv-x="350" d="M281 553V78q0-22 12.5-28t40.5-8V0H22v42q28 2 40.5 8T75 78v350l-53 34v31l223 60h36zm-99 41q-50 0-78 29.5T76 693t28 69.5 78 29.5q49 0 77.5-29.5T288 693t-28.5-69.5T182 594z"/><glyph glyph-name="space_uni0326" d="M259-158h-56q-22 6-36 20.5T153-96t22.5 45.5T238-32q46 0 72-27.5t26-68.5q0-51-41.5-86.5T159-250v40q50 0 74.5 16t25.5 36z"/><glyph glyph-name="space_uni0326.alt" d="M230 715h56q22-6 36-20.5t14-41.5-22.5-45.5T251 589q-46 0-72 27.5T153 685q0 51 41.5 86.5T330 807v-40q-50 0-74.5-16T230 715z"/><glyph glyph-name="space_dotbelowcomb" d="M251-212q-48 0-75.5 28.5T148-117t27.5 66.5T251-22t75-28.5 27-66.5-27-66.5-75-28.5z"/><glyph glyph-name="caron.Slovak" d="M360 771L241 578h-47l11 205h155v-12z"/><glyph glyph-name="cedilla.alt" d="M148-233l-9 37q54 0 78.5 14t24.5 33q0 20-21 25.5t-56 6.5l32 79h35q51 0 81-22t30-62q0-57-60-84t-135-27z"/><glyph glyph-name="grave.cap" d="M114 890h197l47-149h-64L114 880v10z"/><glyph glyph-name="acute.cap" d="M161 890h197v-10L178 741h-64z"/><glyph glyph-name="circumflex.cap" d="M318 893l118-152h-65l-121 65-121-65H64l118 152h136z"/><glyph glyph-name="tilde.cap" d="M310 741q-49 0-76.5 30T174 801q-21 0-36-16t-29-39l-40 22q25 64 52 101.5t69 37.5q49 0 76.5-30t59.5-30q21 0 36 16t29 39l40-22q-25-64-52-101.5T310 741z"/><glyph glyph-name="macron.cap" d="M110 746v95h294v-95H110z"/><glyph glyph-name="breve.cap" d="M259 738q-72 0-111 42t-39 114h51q7-35 36.5-47t62.5-12 62.5 12 36.5 47h51q0-72-39-114t-111-42z"/><glyph glyph-name="dotaccent.cap" d="M251 737q-50 0-78 29.5T145 836t28 69.5 78 29.5q49 0 77.5-29.5T357 836t-28.5-69.5T251 737z"/><glyph glyph-name="dieresis.cap" d="M61 823q0 36 26 62t63 26 63.5-26 26.5-62-26.5-62-63.5-26-63 26-26 62zm210 0q0 36 26.5 62t61.5 26q38 0 64.5-26t26.5-62-26.5-62-64.5-26q-35 0-61.5 26T271 823z"/><glyph glyph-name="ring.cap" d="M212 829q0-21 12.5-35t36.5-14 36.5 14 12.5 35q0 22-12.5 36T261 879t-36.5-14-12.5-36zm-59 0q0 44 30.5 74.5T261 934t77-30.5 30-74.5q0-43-30-73.5T261 725t-77.5 30.5T153 829z"/><glyph glyph-name="hungarumlaut.cap" d="M112 890h162v-10L125 741H64zm188 0h162v-10L313 741h-61z"/><glyph glyph-name="caron.cap" d="M436 894L318 742H182L64 894h65l121-65 121 65h65z"/><glyph glyph-name="exclamdown.cap" horiz-adv-x="305" d="M51 609q0 42 30 72.5t71 30.5q43 0 72.5-30.5T254 609q0-44-29.5-75T152 503q-41 0-71 31t-30 75zm68-148h67L274 0H31z"/><glyph glyph-name="questiondown.cap" horiz-adv-x="477" d="M173 102q0-31 16-50t47-19q40 0 54.5 30t14.5 67q0 22-2 34t-4 27h119q22-10 33-28t11-41q0-60-61.5-96T238-10Q128-10 69 35T10 161q0 64 34.5 108T148 352q43 25 61 46t18 56v9h29q41-14 64.5-42t23.5-70q0-32-19-64t-58-60q-38-28-66-56.5T173 102zm173 507q0-44-29.5-75T245 503q-43 0-72.5 31T143 609q0 42 29.5 72.5T245 712q42 0 71.5-30.5T346 609z"/><glyph glyph-name="guilsinglleft.cap" horiz-adv-x="277" d="M20 348v6l187 202h50l-82-205 82-205h-50z"/><glyph glyph-name="guilsinglright.cap" horiz-adv-x="277" d="M257 354v-6L70 146H20l82 205-82 205h50z"/><glyph glyph-name="guillemotleft.cap" horiz-adv-x="474" d="M20 348v6l187 202h50l-82-205 82-205h-50zm197 0v6l187 202h50l-82-205 82-205h-50z"/><glyph glyph-name="guillemotright.cap" horiz-adv-x="474" d="M454 354v-6L267 146h-50l82 205-82 205h50zm-197 0v-6L70 146H20l82 205-82 205h50z"/><glyph glyph-name="slash.cap" horiz-adv-x="357" d="M352 770L92-101H5l260 871h87z"/><glyph glyph-name="backslash.cap" horiz-adv-x="357" d="M265-101L5 770h87l260-871h-87z"/><glyph glyph-name="bar.cap" horiz-adv-x="202" d="M142 770v-871H60v871h82z"/><glyph glyph-name="brokenbar.cap" horiz-adv-x="202" d="M142 770V399H60v371h82zm0-500v-371H60v371h82z"/><glyph glyph-name="periodcentered.cap" horiz-adv-x="275" d="M30 345q0 47 31.5 77.5T137 453q45 0 76.5-30.5T245 345t-31.5-77-76.5-30q-44 0-75.5 30T30 345z"/><glyph glyph-name="bullet.cap" horiz-adv-x="382" d="M30 349q0 68 47.5 116.5T191 514t113.5-48.5T352 349q0-66-47.5-115T191 185 77.5 234 30 349z"/><glyph glyph-name="hyphen.cap" horiz-adv-x="320" d="M290 307H30v86h260v-86z"/><glyph glyph-name="endash.cap" horiz-adv-x="540" d="M510 312H30v66h480v-66z"/><glyph glyph-name="emdash.cap" horiz-adv-x="960" d="M930 378v-66H30v66h900z"/><glyph glyph-name="parenleft.cap" horiz-adv-x="378" d="M207 334q0-108 35-223.5T358-102h-59Q189-23 124.5 94.5T60 334t64.5 239.5T299 770h59q-81-97-116-212.5T207 334z"/><glyph glyph-name="parenright.cap" horiz-adv-x="378" d="M171 334q0 108-35 223.5T20 770h59q110-79 174.5-196.5T318 334 253.5 94.5 79-102H20q81 97 116 212.5T171 334z"/><glyph glyph-name="bracketleft.cap" horiz-adv-x="342" d="M209 668V1q0-39 21.5-47.5T312-59v-42H85v871h227v-42q-60-4-81.5-12.5T209 668z"/><glyph glyph-name="bracketright.cap" horiz-adv-x="342" d="M133 1v667q0 39-21.5 47.5T30 728v42h227v-871H30v42q60 4 81.5 12.5T133 1z"/><glyph glyph-name="braceleft.cap" horiz-adv-x="373" d="M50 324v20q36 7 59.5 29.5T133 444v198q0 59 48.5 93.5T348 770v-31q-35-4-60-26t-25-72V456q0-58-34-85t-87-37q53-10 87-37t34-85V29q0-50 25-72t60-26v-31q-118 0-166.5 34.5T133 28v196q0 48-23.5 70.5T50 324z"/><glyph glyph-name="braceright.cap" horiz-adv-x="383" d="M333 344v-20q-36-7-59.5-29.5T250 224V28q0-59-48.5-93.5T35-100v31q35 4 60 26t25 72v183q0 58 34 85t87 37q-53 10-87 37t-34 85v185q0 50-25 72t-60 26v31q118 0 166.5-34.5T250 642V444q0-48 23.5-70.5T333 344z"/><glyph glyph-name="at.cap" horiz-adv-x="894" d="M610 139q-80 0-103 48t-12 108q-37-66-77-111t-97-45q-44 0-74.5 34.5T216 268q0 101 73.5 193.5T475 554q36 0 61.5-14t35.5-28l78 32h46l-35-94-57-198q-8-29-2-51.5t31-22.5q49 0 92 68.5T768 431q0 107-76 194t-210 87q-162 0-257-114.5T130 321q0-171 102-254t241-83q82 0 144.5 19T743 60l14-21q-54-50-131-78T451-67q-161 0-286 98T40 318q0 181 126 309t316 128q175 0 273.5-99T854 431q0-159-84-225.5T610 139zm-221 97q41 0 82.5 77.5T532 486q-5 14-15 22.5t-25 8.5q-55 0-94-81t-39-150q0-23 7-36.5t23-13.5z"/></font>
</defs>
</svg>
